<?xml version="1.0" encoding="UTF-8" standalone="no"?>
<!-- Generator: Adobe Illustrator 13.0.0, SVG Export Plug-In . SVG Version: 6.00 Build 14948)  -->
<svg
   xmlns:dc="http://purl.org/dc/elements/1.1/"
   xmlns:cc="http://creativecommons.org/ns#"
   xmlns:rdf="http://www.w3.org/1999/02/22-rdf-syntax-ns#"
   xmlns:svg="http://www.w3.org/2000/svg"
   xmlns="http://www.w3.org/2000/svg"
   xmlns:sodipodi="http://sodipodi.sourceforge.net/DTD/sodipodi-0.dtd"
   xmlns:inkscape="http://www.inkscape.org/namespaces/inkscape"
   version="1.1"
   id="Layer_1"
   x="0px"
   y="0px"
   width="401.469px"
   height="408.876px"
   viewBox="0 0 401.469 408.876"
   enable-background="new 0 0 401.469 408.876"
   xml:space="preserve"
   sodipodi:version="0.32"
   inkscape:version="0.46"
   sodipodi:docname="Fullmetal_Alchemist_Anime_Logo.svg"
   inkscape:output_extension="org.inkscape.output.svg.inkscape"><metadata
   id="metadata30"><rdf:RDF><cc:Work
       rdf:about=""><dc:format>image/svg+xml</dc:format><dc:type
         rdf:resource="http://purl.org/dc/dcmitype/StillImage" /></cc:Work></rdf:RDF></metadata><defs
   id="defs28"><inkscape:perspective
   sodipodi:type="inkscape:persp3d"
   inkscape:vp_x="0 : 204.438 : 1"
   inkscape:vp_y="0 : 1000 : 0"
   inkscape:vp_z="401.46899 : 204.438 : 1"
   inkscape:persp3d-origin="200.7345 : 136.292 : 1"
   id="perspective32" />
	
	
	
	
	
</defs><sodipodi:namedview
   inkscape:window-height="669"
   inkscape:window-width="640"
   inkscape:pageshadow="2"
   inkscape:pageopacity="0.0"
   guidetolerance="10.0"
   gridtolerance="10.0"
   objecttolerance="10.0"
   borderopacity="1.0"
   bordercolor="#666666"
   pagecolor="#ffffff"
   id="base"
   showgrid="false"
   inkscape:zoom="1.1299269"
   inkscape:cx="200.7345"
   inkscape:cy="204.438"
   inkscape:window-x="115"
   inkscape:window-y="95"
   inkscape:current-layer="Layer_1" />
<path
   style="fill:#d20303"
   id="path5"
   d="M 0,2.089 C 0,2.089 54.315,34.82 87.049,31.338 C 87.049,31.338 99.584,77.994 126.744,89.138 C 126.744,88.442 82.173,73.818 68.246,80.086 C 67.548,80.086 87.049,46.661 23.675,41.784 C 23.675,42.48 38.997,23.677 0.694,9.053 C 1.392,9.748 0,2.089 0,2.089 z" /><path
   style="fill:#d20303"
   id="path7"
   d="M 401.469,0 C 401.469,0 347.155,32.731 314.425,29.249 C 314.425,29.249 301.89,75.905 274.73,87.049 C 274.73,86.353 319.297,71.729 333.228,77.996 C 333.921,77.996 314.425,44.571 377.794,39.695 C 377.794,40.391 362.476,21.588 400.775,6.964 C 400.078,7.659 401.469,0 401.469,0 z" /><path
   style="fill:#d20303"
   id="path9"
   d="M 32.032,292.837 C 32.032,292.837 15.319,254.187 38.3,182.107 C 38.3,182.107 -1.395,155.992 3.828,150.769 C 5.917,140.323 47.701,168.527 50.835,161.215 C 53.969,153.902 5.918,112.119 10.096,101.673 C 14.274,91.227 66.855,142.761 73.123,138.583 C 79.391,134.405 53.275,98.888 58.845,95.057 C 61.567,93.186 91.925,122.914 98.193,120.825 C 104.461,118.736 181.41,69.291 267.068,114.209 C 267.068,114.209 297.883,92.272 299.973,94.361 C 303.107,97.495 283.259,127.266 283.259,127.266 C 283.259,127.266 284.826,134.056 290.049,135.1 C 295.272,136.145 330.788,106.896 333.922,111.597 C 337.056,116.298 302.584,146.591 311.985,154.948 C 321.386,163.305 352.724,135.1 357.947,141.89 C 363.171,148.68 328.176,170.094 329.221,175.84 C 424.763,433.429 49.696,502.675 72.249,254.71 C 72.249,254.71 66.854,401.125 208.222,386.501 C 340.711,369.094 330.265,206.134 238.164,175.84 C 136.842,149.029 107.916,223.061 107.875,223.457 C 100.975,239.91 102.778,272.794 108.638,279.951 C 114.906,287.614 81.911,274.035 81.911,274.035 L 91.834,260.977 L 81.127,252.097 L 87.133,246.091 L 77.732,233.556 L 87.656,222.065 L 63.108,209.005 L 71.726,224.154 L 56.841,241.39 L 65.72,252.881 L 56.319,264.894 L 60.497,274.295 L 51.096,285.002 L 32.032,292.837 z M 46.917,214.492 C 42.734,214.492 39.344,217.884 39.344,222.065 C 39.344,226.248 42.735,229.639 46.917,229.639 C 51.099,229.639 54.49,226.247 54.49,222.065 C 54.491,217.883 51.1,214.492 46.917,214.492 z" /><g
   id="g11">
		<polygon
   style="fill:#d20303"
   id="polygon13"
   points="287.958,332.532 246.681,261.76 235.969,268.114 243.718,281.522 222.08,318.952 209.308,318.952 209.169,332.882 287.958,332.532 " />
		<polygon
   style="fill:#d20303"
   id="polygon15"
   points="190.603,318.952 178.798,318.952 157.16,281.522 163.398,270.729 152.238,264.502 112.919,333.311 190.464,332.964 190.603,318.952 " />
		<polygon
   style="fill:#d20303"
   id="polygon17"
   points="172.763,254.53 178.798,244.087 222.08,244.087 226.605,251.918 237.255,245.606 199.764,181.328 161.521,248.258 172.763,254.53 " />
	</g><g
   id="g19">
		<polygon
   style="fill:#d20303"
   id="polygon21"
   points="176.896,339.293 199.4,374.704 221.594,339.093 176.896,339.293 " />
		<polygon
   style="fill:#d20303"
   id="polygon23"
   points="261.599,274.904 286.31,235.25 238.593,235.461 261.599,274.904 " />
		<polygon
   style="fill:#d20303"
   id="polygon25"
   points="161.416,235.808 111.262,236.029 137.606,277.478 161.416,235.808 " />
	</g>
</svg>