<?xml version="1.0" encoding="utf-8"?>
<!-- Generator: Adobe Illustrator 22.1.0, SVG Export Plug-In . SVG Version: 6.00 Build 0)  -->
<svg version="1.1" id="Слой_1" xmlns="http://www.w3.org/2000/svg" xmlns:xlink="http://www.w3.org/1999/xlink" x="0px" y="0px"
	 viewBox="0 0 640 480" style="enable-background:new 0 0 640 480;" xml:space="preserve">
<style type="text/css">
	.st0{opacity:0.5;}
</style>
<g>
	<g class="st0">
		<path d="M161.6,313.9c45-31,88.7-61,132.3-90.9c0-35.7,0-70.8,0-107c-29.8-18.9-59.9-38.1-92-58.5c0,48.7,0,94.9,0,144.1
			c14-9.9,26.1-18.4,38.4-27.1c0-20.1,0-39.6,0-60.4c9.4,0,17.9,0,27.2,0c0,25,0,49.4,0,74.5c-30.1,21.6-60.5,43.4-92.5,66.3
			c0-82.8,0-163.7,0-246.9c49.4,31.4,98,62.3,146.7,93.2c0,45.5,0,90.3,0,135.8c-52.9,36.4-106,72.8-160,110
			C109.2,311.2,57.1,275.6,5.4,240.4c0-45.7,0-90.1,0-135.6c48.3-32,96.8-64.2,146.8-97.4c0,84.7,0,167.6,0,251.8
			c-7.8,0-15.6,0-25.3,0c0-25.2,0-49.9,0-75.9c-12.5,0-23.2,0-36.1,0c0,14.5,0,28.8,0,44.2c-9.7,0-17.3,0-25.9,0
			c0-37.5,0-74.8,0-113.5c7.5,0,15.3,0,25.3,0c0,13.2,0,26.4,0,40.4c12.6,0,23,0,34.9,0c0-31.1,0-62.1,0-96.2
			c-31.7,21-62,41-92.6,61.2c0,35.6,0,70.5,0,106.2C75.3,255,118,284.1,161.6,313.9z"/>
	</g>
	<g>
	</g>
</g>
</svg>
