<?xml version="1.0" encoding="utf-8"?>
<!-- Generator: Adobe Illustrator 22.1.0, SVG Export Plug-In . SVG Version: 6.00 Build 0)  -->
<svg version="1.1" id="Слой_1" xmlns="http://www.w3.org/2000/svg" xmlns:xlink="http://www.w3.org/1999/xlink" x="0px" y="0px"
	 viewBox="0 0 640 480" style="enable-background:new 0 0 640 480;" xml:space="preserve">
<style type="text/css">
	.st0{opacity:0.5;}
</style>
<g>
	<g class="st0">
		<path d="M186.7,366.4c53.8-37.1,106-72.9,158.2-108.7c0-42.7,0-84.6,0-127.9c-35.6-22.6-71.6-45.5-110-69.9
			c0,58.2,0,113.5,0,172.3c16.7-11.8,31.2-22,45.9-32.4c0-24,0-47.3,0-72.2c11.2,0,21.4,0,32.5,0c0,29.9,0,59.1,0,89.1
			c-36,25.8-72.3,51.9-110.6,79.3c0-99,0-195.7,0-295.2c59.1,37.5,117.2,74.5,175.4,111.4c0,54.4,0,108,0,162.3
			c-63.2,43.5-126.7,87-191.3,131.5C124.1,363.2,61.8,320.6,0,278.6c0-54.6,0-107.7,0-162.1C57.7,78.2,115.7,39.7,175.5,0
			c0,101.3,0,200.4,0,301c-9.3,0-18.6,0-30.2,0c0-30.1,0-59.7,0-90.7c-14.9,0-27.7,0-43.2,0c0,17.3,0,34.4,0,52.8
			c-11.6,0-20.7,0-31,0c0-44.8,0-89.4,0-135.7c9,0,18.3,0,30.2,0c0,15.8,0,31.6,0,48.3c15.1,0,27.5,0,41.7,0c0-37.2,0-74.2,0-115
			c-37.9,25.1-74.1,49-110.7,73.2c0,42.6,0,84.3,0,127C83.6,296,134.6,330.8,186.7,366.4z"/>
	</g>
</g>
</svg>
