<?xml version="1.0" encoding="utf-8"?>
<!-- Generator: Adobe Illustrator 22.1.0, SVG Export Plug-In . SVG Version: 6.00 Build 0)  -->
<svg version="1.1" id="Слой_1" xmlns="http://www.w3.org/2000/svg" xmlns:xlink="http://www.w3.org/1999/xlink" x="0px" y="0px"
	 viewBox="0 0 640 480" style="enable-background:new 0 0 640 480;" xml:space="preserve">
<g>
	<g>
		<path d="M36.6,372c1.4-4.6,3-8.7,4.5-13.4c-2.1,1.3-3.6,2.5-5.2,3.7c-1.5,1.1-3,2.3-4.7,3.3c20-58.3,40.3-116.5,60.5-174.7
			c0.3-0.2,0.6-0.4,1-0.6c19.3-10.1,38.7-19.8,58.7-28.4c3.5-1.5,7.1-2.8,10.7-4.2c0.6-0.2,1.2-0.4,2-0.6c-0.1,0.6-0.2,1-0.3,1.4
			c-0.7,2.5-1.5,4.9-2.2,7.3c-0.1,0.4-0.1,0.8-0.2,1.5c2.4-0.9,4.5-1.7,6.9-2.6c-0.1,0.6-0.1,1-0.2,1.4c-2,6.8-4,13.6-6,20.4
			c-0.2,0.7-0.3,1.3-0.5,2.1c0.9,0.1,1.5-0.4,2.1-0.7c9.4-4.9,16-12.2,19.4-22.3c2.3-6.8,4.2-13.7,6.3-20.5c2.4-8,4.8-16,7.2-24.1
			c0.2-0.6,0.3-1.2,0.5-1.8c-2.8,0.2-26.1,8.7-43.6,16c-14.3,6-28.4,12.3-42.4,19.5c0.2-2,1-3.6,1.4-5.2c0.4-1.6,1-3.3,1.5-5.1
			c-1.2,0.2-2,0.8-2.8,1.1c-0.9,0.4-1.8,0.9-2.7,1.4c-0.9,0.4-1.7,0.9-2.6,1.4c-0.3-0.8,0.1-1.4,0.3-2c3.4-11.2,6.9-22.4,10.4-33.5
			c2.2-7.2,4.5-14.4,6.8-21.6c0.2-0.6,0.4-1.2,0.6-1.9c0.8-0.3,1.6-0.7,2.4-1.1c15-6.5,30.5-11.5,46.3-15.7
			c15.6-4.2,31.3-7.5,47.3-10c9.5-1.5,19.1-2.9,28.7-4.1c7.2-0.9,14.5-1.5,21.8-2.1c4-0.4,8-0.5,12.1-0.8c0.6,0,1.1,0,1.9,0
			c-0.3,2.6-1.5,4.9-2,7.6c2.1,0.5,4.2-0.2,6.4,0c-3.3,11.1-6.6,22.1-9.9,33.3c0.7-0.1,1.1-0.2,1.5-0.3c6.2-2,12.7-3.1,19.2-3.4
			c5.7-0.3,11.4-0.1,17,0.9c2.9,0.5,5.7,1.3,8.4,2.6c4,2,6.9,5,8.4,9.2c0.2,0.7,0.7,1.4,1.2,1.9c2.4,2.7,3.7,5.8,4.1,9.3
			c0.6,5.2-0.2,10.3-1.4,15.4c-1.6,7.2-4.1,14.3-6.3,21.3c-3.3,10.6-6.4,21.3-9.7,31.9c-1.5,4.8-3.2,9.5-4.9,14.1
			c-2.3,6-5.7,11.3-10.1,16c-2.4,2.6-5,5.1-7.5,7.7c-0.4,0.4-0.8,0.6-1.5,1c1.8,0.9,3.2,1.5,4.4,2.4c1.2,0.8,2.4,1.7,3.4,2.8
			c1.1,1.1,2,2.3,3,3.6c0.2-0.4,0.5-0.7,0.6-1.1c0.5-2.2,1-4.5,1.5-6.7c0.1-0.5,0.3-1.1,0.5-1.8c1.1,0,2.1-0.1,3.1-0.1
			c23,0,45.9,0,68.9,0c1.5,0,3.1,0,4.6,0c0.6,0,1.2,0.1,2,0.2c0,0.5,0,0.9-0.1,1.2c-1.6,7.2-3.2,14.5-4.8,21.7
			c-0.2,1-0.8,1.8-1.5,2.6c-9.6,11.5-19.2,23-28.7,34.5c-0.5,0.6-1.2,1.2-1.3,2c1.4,0.5,8.4,0.7,12.3,0.3c0.4-0.7,1-1.6,1.4-2.5
			c5.1-9.8,10.1-19.7,15.2-29.5c4.9-9.4,9.7-18.9,14.6-28.3c0.4-0.7,0.7-1.3,1.1-1.9c1.9-0.5,23.5-0.4,25.3,0.1
			c0.7,6.8,1.1,13.7,1.6,20.5c0.5,6.8,1.1,13.6,1.6,20.5c0.8-0.1,0.8-0.7,0.9-1.1c1-4.5,2-9,3-13.5c1.8-8.2,3.7-16.5,5.5-24.7
			c0.1-0.6,0.4-1.2,0.6-2c0.7-0.1,1.4-0.2,2.1-0.2c10,0,20,0,29.9,0c3.6,0,7.3,0.3,10.8,1.2c4,1,7.4,3,10.1,6.3
			c0.2,0.2,0.4,0.5,0.6,0.7c0.1,0.1,0.2,0.1,0.5,0.2c0.2-0.4,0.4-0.9,0.5-1.3c0.4-1.7,0.8-3.5,1.2-5.2c0.1-0.5,0.3-1.1,0.5-1.7
			c0.8-0.1,1.5-0.1,2.2-0.1c9.9,0,19.7,0,29.6,0c3.4,0,6.8,0.2,10.1,0.9c4.4,1,8.2,2.9,11,6.5c0.3,0.3,0.5,0.7,0.9,1.3
			c1.1-1.5,1.1-3,1.4-4.3c0.4-1.3,0.6-2.7,1-4c1-0.6,2-0.4,2.9-0.4c15.7,0,31.4,0,47,0c2.4,0,4.9,0,7.3,0c0.7,0,1.4,0.1,2.2,0.2
			c-2.2,10-4.4,19.8-6.6,29.5c-0.7,0.1-1.3,0.2-2,0.3c-0.2,0.7-0.4,1.4-0.6,2.1c-1.9,8.5-3.8,17-5.7,25.4c-0.1,0.5-0.3,1-0.5,1.6
			c-0.9,0.1-1.7,0.2-2.5,0.2c-7.7,0-15.5,0-23.2,0c-0.8,0-1.5,0-2.3,0c-0.6,1-0.9,2-0.7,3c0.7,0.5,1.5,0.3,2.2,0.3
			c8.8,0,17.5,0,26.3,0c0.8,0,1.5,0.1,2.3,0.1c0.1,0.4,0.2,0.7,0.2,0.9c-2.1,9.5-4.2,19-6.3,28.4c-0.5,0.4-0.8,0.6-1.3,1
			c-1.7,7.4-3.4,14.9-5.1,22.5c-0.8,0.2-1.4,0.4-2.2,0.6c-0.4,1.7-0.8,3.5-1.2,5.3c-1.6,7.1-3.2,14.2-4.8,21.3
			c-0.2,0.7-0.4,1.5-0.7,2.3c-0.9,0-1.7,0.1-2.5,0.1c-7.7,0-15.4,0-23,0c-0.8,0-1.6,0.1-2.5,0.1c-0.6,1-0.9,1.9-0.7,3.2
			c0.9,0.1,1.8,0.2,2.6,0.2c8.6,0,17.1,0,25.7,0c0.8,0,1.6,0.1,2.6,0.2c0,0.6,0.1,1,0,1.4c-2,8.9-4,17.8-6,26.7
			c-0.1,0.5-0.3,0.9-0.5,1.4c-24,0-47.9,0-72,0c-0.2-0.7-0.5-1.3-0.7-2c-1.8-6.3-3.5-12.7-5.3-19c-0.2-0.8-0.3-1.6-1.1-2.5
			c-1.2,4-1.8,7.9-2.7,11.7c-0.9,3.9-1.7,7.7-2.6,11.3c-0.3,0.2-0.3,0.3-0.4,0.3c-0.1,0-0.1,0.1-0.2,0.1c-0.3,0-0.6,0.1-0.9,0.1
			c-8.8,0-17.7,0-26.5,0c-0.1,0-0.3,0-0.4-0.1c-0.1,0-0.2-0.1-0.4-0.2c-0.4-1.4,0.7-2.8,0.4-4.4c-0.6,0.3-1,0.4-1.4,0.7
			c-5.5,3.6-11.5,5.2-18,5.2c-3.5,0-6.9-0.1-10.3-0.9c-8.8-2.2-14.1-7.9-16.5-16.4c-1.2-4.2-1.1-8.5-0.6-12.8
			c1.1-9.2,3.4-18.2,5.4-27.3c0.4-1.7,0.8-3.5,1.1-5.2c0.1-0.3,0-0.6,0.1-1.1c-0.7,0-1.4,0-2.3,0c-2.4,10.4-4.7,20.8-7,31.2
			c-2.3,10.3-4.6,20.7-6.9,30.9c-1.6,0.4-26.9,0.5-28.8,0.1c0-0.4,0-0.8,0.1-1.2c2.3-10.2,4.5-20.5,6.8-30.7
			c2.1-9.4,4.2-18.7,6.3-28.1c0.2-0.7,0.2-1.4,0.4-2.2c-1.1,0-2,0-3.1,0c-2.4,10.4-4.7,20.8-7,31.2c-2.3,10.3-4.6,20.7-6.9,30.9
			c-1.5,0.4-22.2,0.5-25.1,0.2c-0.2-0.5-0.4-1.1-0.5-1.7c-1.1-4.7-2.2-9.3-3.4-14c-0.2-0.8-0.2-1.8-1.1-2.7
			c-0.2,0.7-0.5,1.3-0.6,1.9c-1.1,4.8-2.1,9.6-3.2,14.4c-0.1,0.7-0.4,1.3-0.5,1.9c-1.6,0.4-74.6,0.4-76.9,0.1
			c0.4-3.3,1.4-6.6,2.1-9.9c0.7-3.3,1.5-6.6,2.2-10c-0.9,0-1,0.7-1.2,1.2c-2.8,5.7-5.6,11.4-8.4,17c-0.3,0.6-0.7,1.2-1,1.9
			c-8.5,0-16.8,0-25.4,0c-0.1-0.5-0.3-0.9-0.4-1.4c-0.3-6.5-0.5-12.9-0.8-19.4c-0.1-1.3,0-2.5-0.4-3.8c-0.8,0.1-0.9,0.8-1.2,1.2
			c-1.6,2.6-3.1,5.3-4.9,7.8c-4.3,6.1-9.8,10.7-16.9,13.4c-3.9,1.5-8,2.1-12.2,2.2c-7.2,0.1-14.5,0-21.7,0c-7.1,0-14.2,0-21.3,0
			c-0.7,0-1.4,0-2.2,0c-0.9-2.8-0.6-5.7-0.9-8.5c-0.3-2.8-0.4-5.6-0.6-8.6c-3.1-0.3-6.1-0.2-9.2-0.1c-2.8,5.7-5.6,11.3-8.5,17
			c-10.4,0-20.7,0-31,0c-0.3-0.8,0.3-1.4,0.5-2c3.9-7.7,7.9-15.4,11.9-23c11.1-21.5,22.2-43.1,33.3-64.6c0.5-1,1-1.9,1.5-2.9
			c8.3,0,16.6,0,25,0c0.2,0.8,0.4,1.6,0.4,2.4c0.5,6.4,1,12.9,1.5,19.3c0.2,2.3,0.3,4.6,0.5,6.9c0,0.7-0.1,1.4,0.8,2.1
			c1.4-5.2,2.3-10.4,3.5-15.4c1.2-5.1,2.2-10.2,3.5-15.4c0.8,0,1.4,0,2,0c8.6,0,17.3-0.1,25.9,0c2.8,0,5.6,0.4,8.4,0.7
			c2.5,0.3,4.8,1.2,7,2.4c0.5,0.3,1,0.5,1.6,0.8c0.8-1.2-0.1-2.5,0.7-3.8c4.8-0.3,9.7,0,14.8-0.2c1.3-5,2.3-10,3.4-15
			c1.1-5.1,2.3-10.1,3.4-15.2c1.1-5,2.2-10,3.4-15c1.1-5.1,2.3-10.1,3.4-15.2c1.1-5,2.2-10,3.3-15.1c-0.7-0.2-1.1-0.3-1.6-0.4
			c-2.7-0.5-5.4-1.2-7.9-2.3c-3.9-1.8-6.9-4.5-8.8-8.5c-0.3-0.6-0.7-1.2-1.2-1.7c-3.6-3.3-5.2-7.5-5.6-12.3c-0.2-3,0.1-6,0.9-8.9
			c5.7-20.6,11.4-41.3,17.9-61.7c1.6-4.9,3.3-9.8,5-14.7c3.4-9.5,9.7-16.7,18.2-22c0.6-0.4,1.1-0.7,1.7-1.3
			c-6,0.8-11.9,2.1-17.9,3.4c-0.2,0.6-0.4,1.2-0.6,1.8c-12.1,39.7-24.3,79.3-36.4,119c-4.4,14.6-12.6,26.5-24.4,36
			c-6.8,5.5-14,10.5-21.2,15.6c-11.2,8-22.5,15.8-33.7,23.8c-16.3,11.6-32.5,23.2-48.6,34.9c-16.7,12.1-33.2,24.4-49.8,36.6
			C37.8,371.2,37.4,371.5,36.6,372z M490.8,241.6c-0.2-0.5-0.3-0.6-0.3-0.8c-0.1-0.5-0.2-1-0.4-1.5c-1.8-7-6.2-11.4-13.4-12.7
			c-2.8-0.5-5.6-0.8-8.4-0.8c-9.3-0.1-18.7,0-28,0c-0.7,0-1.4,0.1-2.3,0.1c-1.7,6.4-2.9,12.9-4.4,19.3c-1.5,6.4-2.9,12.8-4.3,19.3
			c-1.4,6.4-2.8,12.8-4.5,19.2c-0.6-4.8-1-9.5-1.3-14.3c-0.4-4.8-0.7-9.7-1.1-14.5c-0.4-4.8-0.6-9.6-1.1-14.3
			c-0.5-4.8-0.5-9.7-1.3-14.6c-7.1-0.1-13.9-0.1-20.8-0.1c-0.5,0.9-1,1.7-1.4,2.5c-9.9,19.3-19.9,38.5-29.8,57.8
			c-0.4,0.8-0.9,1.5-1.3,2.2c-0.5,0.1-0.8,0.2-1.1,0.2c-6,0-11.9,0-17.9,0c-0.3,0-0.6-0.2-1.1-0.3c0.6-0.8,1.1-1.4,1.5-1.9
			c10.7-12.8,21.4-25.7,32.1-38.5c0.9-1.1,1.4-2.2,1.7-3.6c1.2-5.4,2.4-10.7,3.6-16.1c0.1-0.7,0.2-1.3,0.3-2.2c-1,0-1.7-0.1-2.5-0.1
			c-7.9,0-15.7,0-23.6,0c-14.8,0-29.6,0-44.3,0c-0.9,0-1.8,0.1-2.7,0.1c-0.2,0.8-0.4,1.4-0.6,2c-0.9,4.1-1.8,8.2-2.7,12.4
			c-0.3,1.4-0.7,2.8-1,4.1c-0.3-3-1-5.9-2.2-8.6c-2.4-5.2-6.4-8.4-12.1-9.3c-2.6-0.4-5.3-0.7-8-0.7c-9-0.1-18,0-27.1,0
			c-0.7,0-1.4,0.1-2.2,0.1c-0.3,0.9-0.5,1.8-0.7,2.6c-1.3,6-2.7,12-4,18c-4.7,21-9.4,41.9-14.1,62.9c-0.2,0.7-0.4,1.4-0.6,2.3
			c-2.5,0-4.8,0-7.2,0c-2.3,0-4.7,0-7.1,0c-0.4,2.6,0.2,5.1-0.2,7.7c-0.4-0.4-0.6-0.7-0.8-0.9c-0.2-0.2-0.4-0.5-0.7-0.7
			c-2.5-2.6-5.5-4.4-9-5.2c-2.2-0.5-4.5-0.9-6.8-0.9c-9-0.1-18-0.1-27.1-0.1c-0.5,0-1,0.1-1.7,0.2c-3.6,15.8-7.1,31.6-10.8,47.4
			c-0.7-7.9-1.4-15.8-1.9-23.7c-0.4-6.8-1.7-22.2-2.1-23.6c-1.4-0.3-18.5-0.4-20.8-0.1c-0.4,0.8-1,1.7-1.4,2.6
			c-11,21.3-21.9,42.5-32.9,63.8c-3.2,6.1-6.3,12.3-9.5,18.4c-0.3,0.6-0.8,1.1-0.6,1.9c1.5,0.3,22.8,0.3,24.9,0
			c0.3-0.5,0.6-1.1,0.9-1.7c2.2-4.3,4.3-8.7,6.5-13.1c0.3-0.7,0.7-1.3,1-1.9c3-0.4,11.7-0.3,13.4,0.2c0.7,5.4,0.5,11,1.4,16.6
			c0.8,0,1.5,0.1,2.2,0.1c3.6,0,7.2,0,10.8,0c10.4,0,20.7,0,31.1-0.1c4,0,7.8-1,11.5-2.6c5.8-2.6,10.4-6.7,14.1-11.8
			c4.4-6.1,7.6-12.9,9.8-20.1c0.1-0.4,0.3-0.9,0.6-1.7c0.1,1.2,0.2,1.9,0.3,2.6c0.2,3.3,0.3,6.5,0.4,9.8c0.3,7.1,0.6,14.2,0.9,21.3
			c0,0.8,0.2,1.6,0.3,2.5c7.2,0,14.2,0,21.3,0c0.4-0.8,0.8-1.5,1.2-2.2c6-12.3,12.1-24.6,18.1-36.8c0.2-0.3,0.4-0.7,0.6-1
			c-0.5,3.2-1.2,6.2-1.9,9.3c-2.2,9.7-4.3,19.5-6.5,29.2c-0.1,0.5-0.1,1-0.1,1.4c1.8,0.4,69.5,0.4,71.2,0c0.2-0.6,0.4-1.3,0.6-1.9
			c1.9-8.3,3.7-16.6,5.5-24.9c0.1-0.4,0.3-0.7,0.5-1.5c1.2,5.1,2.3,9.7,3.5,14.4c1.2,4.7,2.1,9.4,3.5,14.2c1.9,0,3.6,0,5.3,0
			c1.7,0,3.3,0,5,0c1.7,0,3.5,0,5.2,0c1.7,0,3.4,0.2,5.1-0.2c0.2-0.8,0.4-1.4,0.6-2c2.4-10.5,4.7-21.1,7-31.6c2-9,4-18,6.1-26.9
			c0.1-0.7,0.4-1.3,0.6-1.9c1.5,0,2.9,0,4.2,0c1.3,0,2.7-0.2,4.1,0.3c0,0.5,0,1-0.1,1.5c-0.8,3.5-1.6,7-2.3,10.5
			c-3.6,16.1-7.2,32.2-10.8,48.3c-0.1,0.6-0.1,1.2-0.2,1.8c2,0.4,21.6,0.4,23.2,0c0.2-0.7,0.4-1.4,0.5-2.1
			c4.3-19.5,8.7-38.9,13-58.4c0.1-0.6,0.4-1.2,0.6-1.8c1.4,0,2.6,0,3.8,0c1.2,0,2.5-0.2,3.8,0.2c-0.1,0.6-0.1,1.1-0.2,1.6
			c-0.9,4.1-1.8,8.1-2.7,12.2c-1.8,8.2-3.8,16.3-4.6,24.7c-0.4,4.2,0,8.2,1.4,12.1c2.3,6.2,6.6,10.5,13.1,12.2
			c5.1,1.3,10.2,1.4,15.4,0.6c7.4-1.1,13.4-4.8,18.3-10.4c0.3-0.3,0.6-0.6,1.1-1.1c-0.8,3.7-1.5,6.9-2.2,10.3
			c0.6,0.1,0.9,0.2,1.3,0.3c4.1,0.2,20.4,0.1,22-0.3c0.2-0.6,0.4-1.2,0.5-1.9c0.8-3.6,1.6-7.2,2.4-10.9c1.3-5.7,2.5-11.3,3.8-17
			c0.1-0.3,0.3-0.6,0.5-1c1,1.2,1.2,2.5,1.6,3.7c2.4,8.5,4.8,17,7.2,25.4c0.2,0.6,0.4,1.2,0.6,1.8c22.7,0,45.2,0,67.7,0
			c0.8-1.7,5.4-22.3,5.4-24.2c-0.8-0.1-1.6-0.1-2.4-0.1c-8.8,0-17.5,0-26.3,0c-0.7,0-1.5,0.2-2.4-0.4c0.6-2.7,1-5.5,2-8.4
			c0.9,0,1.8,0,2.6,0c7.6,0,15.2,0,22.8,0c0.9,0,1.7-0.1,2.7-0.2c0.6-2.8,1.3-5.5,1.9-8.1c0.6-2.6,1.2-5.2,1.7-7.9
			c0.5-2.7,1.4-5.3,1.7-8.1c-1.1-0.1-2-0.2-2.9-0.2c-7.5,0-15,0-22.5,0c-0.8,0-1.6-0.1-2.5-0.2c-0.2-1.8,0.3-3.2,1-4.7
			c3.3,0,6.7,0,10,0c3.4,0,6.8,0,10.2,0c3.3,0,6.6,0,10.1,0c1.9-7.7,3.4-15.2,5.2-22.7c0.5-0.4,0.8-0.7,1.2-0.9
			c1.5-5,5.1-22.1,5-23.8c-0.9-0.1-1.9-0.2-2.8-0.2c-8.6,0-17.1,0-25.7,0c-0.8,0-1.7,0.2-2.4-0.4c0.1-2.7,1.2-7,2.1-8.4
			c4.5,0,9.1,0,13.7,0c4.7,0,9.3,0,14,0c0.2-0.7,0.4-1.2,0.6-1.8c1.5-6.7,3-13.5,4.5-20.2c0.2-0.7,0.5-1.4,0.1-2.4
			c-9.2,0-18.4,0-27.6,0c-0.1-1.8,0.3-3.3,1-4.9c0.8-0.1,1.7-0.1,2.5-0.1c8.5,0,17,0,25.5,0c0.7,0,1.5-0.1,2.4-0.1
			c1.7-7.7,3.4-15.3,5.1-22.9c0.1-0.4,0-0.7,0-1.1c-1.6-0.4-51.4-0.5-53.6-0.1c-1.4,4.8-2.2,9.9-3.5,14.9c-0.2-0.1-0.3-0.1-0.3-0.2
			c-0.2-0.7-0.4-1.5-0.6-2.2c-1.9-6.3-5.9-10.4-12.4-11.8c-2.9-0.6-5.8-1-8.7-1c-9.6,0-19.2,0-28.8,0c-0.6,0-1.2,0.1-2,0.2
			C493.2,231.2,492,236.2,490.8,241.6z M272.1,89.9c0.5-1.8,1-3.3,1.5-4.8c2.6-8.6,5.2-17.3,7.8-25.9c0.2-0.6,0.5-1.2,0.1-2
			c-0.5,0-1.1,0-1.6,0c-5.9,0.5-11.7,0.9-17.6,1.4c-5.3,0.5-10.7,1-16,1.7c-8.1,1-16.2,2.1-24.3,3.4c-16.1,2.6-32.1,5.9-47.8,10
			c-15.8,4.2-31.3,9.2-46.3,15.6c-0.8,0.3-1.6,0.8-2.5,1.2c-0.3,0.8-0.6,1.6-0.8,2.4c-2.2,6.9-4.3,13.8-6.5,20.7
			c-3.1,9.8-6.2,19.6-9.3,29.5c-0.2,0.6-0.7,1.3-0.3,2.1c0.5-0.2,1-0.4,1.4-0.6c16.3-8.1,32.9-15.4,49.8-22.2
			c13.2-5.3,26.6-10.2,40.2-14.5c0.7-0.2,1.4-0.6,2.3-0.4c0.2,0.9-0.1,1.6-0.3,2.3c-1.1,3.6-2.2,7.2-3.3,10.8
			c-4.5,14.8-8.9,29.6-13.5,44.4c-3.5,11.3-10.9,19.6-21.5,24.8c-3.3,1.6-6.7,2.8-10.1,4.1c-0.4,0.1-0.8,0.1-1.4,0.2
			c0.6-2.1,1.1-4,1.7-5.9c0.5-1.9,1.1-3.8,1.7-5.7c0.6-1.9,1.1-3.8,1.6-5.7c0.6-1.9,1.1-3.8,1.7-5.7c0.6-1.9,1.2-3.8,1.7-5.7
			c0.5-1.9,1.3-3.7,1.6-5.7c-7.8,1.9-62,27.5-68.8,32.5c-19.5,56.1-39,112.4-58.6,168.7c-0.1,0.2,0,0.4,0,0.7
			c0.5-0.3,0.9-0.6,1.3-0.8c16.6-12.1,33.1-24.3,49.7-36.4c12.1-8.9,24.3-17.7,36.6-26.4c18.7-13.3,37.5-26.5,56.2-39.8
			c4.3-3.1,8.6-6.3,12.4-9.9c9-8.6,15.6-18.7,19.3-30.7c8.4-27.6,16.8-55.3,25.2-83c3.7-12.3,7.4-24.6,11.1-36.9
			c0.3-0.8,0.6-1.7,0.9-2.6C255.4,92.9,263.7,91.5,272.1,89.9z M254.8,223.3c0.9,0,1.7-0.1,2.5-0.1c7.3,0,14.6,0,21.9,0
			c1,0,2,0,3-0.5c3.1-1.6,6.1-3.3,8.6-5.7c3.1-2.9,6.1-5.8,9-8.9c5-5.2,8.8-11.3,11.2-18.1c1.5-4.2,3-8.4,4.3-12.7
			c3.8-12.2,7.4-24.5,11.1-36.7c1.9-6.2,3.9-12.5,5.1-18.9c0.8-4.2,1.2-8.5,0.5-12.8c-0.7-4.3-2.7-7.8-6.5-10.2
			c-1.7-1-3.5-1.8-5.4-2.5c-3.5-1.2-7.2-1.7-10.9-1.9c-4.8-0.3-9.6-0.2-14.4,0.3c-6.2,0.6-12.3,1.9-18,4.3
			c-12,5.1-20.6,13.3-25,25.8c-1.8,5.3-3.7,10.5-5.3,15.8c-6.2,19.6-11.7,39.4-17.1,59.1c-0.7,2.6-1.1,5.3-0.9,8
			c0.4,7.1,3.7,12.2,10.3,15.1c2.8,1.3,5.8,2,8.9,2.3c2,0.2,4.1,0.3,6.1,0.5C254.2,224.8,254.5,224.2,254.8,223.3z"/>
		<path d="M322.7,219.1c0.7-2.5,1.4-4.7,2-7c-1.3-0.5-2.4,0-3.5,0c-1.1,0-2.3,0-3.5,0c-0.2-0.7,0.2-1.3,0.3-2
			c4.2-13.9,8.4-27.8,12.6-41.7c4.7-15.5,9.3-31,14-46.4c0.3-0.8,0.6-1.7,0.9-2.6c11.6-0.4,23.2-0.8,34.9-1.3
			c-0.3,2.7-1.6,5-1.9,7.7c2.1,0,4.1,0,6.4,0c-2.1,6.9-4.1,13.6-6.1,20.4c0.9,0.2,1.5,0,2.2-0.2c2.8-0.8,5-2.6,6.4-5.1
			c1.7-2.8,3.2-5.7,4.2-8.8c2.7-8.4,5.4-16.8,8-25.2c0.8-2.4,1.4-4.9,2.1-7.4c0.2-0.6,0.3-1.2,0.5-2.1c-14.4,0.2-28.6,1-43,2.2
			c0.3-2.6,1.5-4.7,1.9-7.3c-2.4,0.2-4.7,0.3-7.1,0.5c0.1-1.6,10.8-36.7,11.9-39.2c2.1-0.1,4.4-0.2,6.6-0.3
			c5.8-0.1,11.5-0.2,17.3-0.3c6.8-0.1,13.6-0.2,20.3-0.1c11,0.2,22,0.4,33,0.8c7.7,0.3,15.3,0.9,22.9,1.9c1,0.1,1.9,0.3,2.8,0.5
			c0.1,0,0.2,0.2,0.4,0.4c-0.6,2-1.2,4.1-1.8,6.3c1.1,0.2,2.1,0.3,3.1,0.5c1,0.2,2,0.3,3,0.5c-3.5,12.1-6.9,24-10.3,35.9
			c-5.4-0.4-10.8-0.8-16.2-1.2c-0.3,0.8-0.5,1.4-0.7,2.1c-7.3,23.4-14.5,46.7-21.8,70.1c-0.6,1.9-1.3,3.8-1.8,5.7
			c-2.1,7.4-6.1,13.7-11.4,19.3c-4.5,4.7-9.6,8.6-15.3,11.7c-4.1,2.3-8.5,3.5-13,4.4c-6.8,1.4-13.6,2.3-20.5,3.2
			c-5.5,0.7-11,1.4-16.6,2.1c-5.7,0.6-11.3,1.2-17,1.7C326.9,218.8,325,218.9,322.7,219.1z M346.6,120.9
			c-9.1,29.9-18.1,59.7-27.2,89.7c0.7,0,1.2,0.1,1.7,0.1c1.3-0.1,2.6-0.2,3.8-0.3c5.5-0.6,11.1-1.1,16.6-1.7
			c5.6-0.6,11.2-1.4,16.7-2.1c6.7-0.8,13.3-1.7,19.9-3.1c5.4-1.1,10.5-2.9,15.1-5.9c4-2.6,7.8-5.5,11.3-8.9
			c5.7-5.7,10-12.2,12.3-20.1c2.3-7.8,4.9-15.5,7.2-23.3c5.4-17.5,10.7-35,16.1-52.5c0.3-0.9,0.6-1.8,1-2.8
			c5.5-0.2,10.8,0.8,16.3,0.9c3.2-11,6.3-22,9.5-33.2c-0.9-0.2-1.6-0.4-2.4-0.5c-1.6-0.2-3.3-0.4-5-0.5c-6.6-0.5-13.1-1-19.7-1.4
			c-5.9-0.3-11.9-0.3-17.8-0.4c-17.8-0.3-35.6-0.2-53.3,0.4c-0.6,0-1.1,0.1-1.8,0.2c-3.6,11.8-7.2,23.5-10.9,35.4
			c8.6-0.5,16.8-1.2,25.1-1.5c8.3-0.3,16.6-0.7,25.1-0.5c-0.2,0.8-0.2,1.5-0.4,2c-1.7,5.9-3.4,11.8-5.2,17.7c-2.5,8-5.1,16-7.7,23.9
			c-1.1,3.4-2.7,6.5-4.6,9.5c-2,3.2-4.8,5.1-8.4,5.8c-2.8,0.5-5.6,0.4-8.4,0.1c-0.4-0.1-0.8-0.2-1.4-0.4c0.2-0.9,0.4-1.7,0.7-2.5
			c2.3-7.7,4.6-15.3,6.9-23c0.2-0.6,0.6-1.3,0.3-2.2C367.7,120.1,357.3,120.5,346.6,120.9z"/>
		<path d="M581.9,134.5c-0.3,1.6-0.7,3-1,4.4c1.8,1,3.5,1.9,5.4,2.9c-1.9,7.8-3.7,15.4-5.6,23.2c-0.8-0.4-1.3-0.6-1.9-0.9
			c-8.7-4.4-17.8-7.7-27.3-10.1c-0.9-0.2-1.8-0.3-2.7-0.3c-0.9,0-1.7,0.3-2.4,1.2c0.5,0.2,0.8,0.4,1.2,0.6c4.4,1.5,8.8,2.8,13.1,4.4
			c1.6,0.5,3.1,1.2,4.5,2.1c3.3,2,6,4.6,8.5,7.4c1.2,1.4,2.1,3.1,2.8,4.8c0.3,0.6,0.6,1.3,1.1,1.8c2.7,2.9,4,6.4,4.6,10.2
			c0.6,3.5,0.5,7-0.1,10.5c-1.1,6.4-4.4,11.5-9.5,15.5c-4.7,3.7-10.1,5.3-16.1,5.4c-5.5,0.1-10.8-0.9-16.1-2.3
			c-9.1-2.4-17.8-6-26.2-10.2c-0.3-0.2-0.7-0.4-1.1-0.6c0.3-1.2,0.6-2.4,1-3.8c-2.1-1-4.1-2.1-6.1-3.1c0.1-1.5,7.2-23.8,8.2-25.8
			c0.2,0.1,0.5,0.2,0.7,0.3c6.3,4.2,13.2,7,20.4,9.2c4.3,1.3,8.6,2.4,13.1,3.1c1.1,0.2,2.1,0.4,3.1-0.4c-0.4-0.8-1.2-0.8-1.8-1.1
			c-3.8-1.6-7.8-3-11.5-4.7c-3.1-1.4-6.1-3.2-9.1-4.9c-2.5-1.3-4.1-3.4-5.2-5.9c-0.4-0.9-0.9-1.6-1.7-2.3c-2-1.6-3.2-3.7-4-6
			c-2.8-8.2-2.4-16.3,2-23.9c4.1-7.1,10.5-10.8,18.5-11.8c6.3-0.8,12.4,0.2,18.4,1.7c7.2,1.8,14,4.6,20.5,8
			C580.3,133.6,581.1,134,581.9,134.5z M509.4,196.8c2.8,1.3,5.3,2.5,7.9,3.6c8.8,3.8,17.7,7,27.2,8.4c4.8,0.7,9.6,0.8,14.3-0.6
			c8.8-2.7,14.5-8.4,17-17.2c1.2-4.4,1.1-8.9,0.2-13.3c-0.6-3-1.7-5.8-3.9-8c-1.8-1.9-3.8-3.6-5.8-5.3c-1.8-1.5-3.9-2.6-6.2-3.3
			c-5.2-1.6-10.3-3.4-15.5-5c-2.5-0.8-4-2.4-4.7-4.9c-0.9-3.3,1.1-6,4.5-6c1.3,0,2.5,0.3,3.8,0.6c8.7,2.3,17.2,5.4,25.3,9.4
			c0.5,0.2,1,0.4,1.7,0.7c1.6-7,3.1-13.7,4.7-20.4c-0.2-0.3-0.3-0.5-0.5-0.6c-0.4-0.3-0.9-0.5-1.3-0.8c-6.3-3.2-12.8-5.8-19.7-7.5
			c-5.5-1.4-11.2-2.2-16.9-1.6c-7.9,0.8-14.1,4.4-18.1,11.3c-2.5,4.4-3.5,9.1-3.3,14.2c0.1,3.4,0.8,6.6,2.3,9.6
			c1,1.9,2.3,3.5,4.1,4.7c3.9,2.5,8.1,4.7,12.4,6.4c4,1.6,8,3.1,11.9,4.7c1.2,0.5,2.5,1,3.6,1.7c1.8,1.1,2.5,2.9,2,4.8
			c-0.5,1.8-2.2,3.2-4,3.3c-0.8,0-1.5,0-2.3-0.2c-2.2-0.4-4.4-0.8-6.6-1.3c-9.1-2.2-17.8-5.2-25.8-10c-0.2-0.1-0.4-0.2-0.9-0.3
			C514.3,181.7,511.9,189.1,509.4,196.8z"/>
		<path d="M430.7,200.4c-0.3-0.3-0.5-0.4-0.7-0.6c-4.2-3.3-5.5-7.7-4.6-12.8c1.4-7.4,3.5-14.7,5.7-21.9c3.2-10.6,6.4-21.3,10-31.8
			c3.9-11.5,11.9-18.6,23.7-21.2c7.5-1.7,15.2-2.1,22.9-1.5c4.7,0.3,9.4,1.2,13.8,3c2.2,0.9,4.3,2,6.2,3.5c2.3,1.8,4,4.1,4.9,6.9
			c0.2,0.6,0.6,1.3,1,1.8c3.2,3.3,4.3,7.3,3.8,11.8c-0.9,7.5-2.9,14.7-5,21.8c-3.1,10.4-6.6,20.7-10.4,30.9
			c-0.6,1.5-1.3,2.9-2.2,4.2c-5.4,8.1-13,13.3-22.2,16.2c-6.9,2.2-14,2.6-21.3,2.1c-4-0.3-8-0.7-11.9-1.8c-2.1-0.6-4.2-1.3-6.1-2.2
			C434.8,207,432,204.5,430.7,200.4z M456.4,204.4c1.9,0,3.7,0.1,5.6,0c1.7-0.1,3.4-0.4,5.1-0.7c8.2-1.5,15.6-4.9,21.7-10.6
			c3.7-3.5,6.8-7.4,8.3-12.5c0.6-2,1.4-4,2.1-6c4-11.5,7.8-23,10.6-34.8c0.9-3.9,1.7-7.7,1.7-11.7c0-4.3-1.8-7.6-5.2-10.1
			c-1.9-1.4-4-2.4-6.3-3.2c-4.5-1.6-9.2-2.3-13.9-2.6c-6.9-0.4-13.7,0.1-20.4,1.5c-11.5,2.4-19.3,9.3-23,20.3
			c-4.3,12.6-8.1,25.3-11.9,38.1c-1.5,5-2.7,10.1-3.8,15.2c-1.2,5.3,0.8,9.4,5.3,12.3c1.9,1.2,4,2.1,6.1,2.7
			C444.2,204,450.3,204.5,456.4,204.4z"/>
		<path d="M526.7,126.6c-0.6-0.9-1.1-1.8-1.8-2.8c3.7-2.7,7.7-4.9,9.9-9.1c-0.3-0.3-0.5-0.5-0.7-0.8c-4,2.1-7.9,4.1-11.7,6.1
			c-1.5-0.9-2.1-2.2-2.6-3.6c2.8-2.1,5.9-3.8,8.2-6.6c-0.9-1-1.8-1.9-2.6-3c-0.7-1-1.2-2.2-2-3.7c-0.1-0.1-0.4-0.4-0.8-0.7
			c-3.7-3.2-5.1-7.1-4.1-11.9c1.4-6.2,5-10.4,11.3-12c6.1-1.5,11.8,1,14.7,6.6c1,2,2.1,4,3.5,5.9c1.9,2.4,2.6,5.2,3.1,8.2
			c0.3,2,0.6,3.9,0.2,5.9c-0.5,3-1.8,5.6-3.7,7.9c-1.6,2-3.5,3.7-5.5,5.3c-4.5,3.4-9.5,6-14.6,8.3
			C527.3,126.6,527.2,126.6,526.7,126.6z M522.5,118.1c5.8-2.6,11.2-5.5,15.9-9.5c1.8-1.6,3.4-3.3,4.7-5.3c1-1.6,1.9-3.4,2.2-5.3
			c0.5-4.8-0.3-9.3-3-13.4c-2.7-4.1-6.6-5.5-11.3-4.6c-5.9,1.1-9.3,4.9-10.8,10.6c-0.3,1.2-0.4,2.5-0.2,3.8c0.3,2.9,1.7,5.2,4,6.9
			c1.5,1.2,3.1,2.2,4.7,3.3c1.1,0.8,2.2,1.5,3,2.6c-0.2,0.4-0.4,0.8-0.6,1.1c-1.9,3.1-4.5,5.3-7.5,7.3c-0.6,0.4-1.4,0.7-1.7,1.5
			C522,117.5,522.2,117.7,522.5,118.1z"/>
		<path d="M290.3,267.1c0.5,0.4,0.8,0.7,1.2,0.9c3.7,2.2,5.3,5.5,5.7,9.6c0.3,3.4-0.1,6.8-1.1,10c-1.6,5.1-4.1,9.8-8,13.6
			c-3.2,3.2-7,5.1-11.6,5.3c-3.7,0.2-7.4,0.3-11.1,0.4c-6.1,0.1-12.2,0-18.2,0c-0.6,0-1.2-0.1-2-0.1c0-0.5-0.1-0.9,0-1.2
			c5.4-24.4,10.9-48.8,16.4-73.4c0.7-0.1,1.3-0.3,1.9-0.3c9,0.1,17.9-0.3,26.8,0.3c1.2,0.1,2.4,0.2,3.6,0.5c3,0.7,5.1,2.5,6.5,5.2
			c1.6,3.1,2,6.5,1.6,9.9c-0.6,4.8-2.3,9.2-5.2,13c-1.5,2-3.2,3.7-5.2,5.1C291.3,266.3,290.9,266.6,290.3,267.1z M259,294.5
			c0.5,0.1,0.9,0.3,1.3,0.2c5.2-0.1,10.3-0.1,15.5-0.3c2.9-0.1,5.2-1.6,7-3.8c1.5-1.9,2.3-4.2,2.8-6.6c0.3-1.7,0.4-3.3,0-4.9
			c-0.7-2.5-2.3-4-4.8-4.4c-1.3-0.2-2.7-0.4-4-0.4c-4-0.1-7.9-0.1-11.9-0.1c-0.6,0-1.1,0.1-1.8,0.2c-1.5,6.5-2.9,12.9-4.3,19.3
			C258.9,293.9,259,294.1,259,294.5z M266,261.7c0.9,0.1,1.5,0.2,2,0.2c4.4,0,8.8-0.1,13.2-0.2c2.6-0.1,4.8-1.3,6.5-3.2
			c1.6-1.8,2.4-3.9,2.8-6.2c0.3-1.5,0.4-3-0.1-4.5c-0.5-1.5-1.4-2.6-2.9-3.1c-0.8-0.3-1.6-0.4-2.4-0.4c-4.3-0.1-8.6-0.2-12.8-0.2
			c-0.7,0-1.5,0.1-2.4,0.2C268.6,250.1,267.4,255.8,266,261.7z"/>
		<path d="M484.6,361.4c-1.4,5.3-2.4,10.6-3.6,15.8c-1.2,5.2-2.2,10.3-3.5,15.4c-1.6,0.4-7.6,0.4-10.5,0.2c-0.5-0.6-0.1-1.3,0-2
			c2.2-9.8,4.4-19.6,6.6-29.4c3-13.6,6.1-27.2,9.1-40.8c0.2-0.9,0.5-1.7,0.7-2.6c0.6-0.1,1.1-0.1,1.6-0.1c8.1,0,16.1,0,24.2,0
			c2.8,0,5.6,0.3,8.3,1.1c3.1,0.8,5.1,2.7,6.4,5.6c0.8,2,1.2,4,1.3,6.2c0.2,7.2-1.6,13.8-5.7,19.7c-3.1,4.4-7.2,7.3-12.5,8.7
			c-0.5,0.1-1.1,0.3-1.8,0.6c0.3,0.5,0.4,0.9,0.7,1.2c2.7,2.8,4.4,6.1,5.3,9.8c1.6,6,3.1,12,4.6,18c0.3,1.3,0.6,2.6,0.9,3.9
			c-1.6,0.3-10.3,0.4-13,0.1c-0.2-0.6-0.5-1.3-0.7-2c-1.7-6-3.4-12.1-5.1-18.1c-0.5-1.9-1.2-3.8-1.8-5.6c-0.3-0.8-0.6-1.5-1-2.3
			c-0.9-1.6-2.3-2.7-4.2-3C488.7,361.3,486.7,361.4,484.6,361.4z M487.2,349.5c0.6,0.1,0.9,0.2,1.1,0.2c4.3,0,8.7,0,13-0.1
			c1.1,0,2.2-0.2,3.2-0.4c1.5-0.2,3-0.9,4.1-1.9c3.4-3.1,4.5-7.1,4.5-11.6c0-0.4-0.1-0.8-0.2-1.1c-0.7-2.6-2.4-4-5-4.3
			c-0.4,0-0.8,0-1.1,0c-4.5,0-9,0-13.4-0.1c-0.6,0-1.1,0.1-1.9,0.1C489.9,336.6,488.5,343,487.2,349.5z"/>
		<path d="M464.7,273.8c0.3,0.5,0.3,0.7,0.5,0.8c3,3,4.8,6.8,5.9,10.8c1.7,6.6,3.4,13.2,5,19.9c0.1,0.4,0.1,0.9,0.1,1.3
			c-1.5,0.3-10.7,0.4-12.9,0.1c-0.2-0.6-0.5-1.3-0.7-2c-1.8-6.4-3.6-12.8-5.4-19.2c-0.6-2-1.3-4-2.1-6c-1-2.3-2.7-3.7-5.3-3.8
			c-1.1-0.1-2.3-0.2-3.4-0.3c-0.6,0-1.3,0.1-2,0.1c-0.2,0.6-0.4,1-0.5,1.5c-1.5,6.7-3,13.5-4.5,20.2c-0.6,2.5-1.1,5-1.6,7.5
			c-0.2,0.7-0.4,1.3-0.7,2.2c-3.5,0.1-6.9,0-10.3,0c-0.4-0.7-0.2-1.4-0.1-2c3.7-16.6,7.4-33.3,11.2-49.9c1.6-7.1,3.2-14.2,4.8-21.3
			c0.1-0.5,0.3-1,0.5-1.6c0.7-0.1,1.4-0.2,2.1-0.2c7.1,0,14.2-0.1,21.3,0c2.8,0,5.6,0.3,8.4,0.7c5.9,0.8,9.1,4.1,9.8,10.1
			c1,8.2-1.1,15.7-6,22.4c-2.9,4.1-6.9,6.8-11.8,8.1C466.2,273.3,465.5,273.6,464.7,273.8z M446.9,263.6c0.7,0.1,1.2,0.3,1.6,0.3
			c4.7-0.1,9.3-0.1,14-0.2c2.2-0.1,4.3-0.7,6-2.3c3.4-3.2,4.6-7.3,4.3-11.8c-0.2-2.9-2-4.6-4.9-5c-0.9-0.1-1.9-0.2-2.9-0.2
			c-3.9,0-7.8,0-11.7,0c-0.6,0-1.3,0-2.1,0C449.7,250.7,448.3,257.1,446.9,263.6z"/>
		<path d="M521,273.9c0.4,0.6,0.6,0.9,0.9,1.1c2.5,2.6,4.1,5.7,5.1,9.1c1.4,5.3,2.8,10.6,4.2,15.9c0.5,2.1,1,4.2,1.6,6.3
			c-0.3,0.2-0.5,0.4-0.8,0.4c-4,0-8,0-12.2,0c-0.2-0.7-0.5-1.3-0.7-2c-1.9-6.7-3.8-13.4-5.7-20.1c-0.4-1.5-1-3-1.6-4.5
			c-1.1-2.7-2.9-4.4-6-4.6c-1.7-0.1-3.4-0.4-5.2,0c-2.5,10.4-4.6,20.7-7,31.1c-3.7,0.2-7.1,0.2-10.5,0c-0.2-0.2-0.2-0.3-0.2-0.4
			c0-0.1-0.1-0.1-0.1-0.2c5.4-24.3,10.8-48.5,16.2-72.7c0.1-0.4,0.2-0.8,0.4-1.4c0.6-0.1,1.2-0.2,1.9-0.2c7.4,0,14.7-0.1,22.1,0
			c3.2,0,6.4,0.2,9.5,0.9c3.9,0.9,6.3,3.4,7.5,7.1c1,3.1,1,6.3,0.7,9.5c-0.5,4.1-1.6,8-3.5,11.7c-3.2,6.1-8,10.4-14.8,12.1
			C522.2,273.5,521.7,273.6,521,273.9z M503.2,263.6c0.7,0.1,1.1,0.2,1.5,0.2c4.7-0.1,9.5-0.1,14.2-0.3c1.9-0.1,3.8-0.5,5.4-1.8
			c4-3.5,5.4-8,4.7-13.1c-0.3-2.3-1.9-3.7-4.2-4.1c-0.9-0.1-1.8-0.3-2.7-0.3c-4.3,0-8.6,0-12.9,0c-0.6,0-1.1,0.1-1.7,0.2
			C506,250.9,504.5,257.1,503.2,263.6z"/>
		<path d="M337,344.5c-0.2,0.6-0.4,1.2-0.5,1.8c-3.1,13.9-6.2,27.8-9.3,41.7c-0.3,1.2-0.5,2.4-0.8,3.6c-0.1,0.4-0.3,0.8-0.5,1.2
			c-3.2,0-6.4,0-9.6,0c0-0.4-0.1-0.6,0-0.8c5.4-24.3,10.8-48.6,16.3-73c0.1-0.3,0.3-0.6,0.4-0.8c1.5-0.3,8.4-0.3,10.6-0.1
			c0.2,0.6,0.4,1.3,0.6,2.1c3.5,14.8,7,29.6,10.5,44.4c0.2,1,0.5,1.9,0.8,3.1c0.7-0.6,0.8-1.2,0.9-1.8c2-9.1,4.1-18.2,6.1-27.3
			c1.4-6.2,2.8-12.5,4.2-18.7c0.1-0.6,0.3-1.2,0.5-1.9c3.3,0,6.5,0,9.7,0c0.4,0.9,0,1.6-0.1,2.3c-5.1,22.8-10.2,45.6-15.3,68.5
			c-0.3,1.3-0.6,2.6-0.9,3.8c-1.5,0.4-8.2,0.5-11,0.2c-0.2-0.7-0.5-1.4-0.7-2.2c-2.2-9.3-4.4-18.5-6.7-27.8
			c-1.3-5.5-2.6-10.9-3.9-16.4c-0.1-0.6-0.4-1.2-0.5-1.8C337.4,344.5,337.2,344.5,337,344.5z"/>
		<path d="M165.4,392.8c0-1.9,15.9-73.2,16.7-74.8c0.5,0,1.1-0.1,1.6-0.1c6.7,0,13.4-0.1,20.1,0c2.2,0,4.3,0.3,6.5,0.7
			c4,0.7,6.8,3,8.8,6.5c1.5,2.6,2.3,5.4,2.8,8.3c0.8,5.2,0.5,10.3-0.3,15.5c-0.9,6-2.3,11.9-4.3,17.7c-2.1,5.8-4.9,11.2-8.8,16.1
			c-3.6,4.5-8,7.8-13.5,9.3c-2.2,0.6-4.5,1-6.8,1c-7.3,0.1-14.6,0.1-21.9,0.1C166.1,392.8,165.8,392.8,165.4,392.8z M190.4,330.3
			c-0.8,1.5-11.2,48.2-11.2,50.1c0.6,0.1,1.2,0.2,1.8,0.2c3.6,0,7.2,0,10.7-0.2c4-0.2,7.3-2,9.7-5.2c1.3-1.8,2.4-3.9,3.4-6
			c1.7-3.5,2.7-7.3,3.6-11.1c1.1-4.5,2-9,2.4-13.6c0.2-3,0.1-5.9-1-8.7c-1-2.7-3-4.4-5.8-5.1c-1.2-0.3-2.4-0.4-3.6-0.5
			c-2.9-0.1-5.8-0.1-8.6-0.1C191.3,330.2,190.8,330.3,190.4,330.3z"/>
		<path d="M555.5,232.2c1.7-0.4,34.7-0.6,39.7-0.3c0.4,0,0.9,0.2,1.4,0.3c0.1,2.1-0.7,4.1-1.1,6c-0.4,1.9-0.9,3.8-1.3,5.9
			c-0.8,0-1.6,0.1-2.3,0.1c-8.6,0-17.1,0-25.7,0c-0.8,0-1.5,0-2.4,0.1c-1.4,5.6-2.6,11.1-3.7,16.6c0.8,0.7,1.6,0.4,2.4,0.4
			c7.8,0,15.6,0,23.4,0c0.7,0,1.4,0,2.3,0.1c-0.7,4.2-1.6,8.1-2.7,12.2c-2.5,0.1-4.8,0-7.2,0.1c-2.3,0-4.6,0-6.9,0
			c-2.4,0-4.7,0-7.1,0c-2.3,0-4.6,0-7,0c-1.7,6.9-3.1,13.7-4.6,20.4c0.9,0.7,1.7,0.5,2.5,0.5c7,0,14.1,0,21.1,0c1.9,0,3.7,0,5.6,0
			c0.6,0,1.2,0.1,1.8,0.1c0.1,1.6-1.7,10-2.5,11.8c-1.8,0.4-40.4,0.4-41.9,0c-0.4-0.6-0.1-1.2,0-1.8c3-13.6,6-27.2,9.1-40.8
			c2.2-10,4.5-20.1,6.8-30.1C555.2,233.3,555.4,232.8,555.5,232.2z"/>
		<path d="M536.4,317.9c13.9,0,27.4,0,41.2,0c0,2.1-0.7,4-1.1,6c-0.4,2-0.9,4-1.4,6.1c-0.9,0.1-1.7,0.2-2.5,0.2c-8.5,0-17,0-25.5,0
			c-0.8,0-1.5,0-2.4,0c-1.4,5.7-2.6,11.2-3.7,16.7c0.8,0.7,1.6,0.5,2.4,0.5c7.8,0,15.6,0,23.4,0c0.7,0,1.4,0.1,2.3,0.1
			c-0.7,4.1-1.6,8-2.6,12c-1,0.1-1.8,0.1-2.6,0.1c-7.6,0-15.2,0-22.8,0c-0.9,0-1.8,0.1-2.8,0.1c-1.1,3.4-1.7,6.9-2.4,10.3
			c-0.8,3.4-1.5,6.7-2.3,10.2c0.5,0.2,0.9,0.4,1.3,0.4c0.8,0.1,1.7,0,2.5,0c8.3,0,16.5,0,24.8,0c0.8,0,1.6,0.1,2.4,0.1
			c0.2,1.5-1.3,9.3-2.3,11.8c-0.1,0-0.1,0.1-0.2,0.1c-0.1,0-0.1,0.1-0.2,0.1c-0.4,0-0.9,0.1-1.3,0.1c-13.2,0-26.5,0-39.7,0
			c-0.2,0-0.4-0.1-0.6-0.1c-0.5-0.6-0.2-1.2-0.1-1.8c1.4-6.3,2.8-12.6,4.2-18.9c3.8-17,7.6-33.9,11.4-50.9
			C535.8,320.1,536.1,319,536.4,317.9z"/>
		<path d="M292.2,330.3c-1,2.8-3.7,15.3-3.6,16.7c0.7,0.6,1.6,0.4,2.4,0.4c7.7,0,15.4,0,23,0c0.7,0,1.5,0.1,2.2,0.1
			c0.2,1.5-1.7,10.2-2.6,12c-0.7,0-1.6,0.1-2.4,0.1c-7.7,0-15.4,0-23,0c-0.9,0-1.7,0.1-2.7,0.2c-1.6,6.9-3.1,13.7-4.6,20.7
			c1.2,0.1,2,0.2,2.9,0.2c8.6,0,17.3,0,25.9,0c0.8,0,1.7-0.2,2.6,0.6c-0.8,3.8-1.7,7.6-2.5,11.3c-1.8,0.4-40.8,0.4-42.3,0
			c0-1.6,15.9-72.9,16.6-74.5c1.7-0.3,39.5-0.3,41.1,0.1c-0.7,3.9-1.6,7.8-2.6,11.9c-0.9,0.1-1.7,0.2-2.5,0.2c-8.5,0-17,0-25.5,0
			C293.8,330.2,293,330.3,292.2,330.3z"/>
		<path d="M384.2,290c-2.8,5.6-5.6,11.2-8.3,16.7c-2.4,0.3-9.9,0.3-11.4-0.1c0.1-0.3,0.1-0.6,0.3-0.9c12.6-24.5,25.3-49.1,37.9-73.5
			c2.1-0.5,10.2-0.4,11.7,0.1c0.1,0.2,0.2,0.5,0.3,0.8c0.4,5.5,0.8,11.1,1.2,16.6c0.4,5.8,0.9,11.6,1.4,17.4
			c0.3,4.1,0.6,8.2,0.9,12.2c0.3,4.1,0.7,8.3,1,12.4c0.3,4.3,0.6,8.7,0.9,13c0,0.6,0,1.1,0,1.6c-1.5,0.5-8.8,0.7-11.4,0.2
			c-0.6-1.2-0.5-2.6-0.6-3.9c-0.3-3.9-0.5-7.8-0.8-11.7c0-0.3-0.1-0.6-0.2-1c-0.4-0.1-0.9-0.2-1.3-0.2c-6.8,0-13.7,0-20.5,0
			C385.1,289.9,384.8,290,384.2,290z M404.9,249.9c-0.2,0-0.4-0.1-0.5-0.1c-0.3,0.5-0.6,1.1-0.9,1.6c-1.5,3.1-3.1,6.2-4.6,9.3
			c-2.4,4.9-4.9,9.8-7.3,14.8c-0.3,0.6-0.8,1.2-0.5,1.9c2.3,0.3,13.7,0.3,15.4-0.2C405.9,268.1,405.5,259,404.9,249.9z"/>
		<path d="M106.4,392.8c13-25.2,25.8-50,38.6-74.9c3.9,0,7.7-0.1,11.6,0c0.2,1.1,0.4,2,0.4,3c1.8,23.9,3.6,47.8,5.4,71.6
			c-1.5,0.5-8.2,0.6-11.7,0.2c-0.1-0.4-0.3-1-0.4-1.5c-0.3-4.4-0.5-8.8-0.8-13.2c0-0.7-0.2-1.4-0.3-2.2c-0.7-0.1-1.4-0.2-2-0.2
			c-6.3,0-12.7,0-19,0c-0.6,0-1.1,0.1-1.8,0.1c-2.8,5.7-5.6,11.3-8.5,17C114.2,392.8,110.5,392.8,106.4,392.8z M146.9,335.7
			c-0.2,0-0.3,0-0.5-0.1c-4.4,8.8-8.7,17.6-13.1,26.4c-0.2,0.3-0.2,0.7-0.3,1.1c0.3,0.1,0.6,0.3,0.8,0.3c4.5,0,9.1,0,13.6,0
			c0.3,0,0.6-0.2,0.9-0.2c0.1-0.4,0.2-0.8,0.2-1.2c-0.5-8.5-0.9-17.1-1.4-25.6C147.1,336.2,147,336,146.9,335.7z"/>
		<path d="M430.1,318c3.7-0.3,9.2-0.2,10.7,0.2c-0.1,0.7-0.2,1.5-0.4,2.2c-3.1,13.9-6.2,27.8-9.3,41.7c-0.6,2.8-1.1,5.7-1.6,8.5
			c-0.3,1.7-0.1,3.5,0.4,5.1c1,3.6,3.7,5.6,7.6,5.9c5.5,0.3,9.7-2,12.3-6.9c0.9-1.6,1.5-3.4,2-5.2c1.6-6.4,3.1-12.9,4.6-19.4
			c2.3-10,4.5-19.9,6.7-29.9c0.2-0.7,0.4-1.5,0.6-2.1c1.8-0.4,9.1-0.3,10.8,0c-0.1,0.7-0.2,1.4-0.3,2c-3,13.5-6,27.1-9.1,40.6
			c-1.1,4.7-2.4,9.4-3.8,14c-1,3.3-2.5,6.3-4.5,9.1c-4.8,6.5-11.2,10.1-19.4,10.2c-2.4,0-4.9-0.1-7.3-0.4
			c-6.3-0.7-10.2-5.1-11.6-10.7c-0.8-3.3-0.6-6.6-0.2-9.9c1-7.7,2.8-15.3,4.5-22.9c2.2-10.1,4.5-20.2,6.8-30.3
			C429.7,319.2,429.9,318.6,430.1,318z"/>
		<path d="M317.6,306.7c0.2-0.9,0.3-1.7,0.5-2.5c0.6-2.9,1.4-5.9,1.9-8.8c0.3-1.3,0.8-2.4,1.7-3.4c11.5-13.8,22.9-27.6,34.4-41.3
			c1.2-1.5,2.5-2.9,3.7-4.4c0.4-0.5,0.9-0.9,0.9-1.8c-4.3-0.2-8.6-0.1-12.8-0.1c-4.2,0-8.4,0-12.9,0c0.6-4.2,1.7-8,2.6-12.1
			c0.8-0.1,1.5-0.2,2.3-0.2c12.1,0,24.2,0,36.3,0c0.4,0,0.8,0,1.1,0c0.3,0,0.6,0.2,1,0.4c-0.1,0.6-0.1,1.1-0.2,1.7
			c-0.6,2.6-1.2,5.1-1.7,7.7c-0.3,1.3-0.8,2.4-1.7,3.4c-10.6,12.7-21.1,25.4-31.7,38.1c-2.6,3.1-5.2,6.3-7.9,9.4
			c-0.4,0.5-0.8,1.1-1.4,1.8c0.7,0.2,1.1,0.4,1.5,0.4c1.7,0,3.5,0,5.2,0c7.6,0,15.1,0,22.7,0c0.8,0,1.5,0.1,2.2,0.1
			c0.2,1.6-1.7,10.2-2.5,11.8C361.3,307,320,307,317.6,306.7z"/>
		<path d="M244.5,392.8c-3.9,0-7.6,0-11.5,0c-0.1-0.5-0.3-0.9-0.3-1.3c-0.3-6.3-0.5-12.7-0.8-19c-0.4-9.2-0.8-18.4-1.2-27.6
			c-0.4-8.2-0.7-16.5-1.1-24.7c0-0.7,0-1.4,0.1-2c1.8-0.4,9.8-0.4,11.5,0c0.7,6,0.5,12.1,0.8,18.1c0.3,6.1,0.3,12.3,0.5,18.4
			c0.2,6.1,0.5,12.1,0.7,18.3c1-0.2,1.1-1,1.4-1.6c2.2-4.6,4.3-9.1,6.5-13.7c5.9-12.6,11.9-25.2,17.8-37.8c0.3-0.6,0.6-1.2,1-1.9
			c3.7,0,7.4,0,11.1,0c0.4,0.7-0.1,1.1-0.4,1.6c-3.8,7.8-7.7,15.6-11.5,23.4c-7.8,15.8-15.5,31.6-23.3,47.3
			C245.4,391.1,244.9,391.9,244.5,392.8z"/>
		<path d="M392.7,392.7c-3.7,0-7.1,0-10.6,0c-0.3-0.6-0.1-1.2,0-1.8c2.7-12,5.3-23.9,8-35.9c1.7-7.5,3.4-15.1,5.1-22.6
			c0.1-0.6,0.2-1.2,0.3-2.1c-0.9,0-1.5-0.1-2.2-0.1c-4,0-7.9,0-11.9,0c-0.7,0-1.4-0.1-2-0.1c-0.2-1.6,1.6-10,2.5-12
			c1.4-0.3,41.2-0.4,44.1-0.1c0,2-0.7,3.9-1.1,5.9c-0.4,2-0.9,4-1.4,6.1c-0.9,0.1-1.6,0.2-2.3,0.2c-4,0-8.1,0-12.1,0
			c-0.7,0-1.4,0-2.2,0c-1.7,7-3.2,13.9-4.7,20.8c-1.5,6.9-3.1,13.8-4.6,20.8C395.8,378.7,394.3,385.6,392.7,392.7z"/>
		<path d="M317.5,232.3c2.1-0.6,9.2-0.5,10.6,0c0,0.1,0.1,0.1,0.1,0.2c0,0.1,0,0.1,0,0.2c0,0.3,0,0.6-0.1,0.9
			c-5.4,24.1-10.8,48.2-16.2,72.3c-0.1,0.2-0.2,0.5-0.4,0.9c-3.4,0.2-6.9,0.2-10.2,0c-0.2-0.2-0.2-0.3-0.2-0.3
			c0-0.1-0.1-0.1-0.1-0.2c0.1-0.6,0.2-1.1,0.3-1.7C306.7,280.5,312.1,256.4,317.5,232.3z"/>
		<path d="M282.8,311.8c7.7-3.8,7.3-3.9,12.7-9.5c-0.2,2.5-1.5,8.1-2.2,9.3c-0.3,0-0.6,0.1-0.9,0.1
			C289.2,311.8,286.1,311.8,282.8,311.8z"/>
		<path d="M305,260.4c-0.8,3.7-1.6,7.4-2.6,11.5c-1-1.8-1.8-3.3-2.5-4.7c1.6-2.3,3.2-4.6,4.8-6.9C304.8,260.4,304.9,260.4,305,260.4
			z"/>
		<path d="M264.1,199.6c0.2-1.1,0.4-2.6,0.8-4c7.3-25,14.7-49.9,22-74.9c0.5-1.7,1.2-3.4,2.3-4.8c1.2-1.6,2.8-2.8,4.9-3.2
			c3.2-0.5,5.5,1.2,5.8,4.3c0.1,1.7,0,3.5-0.4,5.1c-1.3,5-2.7,10-4.2,14.9c-5.6,18-11.3,36-16.9,54c-0.7,2.1-1.3,4.3-2.1,6.4
			c-0.8,2-1.8,4-3.3,5.6c-1.2,1.3-2.6,2.2-4.5,2.2c-2.3-0.1-3.7-1.2-4.1-3.5C264.2,201.2,264.2,200.6,264.1,199.6z M271.1,202.5
			c0.1,0.1,0.2,0.1,0.3,0.2c0.4-0.5,0.9-0.9,1.2-1.4c0.8-1.3,1.6-2.6,2.2-4c0.8-2,1.4-4.1,2.1-6.2c5.3-16.9,10.6-33.8,15.9-50.7
			c1.7-5.5,3.3-11,4.9-16.6c0.2-0.6,0.2-1.2,0.3-1.9c-1.4,0.5-1.7,0.7-2.4,1.5c-1.3,1.5-2.1,3.2-2.6,5.1
			c-7.1,24.2-14.3,48.4-21.5,72.6C271.3,201.5,271.2,202,271.1,202.5z"/>
		<path d="M455.8,187.6c0.2-1.1,0.4-2.1,0.7-3.2c5.3-18.2,10.6-36.3,15.9-54.5c0.5-1.7,1.3-3.2,2.6-4.4c1.7-1.6,3.6-2.1,5.8-1.8
			c2.4,0.3,3.8,2.4,3.4,5.1c-0.4,2.3-0.8,4.5-1.5,6.7c-3.1,10.2-6.4,20.4-9.6,30.6c-1.8,5.9-3.7,11.7-5.5,17.6
			c-0.6,2-1.4,3.8-2.7,5.5c-0.9,1.2-2,2.1-3.5,2.6C458.9,192.5,455.7,191.5,455.8,187.6z M481.6,133.5c-2,0.7-2.8,2.3-3.3,4
			c-0.8,2.6-1.5,5.1-2.3,7.7c-4,13.6-8,27.2-12,40.8c-0.2,0.5-0.6,1.1-0.1,2c0.5-0.9,1-1.6,1.3-2.3c0.6-1.7,1.2-3.4,1.7-5.1
			c4.4-13.8,8.7-27.7,13-41.5C480.5,137.2,481.1,135.4,481.6,133.5z"/>
	</g>
</g>
</svg>
