<?xml version="1.0" encoding="utf-8"?>
<!-- Generator: Adobe Illustrator 19.0.1, SVG Export Plug-In . SVG Version: 6.00 Build 0)  -->
<svg version="1.1" id="Слой_1" xmlns="http://www.w3.org/2000/svg" xmlns:xlink="http://www.w3.org/1999/xlink" x="0px" y="0px"
	 viewBox="0 0 841.9 595.3" style="enable-background:new 0 0 841.9 595.3;" xml:space="preserve">
<style type="text/css">
	.st0{fill:#0F0E0C;}
	.st1{fill:#FEFEFE;}
	.st2{fill:#D3B183;}
	.st3{fill:#8F7A59;}
	.st4{fill:#F4F0E3;}
	.st5{fill:#D7CABF;}
	.st6{fill:#B68C33;}
	.st7{fill:#5B5742;}
	.st8{fill:#C8E6DD;}
	.st9{fill:#8B6B2A;}
	.st10{fill:#7C654A;}
	.st11{fill:#D9B145;}
	.st12{fill:#C69A33;}
	.st13{fill:#515443;}
	.st14{fill:#F8DEB2;}
	.st15{fill:#694F35;}
	.st16{fill:#817C85;}
	.st17{fill:#E4BA87;}
	.st18{fill:#C69E3A;}
	.st19{fill:#3B3735;}
	.st20{fill:#F1CDA0;}
	.st21{fill:#F9F6D2;}
	.st22{fill:#BD9651;}
	.st23{fill:#AE8E6A;}
	.st24{fill:#F9F4D9;}
	.st25{fill:#83451E;}
	.st26{fill:#A66327;}
	.st27{fill:#322117;}
	.st28{fill:#71B3CB;}
	.st29{fill:#4D3414;}
	.st30{fill:#908175;}
	.st31{fill:#0A0808;}
	.st32{fill:#110905;}
	.st33{fill:#1C0E0C;}
	.st34{fill:#3F2718;}
	.st35{fill:#040303;}
	.st36{fill:#CCC7C9;}
	.st37{fill:#C4BDBE;}
	.st38{fill:#462F1E;}
	.st39{fill:#877C82;}
	.st40{fill:#2F1A13;}
	.st41{fill:#BBA6A6;}
	.st42{fill:#383842;}
	.st43{fill:#5D5865;}
	.st44{fill:#B4A1A1;}
	.st45{fill:#C5AEAD;}
	.st46{fill:#4B332B;}
</style>
<g>
	<path class="st0" d="M560.2-0.2c0.2,39.5,3.9,79.4-1.9,118c-1.6,10.3-4.4,28-14.4,39.9c-5.2,6.3-2.3,17.2-0.8,26.1
		c-14.1,5.6-23.8,16.1-31.7,29c-1.4-2.7-2.7-5.2-4-7.7c-0.6-2.7,0.2-6.8-4.9-4.9c-0.7-0.4-1.5-0.8-2.2-1.3c0.7-0.9,1.4-1.8,2.2-2.6
		c5.6-5.4,14.2-7.5,17.2-15.8c0.3-0.5,0.6-0.9,0.8-1.4c3.6-4.9,12-6.1,11.2-14.3c-0.3-6.8-0.5-13.5-0.8-20.3
		c-3.1-8-6.9-11.2-13.8-3.1c-5.6,6.6-11.7,12.7-19.4,21c1.4-5.8,2.2-8.9,3.2-12.7c-2.5,0.5-4.5,0.9-6.6,1.3
		c-0.5,0.2-0.9,0.3-1.4,0.5c-0.5,0.1-1,0.2-1.5,0.3c-10.5,1.1-17.8,8.1-26.3,13.9c-4.5-10-13.9-11-23.5-11.7
		c-2.3-0.6-4.6-3.9-6.7,0.3c-0.8-0.3-1.7-0.6-2.5-0.8c-9.3-4-18.5-8.4-28-11.9c-3.1-1.1-5.3,1.1-3.2,4.8c0,4.1,0,8.2,0.1,12.3
		c-5.8,3-6.5-0.7-6.7-5.1c1.1-2.8,2.2-5.7,3.3-8.5c0-0.9,0-1.7,0-2.6c-11.6,1.1-23.3,2.1-34.9,3.2c-0.1,2.1-0.1,4.2-0.2,6.4
		c-0.9-0.7-1.8-1.5-2.7-2.2c-1.5-11.1-3.1-22.1-4.6-33.2c-0.5-3.6-1-7.2-1.4-10.8c-0.7,0-1.3,0-2-0.1c0,0-0.1,0.1-0.1,0.1
		c-3.2,16-6.3,32-9.5,48c-0.3,0-0.5-0.1-0.6-0.3c-0.4-0.5-0.8-1-1.2-1.6c-0.2-0.1-0.3-0.2-0.3-0.4c-0.2-4.4-0.5-8.8-0.7-13.2
		c1.4-10.9,8.1-21.8-3.4-32.1c-7.6-6.8-16.3-5.1-24.5-6.6c-8.1-1.6-16.7,1.1-24.8-2.6c-4-1.9-9.1-1.9-10.6-7.4
		c3.3-0.7,6.6-1.5,9.9-2.1c21.7-4.3,43.5-8.5,65.2-12.8c12.3-2.1,23.9,1.3,35.4,4.9c2.4,0.7,4.2,0.4,5.1-2.3
		c1.1-3.3-1.7-3.2-3.4-3.7c-5.1-1.7-10.3-3.2-15.4-4.8c-4.7-2.9-9.4-5.9-14.1-8.8c-0.1-0.2-0.3-0.3-0.5-0.2
		c-0.1-13-2.9-26.9,0.9-38.5c2.2-6.6,10.9-12.4,11.9-21.5c45.8,0,91.6,0,137.3,0c4.2,8.1,13,6.5,19.6,7.9c4,0.9,11-2,13.6-7.9
		C548.2-0.2,554.2-0.2,560.2-0.2z M434.6,45.3c0.3,0.3,0.6,0.6,0.9,0.8c0.6,0.2,1.2,0.4,1.8,0.5c-0.3-0.9-0.4-2.4-1-2.8
		c-7.4-4-14.4-9.1-23.2-9.9c-0.8,1.2-1.6,2.3-2.4,3.5l0,0c-10.3,10.4-14.6,22-6.8,35.8c0.7,1.3,2.8,1.9,4.2,2.8
		c-4.1-5.4-4.2-8.3,3-9.4c7-1.1,10.9-5.7,12.6-12.4c0.7-1.4,1.4-2.9,2.1-4.3c0.9-2.2,1.8-4.5,2.9-7.1
		C430.7,43.6,432.7,44.4,434.6,45.3C434.6,45.3,434.6,45.3,434.6,45.3z M467,135.5c-1.9-1-3.7-2-6.2-3.4c0.3,2.6,0.5,3.9,0.6,5.2
		c-6.6,1.5-10.7-4.3-16.4-5.4c-1.7-0.3-3.6,0.1-5.4,0.2c0.3,1.3,0.3,3.6,1,3.8c10,3.8,20.2,5.5,32.6,3.6
		C470.2,137.7,468.6,136.6,467,135.5z M445.5,67.8c-0.2,0.5-0.4,1-0.5,1.5c0,0.6,0,1.3,0,1.9c0.6,4.6,1.2,9.2,1.8,13.8
		c-2.9,1.6-7.5-4.2-9.4,2.1c-1.3-1.2-2.5-3.1-4-3.4c-12.1-2.7-24.2-5.1-36.3-7.4c-1-0.2-2.3,1.4-3.5,2.2c0.7,1,1.3,2.7,2.2,2.9
		c14.3,2.7,28.7,5.2,43.1,7.8c0.5,0.1,1,0.1,1.5,0.2c1.2,0.2,2.4,0.4,3.6,0.6c13.6,1.8,27.1,3.9,40.7,5.1c6,0.5,14.2,5.5,17.5-1.2
		c1.2-2.4-9.7-1.2-14.8-2.9c-2.4-0.3-4.9-0.6-7.3-0.9c-0.4,0-0.8-0.1-1.2-0.1c-0.3-15.4,8.3-29.7,6-45.3c0-2.1,0.1-4.2,0.1-6.3
		c-0.4-1.4-0.8-2.7-1.6-5.5c2.8,2.1,4.5,3.3,6.9,5.1c1.1-6.4-4-4.9-6.4-6.2c-5.4-1.5-10.7-3.6-16.2-4.4c-4.1-0.6-10.4-5.5-12.1-0.5
		C451,40,448.6,54,445.5,67.8z M394.8,129.1c-6.8-4.5-13.5-8.2-21.6-7.1c0.3,1.5,0.3,4.3,0.8,4.4
		C380.9,127.6,387.9,128.3,394.8,129.1z"/>
	<path class="st1" d="M1.5,520.3c-0.7-0.7-2.1-1.4-2.1-2.2C-0.7,346.1-0.7,174-0.8,2c0-2.9,1.5-2.2,3-2.2c123.1,0,246.2,0,369.4,0
		c-1,9.1-9.8,14.8-11.9,21.5c-3.8,11.7-1,25.6-0.9,38.5c-0.2,0.9-0.4,1.9-0.6,2.8c-0.3,0.7-0.5,1.5-0.8,2.2c-1.9,3.3-0.1,8.7-5.7,10
		c-21.7,4.3-43.5,8.5-65.2,12.8c-3.3,0.7-6.6,1.4-9.9,2.1c1.5,5.4,6.5,5.5,10.6,7.4c8.1,3.7,16.7,1.1,24.8,2.6
		c8.2,1.6,16.9-0.2,24.5,6.6c11.6,10.3,4.8,21.2,3.4,32.1c-1.8,4.5-2.8,9,0.7,13.2c0,0.2,0.1,0.4,0.3,0.4c0.4,0.5,0.8,1,1.2,1.6
		c0.1,0.3,0.3,0.4,0.6,0.3c2.9-9,5.8-18,8.7-26.9c0.1-0.6,0.2-1.2,0.4-1.7c0.1-0.2,0.2-0.4,0.2-0.7c0.3-0.8,0.6-1.6,0.9-2.4l0,0
		c0.2-0.8,0.4-1.7,0.7-2.5l0,0c0.7-1,1.4-1.9,2.1-2.9c1.5,11.1,3.1,22.1,4.6,33.2c1.5,12.3,3,24.7,4.5,37c-1.6,0.3-3.1,0.6-4.7,0.9
		c-1.3,0.4-2.6,0.7-3.9,1.1l-0.2-0.1c0,0-0.1,0.2-0.1,0.2c-0.5,0.1-1,0.1-1.5,0.2c-1.5,0-2.9,0.1-4.4,0.1c-0.5,0-0.9,0-1.4,0
		c-0.3,0-0.7,0.1-1,0.1c-0.3,0-0.4,0.1-0.6,0.3c-0.2,0.1-0.4,0.2-0.6,0.3c-18.2,2.2-36.9,2.6-54.6,7c-13,3.2-31.7-2.1-37.1,17
		c-6.6,23,1.2,46.2,0.5,69.4c-0.2,8.2-2.9,6.3-7.7,4.4c-25.4-10.2-51.7-19.3-78.4-8.8c-12.9,5.1-31.9-20-40.7,13.9
		c-8.4,32.2-43.6,54.9-41.8,93.5c-0.4,9.1-0.8,18.2-1.2,27.4c-0.1,0.3-0.2,0.6-0.2,0.9c-0.1,0.2-0.3,0.5-0.4,0.7c0,0,0,0,0,0
		c-0.7,0.6-1.5,1.3-2.2,1.9c0,0.3-0.1,0.4-0.4,0.4c-0.6,0.3-1.2,0.6-1.8,0.9c-0.2,0.1-0.4,0.3-0.6,0.4
		c-14.8,3.7-16.7,12.9-10.8,25.4l0.1,0.2c0.1,0.7,0.3,1.3,0.4,2c0.2,0.1,0.2,0.3,0.1,0.5c0.2,0.8,0.4,1.6,0.6,2.4l0.2,0.1
		c0,0-0.1,0.2-0.1,0.2c0.2,0.9,0.4,1.7,0.7,2.6c-0.7,2.6,5.7,6.8-0.3,7.5C33.7,464.4,15.7,490,1.5,520.3z"/>
	<path class="st1" d="M560.2-0.2c94.5,0,188.9,0,283.4-0.1c2.5,0,3,0.5,3,3c-0.1,153-0.1,306-0.1,459c-0.6-0.3-1.3-0.5-1.9-0.8
		c-0.1-0.5-0.1-0.9-0.2-1.4c0-2.2,0-4.4,0-6.5c0-0.5,0-1,0-1.4c-0.2-2.9-0.4-5.8-0.6-8.7c-3.4-18.4-15.1-32.2-26.7-45.6
		c-17.3-20-34.3-41.5-65.9-36.1c-6.8,1.2-14.9,3.6-20.4,1.1c-20.9-9.4-41-20.6-61.4-31.2c-16.4-8.5-32.9-17.1-49.3-25.6
		c-3.2-7.6,8.3-22.1-10.6-22.2c-0.7-0.1-1.5-0.2-2.2-0.3c-1.2,0-2.4,0-3.6,0c-0.5,0-0.9-0.1-1.4-0.1c0.2-3.1,0.4-6.2,0.7-9.3
		c-0.1-0.5-0.2-0.9-0.3-1.4c0.1-0.5,0.3-0.9,0.4-1.4c5.5-15.6,3.5-31.6,3.7-47.7c0.1-16.5-11-17.7-21.7-21.1
		c-0.3-0.1-0.5-0.2-0.8-0.3c-0.8-0.3-1.6-0.7-2.4-1c-0.3,0-0.5-0.1-0.5-0.4c-1.2-0.4-2.4-0.9-3.6-1.3c-1.2,0.1-2.4,0.1-3.7,0.2
		c-0.5,0.2-0.9,0.5-1.4,0.7c0,0.5-0.1,0.9-0.1,1.4c-1-0.2-2-0.4-3-0.6c0,0,0,0,0,0c-0.3-0.3-0.5-0.5-0.8-0.8l0,0
		c-0.8-0.9-1.7-1.9-2.5-2.8c-0.2,0.2-0.4,0.4-0.6,0.5c-0.4-0.5-0.7-1-1.1-1.5l0,0c0-0.5,0.1-1,0.1-1.4c-1.5-4.2-4.2-7.1-8.5-8.3
		c-2.9-0.5-5.9-1-8.8-1.5c-1.4-0.4-2.8-0.9-4.1-1.3c-1.6-8.9-4.5-19.8,0.8-26.1c10-11.9,12.8-29.6,14.4-39.9
		C564.2,79.3,560.4,39.3,560.2-0.2z"/>
	<path class="st0" d="M584.1,201.9c0.3,0.1,0.5,0.2,0.8,0.3c6,5.2,17.2,4,19.3,13.7c4.1,18.4,2.4,36.8-1.3,55.1
		c-0.1,0.5-0.3,0.9-0.4,1.4c-0.1,0.5-0.2,1.1-0.3,1.6c0,0.9-0.1,1.9-0.1,2.8c-0.2,0.9-0.5,1.9-0.7,2.8c0.2,1.1,0.5,2.3,0.7,3.4
		c0.5,0,0.9,0.1,1.4,0.1c1.2,0,2.4,0,3.6,0c0.7,0.1,1.5,0.2,2.2,0.3c4.5,6.9,10.7,13.1,10.6,22.2c16.4,8.5,32.9,17.1,49.3,25.6
		c20.4,10.6,40.5,21.8,61.4,31.2c5.5,2.5,13.7,0,20.4-1.1c31.6-5.4,48.6,16.1,65.9,36.1c11.6,13.4,23.3,27.2,26.7,45.6
		c0.2,2.9,0.4,5.8,0.6,8.7c0,0.5,0,1,0,1.4c0,2.2,0,4.4,0,6.5c0.1,0.5,0.1,0.9,0.2,1.4c0,16,0,31.9,0,47.9c-0.1,0.5-0.1,0.9-0.2,1.4
		c0,3.4-0.1,6.8-0.1,10.1c-193.2,0-386.5,0-579.7,0c0.4-3.6-4.7-9.2,0.6-10.5c7.9-1.9,13.9-6.1,19.8-11c1.4-1,2.9-2,4.3-3
		c2.6-3.5,5.2-7.1,7.7-10.4c0.1,0.9,0.3,2.2,1.2,8.7c5-24.7,24.2-36.7,30.4-59.7c-12.7,7.7-22,13.3-32.1,19.4
		c5.4-13.7,22.8-18.3,22.4-34.5c10.1,2-1.4,10,4.5,14c12-9.7,27.6-15.5,35.9-31.6c3.7,14.5-0.7,28.6-9.4,35.3
		c-26,20.2-44.4,43.5-47.4,77.1c-0.2,1.8-1.7,4.7,1.7,4.7c39.3,0.1,78.7,0.1,117.7,0.1c-1.9-16.8-1.5-34-6.8-49.3
		c-2.1-6,14.3-32.3-14.6-20.2c-0.1,0-0.3-0.3,0.1,0.1c2.2-5.1,4.2-9.8,6.2-14.6c0.2-0.4,0.3-0.7,0.5-1.1c0.2-0.3,0.3-0.6,0.5-0.8
		c0.1-0.2,0.1-0.4,0.2-0.6c0.2-0.3,0.3-0.6,0.5-0.8c5.1-7.9,1.9-16.2,1-24.3c-0.1-3.7,1-8.1-0.7-10.9c-5.2-8.7,10-26.2-11.9-27.5
		c-0.1,0-0.1-2-0.1-3c3.4-1.8,8.8,3.9,10.9-2.9c1.6-13.5,15.4-15.3,22.5-23.6c0.2-0.1,0.4-0.2,0.6-0.2c0.3-0.2,0.5-0.3,0.8-0.5
		c2.7-2,5.5-3.9,8.2-5.9c0.2-0.2,0.4-0.4,0.5-0.7c0.1-0.1,0.3-0.3,0.4-0.3c15.2-8.9,21.1-23,22.4-39.7c-0.2-9.5-0.4-19.1-0.6-28.6
		c-2.6,2.6-5.2,5.3-7.7,7.9c0.5-9.1,1.1-18.2,1.6-27.3c0.8,0.1,1.5,0.1,2.3,0.2c-0.3,5.7-0.6,11.5-0.9,17.2
		c-0.1-18.2,14.5-27.2,23.9-39.5c1.9,2.4,3.4,4.2,4.8,6.1c0,3.8,3.3,1.2,4.6,2.4c2.7-0.2,5.5-0.4,8.2-0.6
		c12.2-2.4,25.3-1.8,35.4-10.9c-0.4,1.8-0.8,3.7-1.3,6.2c6.1-0.9,11.7-1.6,17.3-2.4c1.6,5,3.2,9.9,4.9,15.4
		c-21.8-3.9-44.1,27.3-42.1,56.8c1.3,8,2.6,16.1,3.9,24.1c-0.9-0.7-1.7-1.4-3.2-2.5c-4.6,14.4-4.8,28.7-3,44.9
		c1.8-2.5,2.5-3.4,3.2-4.3c0,1.5,0,2.9,0,4.4c-0.7,2.4-1.3,4.9-2,7.3c-0.1,0.4-0.1,0.8-0.2,1.1c-0.2,0.6-0.4,1.2-0.6,1.8
		c-0.2,0.1-0.2,0.3-0.1,0.5c-1.2,4.4-2.4,8.8-3.6,13.2c-2,9-4.1,17.9-6.1,26.9c-1.3,6.7-2.6,13.4-3.9,20.1c-0.1,9.5-0.1,19-0.2,28.5
		c-0.1,0.4-0.1,0.7-0.2,1.1c-0.1,0.2-0.3,0.5-0.4,0.7c-0.2,1.2-0.4,2.4-0.7,3.7c-6.1,16.3-10.3,32.7,3.1,47.4
		c2.8,3.1,8.5,3.5,12.8,5.2c0.3-1.7,1-3.4,0.7-5c-2-12-1.6-23.8,1.5-35.5c1.4-5.2,0.9-11.7,8-13.6c0,0,0.3,0.1,0.3,0.1l0.4,0
		c0.1,0.2,0.2,0.2,0.4,0.2c8.2,8.9,14.8,9.9,18.1-3.9c1.8-6.9,3.6-13.9,5.3-20.8c1-8.3,2-16.7,2.8-24c0-0.1,0.4,1,1.4,3.2
		c0.8-2.2,1.2-3.4,1.6-4.5c0.1-0.2,0.1-0.4,0.2-0.6c0.1-0.3,0.2-0.7,0.3-1c4.6-13.8,5.1-28,4-43c-1.6,1.2-2.7,2.1-3.8,2.9
		c0.9-3.9,1.9-7.9,2.8-11.8c6.6-19.4,7.5-39,1-61.7c2.5,4,3.4,5.3,5.7,8.8c3.5-15.7,6.6-29.3,10.7-47.6c-4.4,5.2-5.6,6.5-6.7,7.8
		c-5.5,3.4-9,7.8-8.1,14.8c-0.6,3.7-1.3,7.4-1.8,11.2c-0.2,1.9,0,3.8,0,5.8c-1.9-1-3.8-2-5.8-2.9c-4.3-2-7.6-7.5-13.5-4
		c-1.3,2.6-2.6,5.3-3.9,7.9c-3.6-12.8,0-24.6,5.1-36.2c11.8,12.1,20.6,3.8,28.2-5c7.9-9.1,11.3-20.3,10.4-32.6c-0.5-3-1-6-1.5-9.1
		c-0.4-4.9,2.6-10.8-3.8-14.1c-0.1-0.2-0.1-0.4-0.1-0.6c0-0.8,0-1.5,0.1-2.3c0-0.5,0.1-0.9,0.1-1.4c0.5-0.2,0.9-0.5,1.4-0.7
		c1.2-0.1,2.4-0.1,3.7-0.2c1.2,0.4,2.4,0.9,3.6,1.3c0,0.3,0.2,0.4,0.5,0.4C582.5,201.2,583.3,201.5,584.1,201.9z M535.7,518.3
		c-4.3-14.1-12.1-24-19.1-24.4C513.6,509.8,522.1,520.9,535.7,518.3z M330.7,449.7c8.9-5,14.3-13.7,19.5-22.5
		c0.5-0.9-0.7-2.8-1.3-4.1c-0.2-0.4-1.7-0.6-2-0.3C339.3,430.4,326.2,434.7,330.7,449.7z M537.3,510.5c1.8-13.3,8.1-26,4.8-43.7
		C534.6,483.2,535.3,496.8,537.3,510.5z M310.2,471.1c-0.3-0.2-0.5-0.3-0.8-0.5c-6.2,15.9-12.3,31.9-18.5,47.8
		c1.6,0.6,3.2,1.3,4.8,1.9C300.5,503.9,305.3,487.5,310.2,471.1z"/>
	<path class="st0" d="M85,414.7c0.1-0.3,0.2-0.6,0.2-0.9c0.4-9.1,0.8-18.2,1.2-27.4c-1.8-38.6,33.4-61.3,41.8-93.5
		c8.8-33.9,27.8-8.8,40.7-13.9c26.7-10.6,53-1.4,78.4,8.8c4.8,1.9,7.4,3.8,7.7-4.4c0.7-23.2-7.1-46.4-0.5-69.4
		c5.5-19.1,24.2-13.8,37.1-17c17.7-4.4,36.4-4.9,54.6-7c0.2-0.1,0.4-0.2,0.6-0.3c0.1-0.2,0.3-0.3,0.6-0.3c0.3,0,0.7-0.1,1-0.1
		c0.5,0,0.9,0,1.4,0c1.4,0.2,2.9,0.4,4.3,0.6c4.3,1,8.7,1.9,13,2.9c-0.1,1.4-0.3,2.8-0.4,4.3c-6.3,0.5-12.7,0.9-19,1.4
		c-0.7,0-1.4,0.1-2.2,0.1c-7.5,1.2-14.9,2.3-22.4,3.5c-0.7,0.1-1.4,0.2-2.2,0.3c-2.2,0.4-4.3,0.8-6.5,1.2c-1.1,0.2-2.2,0.4-3.3,0.7
		c-0.4,0.1-0.8,0.1-1.1,0.2c-0.7,0.1-1.4,0.2-2.1,0.3c-0.5,0.2-1,0.3-1.5,0.5c-4.3,0.8-8.7,1.6-13,2.3c-0.7,0.1-1.4,0.3-2.2,0.4
		c-0.5,0.1-1,0.2-1.5,0.3c-1.4,0.3-2.9,0.6-4.3,0.9c-4.8,2.2-12.2-1.7-14.5,6.2c-6.5,4.3-2.2,10.1-2.1,15.3c-0.1,0.2-0.1,0.4,0,0.5
		c0.7,14,1.4,28,2.2,42c0.2,3.9,0.4,7.7,0.6,11.6l0,0c-0.2,0.6-0.4,1.2-0.7,1.8c-0.8-1.9-1.6-3.8-2-4.8
		c-10.3,6.9-20.9,13.8-31.4,20.8c-13.8,6.6-11.6,19.9-12,31.2c-1.8,48.2,3.1,96.9-8.5,144.8c2-0.6,4.1-1.2,6.2-1.8
		c0.4,0,0.9,0,1.3,0c0.7-0.1,1.4-0.1,2.1-0.2c2,0.1,4,0.2,6,0.2c0.1,1.6,0.2,3.2,0.3,4.8c-2,1.8-4.1,3.6-6.1,5.4
		c-0.4,0.6-0.7,1.3-1.1,1.9c0.8,8.5-17.5,17.2,0.3,25.5c1.4,1.9,2.9,3.9,4.3,5.8c-76.4,0-152.8,0-229.1,0
		c14.2-30.2,32.2-55.9,69.1-60.4c6-0.7-0.4-4.9,0.3-7.5c-0.2-0.9-0.4-1.7-0.7-2.6c0,0,0.1-0.2,0.1-0.2s-0.2-0.1-0.2-0.1
		c-0.2-0.8-0.4-1.6-0.6-2.4c0.1-0.2,0.1-0.4-0.1-0.5c-0.1-0.7-0.3-1.3-0.4-2c0,0-0.1-0.2-0.1-0.2c-1.5-10.6,2.7-18.8,10.8-25.4
		c0.2-0.1,0.4-0.3,0.6-0.4c0.6-0.3,1.2-0.6,1.8-0.9c0.3,0,0.4-0.1,0.4-0.4c0.7-0.6,1.5-1.3,2.2-1.9c0,0,0,0,0,0
		C84.7,415.2,84.9,415,85,414.7z M52.2,473.6c11.6,14.1,22.5,27.3,33.3,40.5c3.1,3.9,4.1,4.3,5.6,2c12.8-19.1,15.2-39.3,6.7-60.9
		c-1.2-3.1-2.2-3.5-4.8-2.2C79.4,460,65.8,466.8,52.2,473.6z"/>
	<path class="st2" d="M233.3,481.6c-0.1-1.6-0.2-3.2-0.3-4.8c0.4-7.5,0.7-14.9,1.1-22.4c0.5,18.4-1.6,37.4,11.7,56.8
		c0-14.8,0-26,0-37.2c1.2-1.3,3.4-2.5,3.6-3.9c1.5-13.7,2.6-27.4,3.7-41.1c0.1-1.6-0.6-3.2-1-4.8c-0.9,1.5-2.3,2.9-2.5,4.4
		c-1.6,12.7-2.9,25.4-4.3,38.1c-2.1-10.4-4.2-20.9-6.2-30.8c-0.5,0.5-1.5,1.3-2.4,2.1c0.3-4.6,0.5-9.1,0.8-13.7
		c1-7.7-0.6-15.9,4.7-24.8c-0.6,6.2-0.9,10.3-1.9,20.2c9.9-17.9,8.7-33.8,17.6-45.7c-1.3,4.5-2.6,9-5.2,18.3
		c4.5-5.7,6.1-7.7,7.8-9.8c5.2-3.6,10.1-14.9,16.5-1.8c3.1,6.4-4.7,7.8-7.8,10.4c-10.3,8.6-22.3,21.7-21.5,26.5
		c10.6-13.5,26.4-16,40.8-21.3c1.2-0.4,2.7-0.1,4-0.1c0,1.5,0.2,3-0.2,4.4c-2.7,8.7-6.6,16.9-13.4,23.4c-1.1,1-0.6,3.7-0.9,5.6
		c1.4-0.2,2.7-0.4,4.1-0.6c1.2-0.3,2.4-0.5,3.6-0.8c7.9,22.1,16.6,44.2,3.8,67.5c-1.4,1-2.9,2-4.3,3c-13.3,4.6-25.3,3.2-36.3-9.7
		c1.6,11.3,2.8,20.2,4,28.9c-3.3,0.8-6.5,1.6-9.8,2.3c-4.1,0-8.2,0-12.3,0c-1.4-1.9-2.9-3.9-4.3-5.8c-1.2-1.7-2.4-3.4-3.6-5
		c0.4-7.8,5.3-13.5,9.1-19.7c0.7,0.8,1.4,1.6,2.9,3.5C234.1,488.4,233.7,485,233.3,481.6z M279.8,454.1c0.6-1.5,1.8-3.2,1.9-5
		c0.2-2.8,5.5-5.8,1.6-7.8c-4-2.1-4.9,3.3-6.7,5.8c-7.1,10-8.6,22-12,33.3c-1.3,4.4-7.2,11.3-2.9,12.8c5.4,1.9,4.8-7.2,6.8-10
		c2.2-0.3,4.7,0,5-0.6c4.1-8.8,7.9-17.8,11.8-26.8C283.7,455.2,282.1,454.7,279.8,454.1z"/>
	<path class="st3" d="M242.9,520.3c3.3-0.8,6.5-1.6,9.8-2.3c-1.2-8.7-2.4-17.6-4-28.9c11,12.9,23,14.3,36.3,9.7
		c-6,4.8-11.9,9-19.8,11c-5.3,1.3-0.2,6.9-0.6,10.5C257.4,520.3,250.1,520.3,242.9,520.3z"/>
	<path class="st4" d="M542.2-0.2c-2.7,6-9.6,8.8-13.6,7.9c-6.6-1.4-15.4,0.1-19.6-7.9C520-0.2,531.1-0.2,542.2-0.2z"/>
	<path class="st5" d="M844.6,508.8c0-16,0-31.9,0-47.9c0.6,0.3,1.3,0.5,1.9,0.8c0,15.4,0,30.8,0,46.3
		C845.9,508.2,845.2,508.5,844.6,508.8z"/>
	<path class="st1" d="M844.6,508.8c0.6-0.3,1.3-0.5,1.9-0.8c-0.5,4.1-1,8.2-1.4,12.3c-0.2-3.4-0.4-6.8-0.6-10.1
		C844.5,509.7,844.5,509.2,844.6,508.8z"/>
	<path class="st5" d="M844.4,510.1c0.2,3.4,0.4,6.8,0.6,10.1c-0.2,0-0.5,0-0.7,0C844.4,516.9,844.4,513.5,844.4,510.1z"/>
	<path class="st6" d="M373.4,68.9c5.1,1.6,10.3,3.1,15.4,4.8c1.7,0.6,4.5,0.4,3.4,3.7c-0.9,2.7-2.8,3-5.1,2.3
		c-11.5-3.6-23.1-7-35.4-4.9c5.5-1.3,3.7-6.7,5.7-10C362.6,66.2,368,67.6,373.4,68.9z"/>
	<path class="st7" d="M342.6,154.1c3.2-16,6.3-32,9.5-48c0.5,4.5,0.9,9.1,1.4,13.6c0,0,0,0,0,0c-0.2,0.8-0.4,1.7-0.7,2.5
		c0,0,0,0,0,0c-0.3,0.8-0.6,1.6-0.9,2.4c-0.1,0.2-0.1,0.5-0.2,0.7c-0.1,0.6-0.2,1.2-0.4,1.7C348.4,136.1,345.5,145.1,342.6,154.1z"
		/>
	<path class="st8" d="M79.6,419.1c-8.1,6.5-12.3,14.7-10.8,25.4C62.9,431.9,64.8,422.8,79.6,419.1z"/>
	<path class="st3" d="M360.2,150.1c0.9,0.7,1.8,1.5,2.7,2.2c1,11.6,2.1,23.1,3.1,34.7c-0.4,0-0.9,0.1-1.3,0.1
		C363.2,174.8,361.7,162.4,360.2,150.1z"/>
	<path class="st9" d="M373.4,68.9c-5.4-1.4-10.7-2.7-16.1-4.1c0.3-0.7,0.5-1.5,0.8-2.2c0.4-0.9,0.8-1.7,1.2-2.6
		C363.9,63,368.7,66,373.4,68.9z"/>
	<path class="st10" d="M364.7,187.1c0.4,0,0.9-0.1,1.3-0.1c0.4,2,0.8,4,1.2,5.9c-4.3-1-8.7-1.9-13-2.9c0,0,0.2-0.2,0.2-0.2
		c0.5-0.2,0.9-0.4,1.4-0.7c0,0,0.1-0.2,0.1-0.2s0.2,0.1,0.2,0.1c1.3-0.4,2.6-0.7,3.9-1.1C361.6,187.7,363.1,187.4,364.7,187.1z"/>
	<path class="st11" d="M353.4,119.8c-0.5-4.5-0.9-9.1-1.4-13.6c0,0,0.1-0.1,0.1-0.1c0.7,0,1.3,0,2,0.1c0.5,3.6,1,7.2,1.4,10.8
		C354.9,117.9,354.1,118.8,353.4,119.8z"/>
	<path class="st8" d="M86.5,386.5c-0.4,9.1-0.8,18.2-1.2,27.4C85.7,404.8,86.1,395.6,86.5,386.5z"/>
	<path class="st7" d="M339.8,138.6c0.2,4.4,0.5,8.8,0.7,13.2C337,147.5,338,143.1,339.8,138.6z"/>
	<path class="st3" d="M360,188c-1.3,0.4-2.6,0.7-3.9,1.1C357.4,188.7,358.7,188.3,360,188z"/>
	<path class="st6" d="M359.2,60.1c-0.4,0.9-0.8,1.7-1.2,2.6c0.2-0.9,0.4-1.9,0.6-2.8C358.9,59.8,359.1,59.9,359.2,60.1z"/>
	<path class="st8" d="M84.6,415.4c-0.7,0.6-1.5,1.3-2.2,1.9C83.1,416.7,83.9,416.1,84.6,415.4z"/>
	<path class="st10" d="M354.2,190c-1.4-0.2-2.9-0.4-4.3-0.6c1.5,0,2.9-0.1,4.4-0.1c0,0.2,0,0.3,0.1,0.5L354.2,190z"/>
	<path class="st8" d="M82,417.8c-0.6,0.3-1.2,0.6-1.8,0.9C80.8,418.4,81.4,418.1,82,417.8z"/>
	<path class="st7" d="M340.8,152.2c0.4,0.5,0.8,1,1.2,1.6C341.6,153.2,341.2,152.7,340.8,152.2z"/>
	<path class="st8" d="M69.5,447.1c0.2,0.8,0.4,1.6,0.6,2.4C69.9,448.7,69.7,447.9,69.5,447.1z"/>
	<path class="st8" d="M70.2,449.8c0.2,0.9,0.4,1.7,0.7,2.6C70.7,451.5,70.5,450.7,70.2,449.8z"/>
	<path class="st11" d="M351.9,124.8c0.3-0.8,0.6-1.6,0.9-2.4C352.5,123.2,352.2,124,351.9,124.8z"/>
	<path class="st11" d="M352.8,122.3c0.2-0.8,0.4-1.7,0.7-2.5C353.2,120.6,353,121.5,352.8,122.3z"/>
	<path class="st8" d="M69,444.6c0.1,0.7,0.3,1.3,0.4,2C69.2,445.9,69.1,445.3,69,444.6z"/>
	<path class="st11" d="M351.3,127.2c0.1-0.6,0.2-1.2,0.4-1.7C351.5,126,351.4,126.6,351.3,127.2z"/>
	<path class="st3" d="M354.3,189.8c-0.1-0.2-0.1-0.3-0.1-0.5c0.5-0.1,1-0.1,1.5-0.2C355.2,189.4,354.8,189.6,354.3,189.8z"/>
	<path class="st8" d="M85,414.7c-0.1,0.2-0.3,0.5-0.4,0.7C84.7,415.2,84.9,415,85,414.7z"/>
	<path class="st10" d="M346.9,189.8c-0.2,0.1-0.4,0.2-0.6,0.3C346.5,190,346.7,189.9,346.9,189.8z"/>
	<path class="st10" d="M348.5,189.4c-0.3,0-0.7,0.1-1,0.1C347.8,189.5,348.2,189.4,348.5,189.4z"/>
	<path class="st12" d="M507.5,205.1c1.3,2.5,2.6,5,4,7.7c7.9-12.9,17.6-23.4,31.7-29c1.4,0.5,2.8,0.9,4.1,1.3
		c5.8,3.8,11.5,7.5,17.3,11.3c0,0,0,0,0,0c0.4,0.5,0.7,1,1.1,1.5c0.2-0.2,0.4-0.4,0.6-0.5c0.8,0.9,1.7,1.9,2.5,2.8c0,0,0,0,0,0
		c-0.1,0.4-0.2,0.7-0.3,1.1c0,0,0,0,0,0c0.4-0.1,0.7-0.2,1.1-0.3c0,0,0,0,0,0c1,1,1.9,1.9,2.9,2.9c0,0.2,0.1,0.4,0.1,0.6
		c-2.1,5.6,2.2,9.5,3.8,14.1c0.5,3,1,6,1.5,9.1c-2.3,17.8-12.4,30.6-27.6,42.2c0.8-9.6,1.5-17.8,2.2-25.6c0.2-0.1-0.2,0-0.4,0.3
		c-4.3,6.9-8.5,13.8-12.8,20.8c-5,11.6-8.7,23.4-5.1,36.2c1.2,9.6-7.1,13.7-12,21.9c-3.2-10.7-5.8-19.7-8.4-28.6
		c-2.1-29.6,20.2-60.7,42.1-56.8c-1.8-5.5-3.3-10.4-4.9-15.4c-2.4-4-4.7-8-7.1-12.1c-3,2.8-6,5.5-9,8.3
		c-10.1,9.1-23.2,8.5-35.4,10.9c-2.1-0.1-4.3-0.3-6.4-0.4C499.9,222.3,511.5,218.4,507.5,205.1z"/>
	<path class="st8" d="M603,270.9c3.6-18.3,5.4-36.7,1.3-55.1c-2.2-9.7-13.3-8.4-19.3-13.7c10.7,3.3,21.9,4.6,21.7,21.1
		C606.5,239.3,608.5,255.3,603,270.9z"/>
	<path class="st13" d="M620,305.6c0.1-9.1-6.1-15.3-10.6-22.2C628.3,283.4,616.8,298,620,305.6z"/>
	<path class="st10" d="M564.6,196.4c-5.8-3.8-11.5-7.5-17.3-11.3c2.9,0.5,5.9,1,8.8,1.5c2.8,2.8,5.7,5.6,8.5,8.3
		C564.7,195.4,564.7,195.9,564.6,196.4z"/>
	<path class="st8" d="M564.7,195c-2.8-2.8-5.7-5.6-8.5-8.3C560.5,187.9,563.2,190.8,564.7,195z"/>
	<path class="st8" d="M602.2,283c-0.2-1.1-0.5-2.3-0.7-3.4c0.2-0.9,0.5-1.9,0.7-2.8c0-0.9,0.1-1.9,0.1-2.8c0.2-0.1,0.4-0.1,0.6-0.2
		C602.7,276.8,602.4,279.9,602.2,283z"/>
	<path class="st5" d="M844.4,451.6c-0.2-2.9-0.4-5.8-0.6-8.7C844,445.8,844.2,448.7,844.4,451.6z"/>
	<path class="st8" d="M572.4,203.8c-1-1-1.9-1.9-2.9-2.9c1,0.2,2,0.4,3,0.6C572.5,202.3,572.4,203,572.4,203.8z"/>
	<path class="st8" d="M568.8,200.2c-0.8-0.9-1.7-1.9-2.5-2.8C567.1,198.3,568,199.2,568.8,200.2z"/>
	<path class="st8" d="M581.2,200.5c-1.2-0.4-2.4-0.9-3.6-1.3C578.9,199.6,580,200.1,581.2,200.5z"/>
	<path class="st5" d="M844.4,459.6c0-2.2,0-4.4,0-6.5C844.4,455.2,844.4,457.4,844.4,459.6z"/>
	<path class="st8" d="M584.1,201.9c-0.8-0.3-1.6-0.7-2.4-1C582.5,201.2,583.3,201.5,584.1,201.9z"/>
	<path class="st8" d="M607.2,283c-1.2,0-2.4,0-3.6,0C604.8,283.1,606,283.1,607.2,283z"/>
	<path class="st8" d="M574,199.4c-0.5,0.2-0.9,0.5-1.4,0.7C573.1,199.9,573.5,199.6,574,199.4z"/>
	<path class="st10" d="M565.7,197.9c-0.4-0.5-0.7-1-1.1-1.5C565,196.9,565.3,197.4,565.7,197.9z"/>
	<path class="st13" d="M602.9,273.7c-0.2,0.1-0.4,0.1-0.6,0.2c0.1-0.5,0.2-1.1,0.3-1.6C602.7,272.8,602.8,273.3,602.9,273.7z"/>
	<path class="st8" d="M568.5,201.2c0.1-0.4,0.2-0.7,0.3-1.1c0.3,0.3,0.5,0.5,0.8,0.8C569.2,201,568.8,201.1,568.5,201.2L568.5,201.2
		z"/>
	<path class="st13" d="M282,429.1c-1.4,0.2-2.7,0.4-4.1,0.6c0.3-1.9-0.2-4.6,0.9-5.6c6.8-6.5,10.6-14.6,13.4-23.4
		c0.4-1.4,0.1-2.9,0.2-4.4c-1.3,0-2.8-0.3-4,0.1c-14.4,5.3-30.1,7.8-40.8,21.3c-0.8-4.7,11.1-17.9,21.5-26.5
		c3.1-2.6,10.9-4,7.8-10.4c-6.4-13.2-11.3-1.8-16.5,1.8c0-0.7-0.1-1.3-0.1-2c8.4-11.5,16.8-22.9,26.6-36.3c-8,1.7-12.7,2.8-17.5,3.8
		c0.1-0.2,0.2-0.5,0.4-0.7c0.1-0.3,0.2-0.5,0.3-0.8c0.2-0.5,0.4-0.9,0.6-1.4c7-7.4,11.3-18.9,24.6-16.7c-1.8,4.2-4.5,8.6-5.4,13.2
		c-1.2,6.8-10.3,12.1-4.3,20.4c0.6,0.2,1.2,0.5,1.8,0.7c-0.1,0.8-0.1,1.6-0.2,2.4c-1.8,0.8-3.6,1.6-5.5,2.5
		c-0.5,0.2-0.9,0.4-1.4,0.6l-0.2-0.1c-1.2,0.4-2.4,0.8-9.9,3.2c9.3-0.6,12.1-0.8,14.8-1c8.7,1.6,16.9,0.1,24.7-3.9
		c0.4,0,0.8-0.1,1.2-0.1c1.2-0.2,2.4-0.5,3.6-0.7c2.7-0.5,5.4-1,8.1-1.5c0.6-0.3,1.1-0.6,1.7-0.9c2.8,0.2,6.3-2.5,8,1.2
		c0.5,1.1-1.1,4.2-2.5,5.1c-6.1,3.5-12.6,6.5-18.9,9.7c-5.3,2.4-10.7,4.6-15.8,7.4c-3.3,1.8-6.2,4.6-9.2,6.9c3.6-1,7.1-1.9,10.7-2.9
		c0.7,1.2,1.4,2.4,2.1,3.7l0.1,0.1c0.8,0.6,1.6,1.3,2.4,1.9c7-1.4,14.1-2.9,21-4.3c-0.8-2.8-1.5-5.1-2.1-7.3
		c-0.2-0.6-0.4-1.1-0.6-1.7c-0.4,0.3-0.8,0.6-1.2,0.9c-0.7,0.1-1.5,0.2-2.2,0.3c0-0.5-0.1-0.9-0.1-1.4c0.4-0.5,0.8-0.9,1.3-1.4
		l0,0.1c8-2.8,16.1-5.6,24.1-8.4c0.2,0.4,0.3,0.7,0.5,1.1c-5.8,2.5-11.6,4.9-17.6,7.5c12.6,13.8,19.7-3.1,30-3.9
		c-1.5,3.6-3.2,7.7-4.8,11.6c3.1-1.2,6.6-2.6,9.6-3.8c2.6,2.3,0.1,6.8,4.9,7.2c5.1,0.4,5.3-3.6,6.5-6.7c2.7-6.9,5.3-13.8,7.9-20.7
		c-3.2,22.4-14.4,42-22.6,66.1c17.2-21.4,21.9-44.6,27.8-67.2c2.1,0.1,4.2,0.1,6.4,0.2c0.5,0,0.9,0,1.4-0.1c0.7,0,1.4,0,2.2,0
		c1.2,0.3,2.5,0.7,3.7,1c0,1.1,0,3,0.1,3c21.9,1.3,6.6,18.9,11.9,27.5c1.7,2.8,0.5,7.2,0.7,10.9c-16.8,5.2-30.4,14.8-40.4,29.3
		c-4.2,6.1,2.8,8.8,4.2,13.3c0.4,1.2,3,1.7,4.9,2.6c1.4-18.4,12.6-27.6,26.7-34.3c1-0.5,2.3-0.3,3.5-0.4c-0.4,1.1-0.6,2.3-1.3,3.2
		c-4.9,6.3-9.9,12.5-15.6,19.6c3.8,0.2,5.1,0.3,6.4,0.3c-2.7,6.4-10.3,5.5-14.3,9.5c10.3-0.7,18.8-4.9,23-15.3
		c-2,4.8-4,9.5-6.2,14.6c-0.4-0.4-0.1-0.1-0.1-0.1c28.8-12.1,12.5,14.2,14.6,20.2c5.3,15.3,4.9,32.6,6.8,49.3
		c-39,0-78.3,0-117.7-0.1c-3.4,0-1.9-2.9-1.7-4.7c3-33.6,21.4-56.9,47.4-77.1c8.7-6.7,13-20.9,9.4-35.3
		c-8.3,16.1-23.9,21.8-35.9,31.6c-5.9-4,5.6-11.9-4.5-14c0.4,16.2-17,20.8-22.4,34.5c10.1-6.1,19.4-11.7,32.1-19.4
		c-6.2,23-25.4,35-30.4,59.7c-0.9-6.5-1-7.7-1.2-8.7c-2.5,3.4-5.1,6.9-7.7,10.4c12.8-23.3,4.1-45.3-3.8-67.5
		c8.3-2.3,16.6-4.7,24.8-7c0.8-0.2,1.6-0.9,2.4-1.3c-0.5-0.7-1-1.4-1.5-2c2.4-1.3,4.9-2.4,7.3-3.8c4.9-2.7,9.7-5.6,14.6-8.3
		c-7.4-6.8-12.4-0.4-17.9,3.2c-0.3-3.4-2.5-3.8-4.8-2.4c-9.4,5.5-18.8,11.1-28,17C281.2,424.5,277.8,426.9,282,429.1z"/>
	<path class="st14" d="M454.9,271c2.6-2.6,5.2-5.3,7.7-7.9c1.1,12.2-0.9,24.1-3.6,36c-0.1,0.5-0.2,0.9-0.2,1.4c-8,8.4-8,8.4-7.6,9.4
		c-13,11.2-27.1,23.2-41.3,35.3c-0.8,0.2-1.7,0.5-2.5,0.7c3.7-14.8,15.6-24.8,22.1-37.9c3.1-4.7,6.2-9.3,9.3-14
		C444.1,286.3,449.5,278.7,454.9,271z"/>
	<path class="st15" d="M454.9,271c-5.4,7.7-10.8,15.3-16.1,23c-2.6,1.5-5.2,2.9-7.8,4.4c1.4-15.8,2.8-31.7,4.1-47.5
		c3.7-1.7,7.3-3.4,11-5.1c-0.5,10-1,20-1.4,30c0,0.7,1,2.1,1.2,2c1-0.2,2.5-0.8,2.6-1.4c0.7-10.8,1.3-21.5,1.9-32.3
		c10.6-5.9,21.8-11.1,27.3-23.2c3.8-8.2,7.9-16.3,11.9-24.4c9.7-4.8,21.3-6.2,28.3-15.8c0.6-0.1,1.2-0.2,1.9-0.3
		c-3,8.3-11.6,10.4-17.2,15.8c-0.8,0.8-1.5,1.7-2.2,2.6c0.7,0.4,1.5,0.8,2.2,1.3c-4.4,3.8-8.8,7.5-14.7,12.5
		c5.2-0.5,8.5-0.9,14.1-1.5c-6,6.4-10.7,11.4-15.3,16.4c-1.5-1.9-2.9-3.7-4.8-6.1c-9.4,12.3-24,21.3-23.9,39.5
		c0.3-5.7,0.6-11.5,0.9-17.2c-0.8-0.1-1.5-0.1-2.3-0.2C456,252.8,455.4,261.9,454.9,271z M442.4,257.6c-0.8-1.9,2.4-5.8-2.1-6.1
		c-4.1-0.2-2.9,3.7-3,6c-0.4,9.7-0.6,19.4-0.8,29.1c0,1.2,0.6,2.4,0.9,3.6c0.9-1,2.6-2,2.7-3.1C441.1,277.4,441.7,267.6,442.4,257.6
		z"/>
	<path class="st9" d="M497.8,460.5c0.1-9.5,0.1-19,0.2-28.5c0,6.6,0,13.2,0,19.8c0.5,0,1,0,1.5,0.1c2.4-13.9,4.9-27.9,7.7-43.8
		c-3.1,2.3-4.2,3-5.2,3.8c2-9,4.1-17.9,6.1-26.9c0.1,1.2,0.2,2.5,0.3,3.7c0,2.4,0,4.8-0.1,7.1c-1,8.4-0.3,16.3,6.2,22.7
		c0,0.2,0.1,0.3,0.1,0.5c0.7,1,1.3,2.1,2,3.1c0,0.2,0.1,0.3,0.1,0.5c0.4,0.6,0.9,1.1,1.3,1.7c0,0.2,0.1,0.3,0.1,0.5
		c1,2.5,1.9,1.6,2.7-0.1c0.1-0.5,0.1-0.9,0.2-1.4c0.2-1,0.4-2,0.6-2.9c2-13.2,4.1-26.3,6.1-39.5c1,6.9-4.2,13.7-0.3,20.6
		c1,4.4,2,8.7,3,13.1c0.1,1.9,0.1,3.8,0.2,5.7c0,4.4,0,8.7,0,13.1c-0.5,4.3-1.1,8.6-1.6,13c-0.7,0-1.4,0-2.1,0
		c-0.1-0.4-0.1-0.9-0.2-1.3c-0.2-0.3-0.4-0.6-0.6-0.8c0-0.2-0.1-0.4-0.1-0.6c-0.2-0.2-0.5-0.5-0.7-0.7c-0.2,0-0.4-0.1-0.6-0.1
		c-0.7,0-1.5,0-2.2,0c-0.4,0.1-0.9,0.1-1.3,0.2c-0.3,0.2-0.6,0.4-0.8,0.6c-0.4,0-0.9,0.1-1.3,0.1c-0.3,0.2-0.6,0.4-0.8,0.6
		C511.5,449.7,504.6,455.1,497.8,460.5z"/>
	<path class="st9" d="M513.7,294.6c2.6,8.9,5.3,17.8,8.4,28.6c4.9-8.2,13.2-12.3,12-21.9c1.3-2.6,2.6-5.3,3.9-7.9
		c0.7,7.9,1.3,15.9,2,23.8c0,0.7,0,1.4,0,2.1c0.2,1,0.4,2,0.6,3c0,3.1,0,6.2,0,9.3c-3.2,6.9-0.7,16.5-10.2,20.2
		c-0.9,0.6-1.9,1.1-2.8,1.7c-0.2,0.2-0.5,0.4-0.7,0.6l0,0c-0.2,0.2-0.5,0.5-0.7,0.7l0,0c-3.9,2.1-7.8,4.3-11.7,6.4
		c0-1.5,0-2.9,0-4.4c1-12.7,2-25.4,3-38.1C516.3,310.7,515,302.6,513.7,294.6z"/>
	<path class="st11" d="M527.7,353.5c0.9-0.6,1.9-1.1,2.8-1.7c2.6,0.1,5.1,0.1,7.7,0.2c-0.4,1.2-0.8,2.3-1.2,3.5
		c-0.2,0.3-0.4,0.5-0.6,0.8c-0.1,0.5-0.1,0.9-0.2,1.4c-0.2,0.3-0.4,0.5-0.6,0.8c0,0.2-0.1,0.4-0.1,0.6c-0.2,0.3-0.4,0.5-0.6,0.8
		c0,0.2-0.1,0.4-0.1,0.6c-1.2,2.7-2.3,5.4-3.5,8.1c0,0.2-0.1,0.4-0.1,0.7c-1,3.1-1.9,6.2-2.9,9.3c-0.1,0.5-0.2,1.1-0.2,1.6
		c-0.1,0.3-0.2,0.6-0.2,0.9c-2,13.2-4.1,26.3-6.1,39.5c-0.2,1-0.4,2-0.6,2.9c-0.1,0.5-0.1,0.9-0.2,1.4c-0.9,0-1.8,0-2.7,0.1
		c-0.1-0.1-0.1-0.3-0.1-0.5c-0.4-0.6-0.9-1.1-1.3-1.7c-0.1-0.1-0.1-0.3-0.1-0.5c-0.7-1-1.3-2.1-2-3.1c-0.1-0.1-0.1-0.3-0.1-0.5
		c-2.1-7.6-4.1-15.1-6.2-22.7c0-2.4,0-4.8,0.1-7.1c1.1-5.6,2.2-11.3,3.3-16.9c-0.1-0.2-0.1-0.3,0.1-0.5c0.2-0.6,0.4-1.2,0.6-1.8
		c0.1-0.4,0.1-0.8,0.2-1.1c4.6-4.6,9.1-9.2,13.7-13.7c0,0,0,0,0,0c0.2-0.2,0.5-0.5,0.7-0.7c0,0,0,0,0,0
		C527.3,353.9,527.5,353.7,527.7,353.5z"/>
	<path class="st9" d="M522.7,464.4c-7.1,1.9-6.6,8.4-8,13.6c-3.2,11.7-3.5,23.6-1.5,35.5c0.3,1.6-0.5,3.3-0.7,5
		c-4.3-1.7-10-2.1-12.8-5.2c-13.3-14.7-9.2-31.1-3.1-47.4c18,4.1-1.6,17.8,7.6,24.2c-5-19.4,18.2-23.6,21.4-39.3
		c0.6,0,1.2-0.1,1.8-0.1c-1.5,4.3-3,8.7-4.4,13C522.8,464,522.8,464.2,522.7,464.4z"/>
	<path class="st11" d="M522.9,463.8c1.5-4.3,3-8.7,4.4-13c0.6-1.4,1.2-2.8,1.8-4.3c0.5-4.3,1.1-8.6,1.6-13c2.1-4.4,2.1-8.7,0-13.1
		c-0.1-1.9-0.1-3.8-0.2-5.7c1.2-5,3.2-7,7.5-2.3c2.6,2.9,5.5,5.4,8.2,8.1c0.3,6.5,0.6,13,0.9,19.5c-1.8,6.9-3.6,13.9-5.3,20.8
		c-4.7,7.4-11.8,3.7-18.1,3.9c-0.2,0-0.3-0.1-0.4-0.2C523.2,464.3,523.1,464.1,522.9,463.8z"/>
	<path class="st12" d="M540.1,317.2c-0.7-7.9-1.3-15.9-2-23.8c5.9-3.4,9.2,2,13.5,4c1.9,0.9,3.9,1.9,5.8,2.9c0-1.9-0.2-3.9,0-5.8
		c0.5-3.7,1.2-7.5,1.8-11.2c2.7-4.9,5.4-9.8,8.1-14.8c1.1-1.3,2.3-2.6,6.7-7.8c-4.1,18.3-7.2,31.9-10.7,47.6
		c-2.3-3.6-3.1-4.9-5.7-8.8c6.4,22.7,5.6,42.3-1,61.7c-0.5,0.5-1,1-1.5,1.4c3.1-14,7.6-28,2.1-42.3c-1.9-5-2.3-11.3-8.7-13.2
		c-0.3-0.1-2.2,2.4-1.9,3.1C549.2,317.3,546.2,318.6,540.1,317.2z"/>
	<path class="st16" d="M406.8,434.8c-4.2,10.4-12.7,14.6-23,15.3c3.9-4,11.6-3.2,14.3-9.5c-1.3-0.1-2.7-0.1-6.4-0.3
		c5.7-7.1,10.7-13.3,15.6-19.6c0.7-0.9,0.9-2.1,1.3-3.2c-1.2,0.1-2.5,0-3.5,0.4c-14.1,6.8-25.3,16-26.7,34.3
		c-1.9-0.9-4.5-1.4-4.9-2.6c-1.3-4.4-8.4-7.2-4.2-13.3c10-14.5,23.6-24.1,40.4-29.3c0.9,8.2,4.1,16.4-1,24.3
		c-0.2,0.3-0.3,0.6-0.5,0.8c-0.1,0.2-0.2,0.4-0.2,0.6c-0.2,0.3-0.3,0.6-0.5,0.8C407.1,434,407,434.4,406.8,434.8z"/>
	<path class="st9" d="M555.2,362.7c0.5-0.5,1-1,1.5-1.4c-0.9,3.9-1.9,7.9-2.8,11.8c-0.2,2.5-0.5,5-0.6,7.5
		c-0.5,11.4-4.2,22.8-0.1,34.2c-0.4,1.1-0.8,2.3-1.6,4.5c-0.9-2.2-1.4-3.3-1.4-3.2c-0.9,7.3-1.9,15.7-2.8,24
		c-0.3-6.5-0.6-13-0.9-19.5c1.2-9.7-8.5-13.5-11.4-21c2.2,1.4,4.5,2.7,6.7,4.1c2,1.2,4,2.4,5.9,3.6c-0.3-2.4-0.3-5-1.1-7.2
		c-2.3-6.6-1-12.3,2.9-17.9c1.1-1.5,1.2-3.8,1.8-5.7c-2.2,0.8-4.8,1.1-6.5,2.5c-4.2,3.6-8.5,0.9-12.7,0.8c0.6-2.7,1.3-5.5,1.6-8.2
		c0.1-0.7-1.5-1.5-2.3-2.3c0-0.2,0-0.4,0.1-0.7c1.2-2.7,2.3-5.4,3.5-8.1c0-0.2,0.1-0.4,0.1-0.6c0.2-0.3,0.4-0.5,0.6-0.8
		c0.1-0.2,0.1-0.4,0.1-0.6c0.2-0.3,0.4-0.5,0.6-0.8c0.1-0.5,0.1-0.9,0.2-1.4c0.2-0.3,0.4-0.5,0.6-0.8c0.4-1.2,0.8-2.3,1.2-3.5
		c0.6,3.8,1.2,7.6,1.8,11.5c0.1,2.1,0.1,4.3,0.2,6.4c0.6,1.6,1.2,3.1,1.8,4.7c0.9,0.2,1.7,0.4,2.6,0.7c0.7-0.8,1.4-1.6,2-2.4
		c0.3-0.4,0.6-0.8,0.9-1.2c0.7-0.8,1.4-1.6,2-2.4C551.3,367,553.3,364.9,555.2,362.7z"/>
	<path class="st11" d="M525.6,450.9c-3.2,15.7-26.4,19.9-21.4,39.3c-9.2-6.5,10.4-20.2-7.6-24.2c0.2-1.2,0.4-2.4,0.7-3.7
		c0.1-0.2,0.3-0.5,0.4-0.7c0.1-0.4,0.1-0.7,0.2-1.1c6.8-5.4,13.6-10.8,20.5-16.2c0.3-0.2,0.6-0.4,0.8-0.6c0.4,0,0.9-0.1,1.3-0.1
		c0.3-0.2,0.6-0.4,0.8-0.6c0.4-0.1,0.9-0.1,1.3-0.2c0.7,0,1.5,0,2.2,0c0.2,0.1,0.4,0.1,0.6,0.1c0.2,0.2,0.5,0.5,0.7,0.7
		c0,0.2,0.1,0.4,0.1,0.6c0.2,0.3,0.4,0.6,0.6,0.8c0.1,0.4,0.1,0.9,0.2,1.3C526.6,448,526.1,449.4,525.6,450.9z"/>
	<path class="st17" d="M409.9,345.2c14.1-12.1,28.2-24.1,41.3-35.3c-0.4-1-0.4-1,7.6-9.4c-6,10.3-11.9,20.7-17.9,31
		c-0.2,0.1-0.3,0.2-0.4,0.3c-0.2,0.2-0.4,0.4-0.5,0.7c-2.7,2-5.5,3.9-8.2,5.9c-0.3,0.2-0.5,0.3-0.8,0.5c-0.2,0-0.4,0.1-0.6,0.2
		C423.5,341.1,416.7,343.1,409.9,345.2z"/>
	<path class="st9" d="M539.3,265.1c4.2-6.9,8.5-13.9,12.8-20.8c0.2-0.3,0.6-0.4,0.4-0.3c-0.7,7.9-1.4,16-2.2,25.6
		c15.2-11.5,25.3-24.3,27.6-42.2c0.8,12.3-2.6,23.5-10.4,32.6C559.9,268.9,551.1,277.2,539.3,265.1z"/>
	<path class="st6" d="M535.7,518.3c-13.6,2.6-22.2-8.5-19.1-24.4C523.6,494.3,531.4,504.2,535.7,518.3z"/>
	<path class="st2" d="M486.6,227.7c4.7-5,9.4-10,15.3-16.4c-5.6,0.6-8.8,0.9-14.1,1.5c5.9-5,10.3-8.8,14.7-12.5
		c5.1-1.8,4.4,2.2,4.9,4.9c4,13.3-7.6,17.1-14.5,23.9c0,0,0,0,0,0c-0.5,0.2-1,0.5-1.5,0.7c-0.1,0.1-0.2,0.2-0.3,0.3
		C489.9,228.9,486.6,231.5,486.6,227.7z"/>
	<path class="st7" d="M409.9,345.2c6.8-2,13.6-4.1,20.4-6.1c-7,8.3-20.9,10.1-22.5,23.6c-1.3-1.2-2.6-2.4-3.8-3.6
		c1.2-2.2,5.7-5.8,2.4-6.5c-9.9-1.9-19.8-0.8-23.3,11.5c-1-0.3-2.1-0.7-3.1-1c1.5-4.8,3.1-9.6,4.6-14.4c0.5,0.1,1,0.1,1.4,0.2
		c-0.1,1.4-0.1,2.7-0.2,4.4c7.4-2.6,14.5-5.1,21.6-7.5C408.2,345.6,409,345.4,409.9,345.2z"/>
	<path class="st13" d="M330.7,449.7c-4.6-14.9,8.6-19.2,16.1-27c0.3-0.3,1.8,0,2,0.3c0.7,1.3,1.8,3.3,1.3,4.1
		C345.1,436,339.6,444.7,330.7,449.7z"/>
	<path class="st18" d="M517.6,318.7c-1,12.7-2,25.4-3,38.1c-0.7,0.9-1.4,1.8-3.2,4.3c-1.8-16.2-1.6-30.5,3-44.9
		C515.9,317.3,516.7,318,517.6,318.7z"/>
	<path class="st11" d="M553.1,414.8c-4-11.4-0.4-22.8,0.1-34.2c0.1-2.5,0.4-5,0.6-7.5c1.1-0.8,2.2-1.7,3.8-2.9
		c1.1,15.1,0.6,29.2-4,43c-0.1,0.3-0.2,0.7-0.3,1C553.2,414.4,553.2,414.6,553.1,414.8z"/>
	<path class="st9" d="M537.3,510.5c-2-13.7-2.7-27.3,4.8-43.7C545.5,484.5,539.1,497.2,537.3,510.5z"/>
	<path class="st6" d="M502,411.9c1-0.7,2-1.5,5.2-3.8c-2.8,15.9-5.2,29.8-7.7,43.8c-0.5,0-1,0-1.5-0.1c0-6.6,0-13.2,0-19.8
		C499.4,425.4,500.7,418.6,502,411.9z"/>
	<path class="st19" d="M310.2,471.1c-4.8,16.4-9.7,32.8-14.5,49.2c-1.6-0.6-3.2-1.3-4.8-1.9c6.2-15.9,12.3-31.9,18.5-47.8
		C309.7,470.7,309.9,470.9,310.2,471.1z"/>
	<path class="st10" d="M440.8,331.5c6-10.3,11.9-20.7,17.9-31c0.1-0.5,0.2-0.9,0.2-1.4c1.4-2.4,2.8-4.9,4.3-7.3
		C461.9,308.4,456,322.6,440.8,331.5z"/>
	<path class="st7" d="M534.8,218.6c3-2.8,6-5.5,9-8.3c2.4,4,4.7,8,7.1,12.1c-5.6,0.8-11.3,1.6-17.3,2.4
		C534.1,222.2,534.5,220.4,534.8,218.6z"/>
	<path class="st6" d="M523.8,464.8c6.3-0.2,13.4,3.5,18.1-3.9C538.6,474.7,532.1,473.7,523.8,464.8z"/>
	<path class="st17" d="M463.3,291.8c-1.4,2.4-2.8,4.9-4.3,7.3c2.8-11.8,4.8-23.7,3.6-36C462.8,272.7,463,282.2,463.3,291.8z"/>
	<path class="st20" d="M404,359.1c1.3,1.2,2.6,2.4,3.8,3.6c-2,6.8-7.5,1.1-10.9,2.9c-1.2-0.3-2.5-0.7-3.7-1
		C396.8,362.8,400.4,361,404,359.1z"/>
	<path class="st18" d="M526.3,354.8c-4.6,4.6-9.1,9.2-13.7,13.7c0.7-2.4,1.3-4.9,2-7.3C518.5,359.1,522.4,356.9,526.3,354.8z"/>
	<path class="st7" d="M576.4,218.4c-1.6-4.6-5.9-8.5-3.8-14.1C579,207.7,575.9,213.5,576.4,218.4z"/>
	<path class="st9" d="M567.4,268.6c-2.7,4.9-5.4,9.8-8.1,14.8C558.4,276.5,561.9,272,567.4,268.6z"/>
	<path class="st18" d="M511.7,371.9c-1.1,5.6-2.2,11.3-3.3,16.9c-0.1-1.2-0.2-2.5-0.3-3.7C509.3,380.6,510.5,376.2,511.7,371.9z"/>
	<path class="st2" d="M493,229c2.1,0.1,4.3,0.3,6.4,0.4c-2.7,0.2-5.5,0.4-8.2,0.6c0.1-0.1,0.2-0.2,0.3-0.3
		C492.1,229.5,492.6,229.2,493,229C493,229,493,229,493,229z"/>
	<path class="st13" d="M602.2,276.7c-0.2,0.9-0.5,1.9-0.7,2.8C601.7,278.6,602,277.7,602.2,276.7z"/>
	<path class="st18" d="M512.4,369.6c-0.2,0.6-0.4,1.2-0.6,1.8C512,370.8,512.2,370.2,512.4,369.6z"/>
	<path class="st7" d="M430.9,338.9c0.3-0.2,0.5-0.3,0.8-0.5C431.4,338.6,431.1,338.7,430.9,338.9z"/>
	<path class="st10" d="M439.8,332.5c0.2-0.2,0.4-0.4,0.5-0.7C440.2,332,440,332.3,439.8,332.5z"/>
	<path class="st9" d="M553.3,414.2c0.1-0.3,0.2-0.7,0.3-1C553.5,413.5,553.4,413.9,553.3,414.2z"/>
	<path class="st9" d="M497.6,461.6c-0.1,0.2-0.3,0.5-0.4,0.7C497.4,462.1,497.5,461.8,497.6,461.6z"/>
	<path class="st6" d="M522.9,463.8c0.2,0.3,0.3,0.5,0.5,0.8c0,0-0.4,0-0.4,0s-0.3-0.1-0.3-0.1C522.8,464.2,522.8,464,522.9,463.8z"
		/>
	<path class="st13" d="M408,432.2c0.2-0.3,0.3-0.6,0.5-0.8C408.3,431.7,408.2,431.9,408,432.2z"/>
	<path class="st13" d="M407.3,433.7c0.2-0.3,0.3-0.6,0.5-0.8C407.6,433.1,407.5,433.4,407.3,433.7z"/>
	<path class="st21" d="M270.5,345.3c-0.2,0.5-0.4,0.9-0.6,1.4c-0.1,0.3-0.2,0.5-0.3,0.8c-0.1,0.2-0.2,0.5-0.4,0.7
		c-3.3,7.5-6.5,14.9-9.8,22.4c-0.1,0.2-0.2,0.4-0.2,0.6c-0.3,0.6-0.7,1.2-1,1.8c-0.1,0.4-0.3,0.8-0.4,1.1
		c-8.9,11.9-7.7,27.8-17.6,45.7c0.9-10,1.3-14,1.9-20.2c-5.3,8.9-3.7,17.1-4.7,24.8c-0.8,4.8-0.9,9.9-2.4,14.5
		c-4.1,12.3,1.4,26.7-8,37.8c-0.7,0.1-1.4,0.1-2.1,0.2c-0.4,0-0.9,0-1.3,0c-2.1,0.6-4.2,1.2-6.2,1.8c11.6-48,6.7-96.6,8.5-144.8
		c0.4-11.4-1.8-24.6,12-31.2c12.3-5,24.6-10.1,37-15.1c4.8-1.3,9.6-2.6,14.4-3.9c3.7-0.8,7.3-1.7,11-2.5c-1,1.9-1.5,4.4-3.1,5.7
		c-6.7,5.7-13.7,11.1-22.7,18.2c6.2-1.1,9.4-1.7,12.6-2.2c0,0.3,0.1,0.6,0.1,0.9C277.5,315.9,274.4,330.8,270.5,345.3z"/>
	<path class="st4" d="M306.6,205.1c0.5-0.2,1-0.3,1.5-0.5c0.7-0.1,1.4-0.2,2.1-0.3c0.4-0.1,0.8-0.1,1.1-0.2c1.1-0.2,2.2-0.4,3.3-0.7
		c2.2-0.4,4.3-0.8,6.5-1.2c0.7-0.1,1.4-0.2,2.2-0.3c7.5-1.2,14.9-2.3,22.4-3.5c0.7,0,1.4-0.1,2.2-0.1c6.3-0.5,12.7-0.9,19-1.4
		c0.3,1.5,0.6,2.9,0.9,4.4c-4.3,10.6-15.9,13.8-22.3,22.2c-1.9,2-3.8,4.1-5.8,6.1c-10.2,13.9-20.5,27.9-30.7,41.8
		c-6.6,3.2-13.1,6.4-19.7,9.7c-4.8,1.4-9.7,2.9-14.5,4.3c-1-0.3-1.9-0.6-2.9-0.9c0,0,0,0,0,0c0-3.9,0-7.7,0-11.6
		c0.3-0.5,0.7-0.9,1-1.4c5-3.7,10.1-7.4,14-10.2c-2-6.8-3.8-12.8-5.6-18.8c2.9-1.6,5.7-3.1,8.6-4.7c-6.1-5.7-12.6-9-20.8-7.4
		c-0.1-5.2-4.4-11,2.1-15.3c4.8-2.1,9.7-4.1,14.5-6.2c1.4-0.3,2.9-0.6,4.3-0.9c0.5-0.1,1-0.2,1.5-0.3c0.7-0.1,1.4-0.3,2.2-0.4
		C297.9,206.6,302.2,205.9,306.6,205.1z"/>
	<path class="st19" d="M52.2,473.6c13.6-6.8,27.2-13.6,40.8-20.5c2.6-1.3,3.6-0.9,4.8,2.2c8.4,21.6,6.1,41.7-6.7,60.9
		c-1.5,2.3-2.5,1.8-5.6-2C74.7,500.9,63.8,487.7,52.2,473.6z"/>
	<path class="st17" d="M367.7,201.5c-0.3-1.5-0.6-2.9-0.9-4.4c0.1-1.4,0.3-2.8,0.4-4.2c-0.4-2-0.8-4-1.2-5.9
		c-1-11.6-2.1-23.1-3.1-34.7c0.1-2.1,0.1-4.2,0.2-6.4c6-1.8,7,1.5,6.6,6.4c0,14.3,0,28.6,0,42.9c1.2,0,2.4,0,3.5-0.1
		c-0.7-14.2-1.4-28.5-2.2-42.7c2.6-1.3,5.2-2.5,7.8-3.8c14.7,20.2-2.2,36.3-5.8,53.8c-2.1-0.5-3.2-0.7-4.2-1
		C368.4,201.5,368,201.5,367.7,201.5z"/>
	<path class="st10" d="M272.8,271.7c-0.3,0.5-0.7,0.9-1,1.4c-0.2,0-0.4,0-0.6,0c-0.7-14-1.4-28-2.2-42c1,1,2.3,1.9,2.9,3.1
		c3.2,6.9,6.3,14,9.4,21C275.3,259.1,269.9,263.3,272.8,271.7z"/>
	<path class="st7" d="M271.8,284.7c1,0.3,1.9,0.6,2.9,0.9c0,0.6,0,1.3,0,1.9c-12.3,5-24.6,10.1-37,15.1c10.5-7,21-14,31.4-20.8
		c0.4,0.9,1.2,2.8,2,4.8C271.4,285.9,271.6,285.3,271.8,284.7z"/>
	<path class="st22" d="M281.3,255.1c-3.1-7-6.2-14-9.4-21c-0.6-1.2-1.9-2-2.9-3.1c-0.1-0.2-0.1-0.3,0-0.5c8.2-1.6,14.8,1.8,20.8,7.4
		c-2.9,1.6-5.7,3.1-8.6,4.7C274.5,246.9,282.7,250.9,281.3,255.1z"/>
	<path class="st23" d="M226.9,476.6c9.4-11.2,3.9-25.5,8-37.8c1.5-4.6,1.7-9.6,2.4-14.5c-0.3,4.6-0.5,9.1-0.8,13.7
		c-0.9,5.5-1.7,10.9-2.6,16.4c-0.4,7.5-0.7,14.9-1.1,22.4C230.9,476.8,228.9,476.7,226.9,476.6z"/>
	<path class="st5" d="M231.8,489.8c-3.8,6.2-8.8,11.9-9.1,19.7c-4.4-7.7,3.7-13.4,3.4-20.5c0.4-0.6,0.7-1.3,1.1-1.9
		c1.3-0.4,2.6-0.9,3.9-1.3C231.3,487.1,231.5,488.4,231.8,489.8z"/>
	<path class="st23" d="M226,489c0.4,7.1-7.8,12.8-3.4,20.5c1.2,1.7,2.4,3.4,3.6,5C208.5,506.2,226.8,497.5,226,489z"/>
	<path class="st5" d="M285.6,209c-4.8,2.1-9.7,4.1-14.5,6.2C273.5,207.3,280.8,211.2,285.6,209z"/>
	<path class="st23" d="M231.8,489.8c-0.3-1.3-0.5-2.7-0.8-4c-1.3,0.4-2.6,0.9-3.9,1.3c2-1.8,4.1-3.6,6.1-5.4
		c0.4,3.4,0.8,6.8,1.4,11.7C233.1,491.4,232.5,490.6,231.8,489.8z"/>
	<path class="st5" d="M306.6,205.1c-4.3,0.8-8.7,1.6-13,2.3C297.9,206.6,302.2,205.9,306.6,205.1z"/>
	<path class="st7" d="M271.1,273c0.2,0,0.4,0,0.6,0c0,3.9,0,7.7,0,11.6C271.6,280.8,271.4,276.9,271.1,273z"/>
	<path class="st5" d="M314.5,203.6c-1.1,0.2-2.2,0.4-3.3,0.7C312.4,204,313.4,203.8,314.5,203.6z"/>
	<path class="st5" d="M310.1,204.4c-0.7,0.1-1.4,0.2-2.1,0.3C308.7,204.5,309.4,204.5,310.1,204.4z"/>
	<path class="st5" d="M347.7,198.6c-0.7,0-1.4,0.1-2.2,0.1C346.3,198.6,347,198.6,347.7,198.6z"/>
	<path class="st5" d="M323.2,202.1c-0.7,0.1-1.4,0.2-2.2,0.3C321.8,202.3,322.5,202.2,323.2,202.1z"/>
	<path class="st5" d="M291.4,207.9c-0.5,0.1-1,0.2-1.5,0.3C290.4,208.1,290.9,208,291.4,207.9z"/>
	<path class="st23" d="M223.5,476.8c0.5,0,0.9,0,1.3,0C224.4,476.8,223.9,476.8,223.5,476.8z"/>
	<path class="st20" d="M368.7,201.5c1.1,0.2,2.1,0.5,4.2,1c3.6-17.5,20.5-33.7,5.8-53.8c6.1-3.1,12.2-5.6,19.2-3.3
		c-1.1,2.8-2.2,5.7-3.3,8.5c-1.6,5.7-4.7,11.5-4.5,17.2c0.2,6.4,3.4,12.7,5.3,19.1c1-0.4,1.9-0.8,2.9-1.2
		c6.2-3.8,12.4-7.5,18.7-11.3c0.5-0.4,1-0.8,1.5-1.2c-0.5-0.5-1-1.1-1.5-1.6c-0.7-0.4-1.4-0.8-2-1.2c-2.2-0.1-4.4-0.1-6.7-0.2
		c-0.2,0-0.4,0-0.6-0.1c-3-0.7-6-1.4-9.7-2.2c3.6-3.5,4.9-7.6,3.3-12.2c0-4.1,0-8.2-0.1-12.3c0.9-3.6,3.3-3.4,6-2.4
		c8.4,3.1,16.8,6.3,25.2,9.4c0.8,0.3,1.7,0.6,2.5,0.8c2.2,0.3,4.4,0.5,6.6,0.8c20.5,6.7,22.3,12.4,10,29.3
		c-5.4,7.4-10,15.3-15.7,22.4c-6.8,8.5-12.2,20.3-27.1,14.2c-3.8-1.5-8.2-1.4-12.3-2.1c-0.4-0.3-0.7-0.7-1.1-1
		c0.1-0.5,0.3-1,0.4-1.5c1.5-2.5,2.9-4.9,4.4-7.4c0.8-0.3,1.5-0.7,2.3-1c0.4,0.1,0.8,0.2,1.2,0.3c0.8,0.4,1.6,0.8,2.4,1.2
		c0.3,0.2,0.6,0.3,0.9,0.5c0.4,0.2,0.9,0.5,1.3,0.7c0.8,0.5,1.5,1,2.3,1.5c1.6,1,3.3,2.1,4.9,3.1c0.3,0.3,0.5,0.6,0.8,0.9
		c0.2-0.3,0.5-0.6,0.7-1c2-1.7,4.8-3.7,1.7-6.3c-8.4-7.3-18.4-11.3-29.2-13.4c-1.3-0.3-2.8,0.4-4.3,0.7c0.4,1.5,0.8,3.1,1.2,4.6
		c6.3,3.9,1.5,8.4,0.7,12.7c-4.3,0.5-1.4-3.9-3.6-5.2c-3.9,9.5-3.2,20.5-10.1,28.9c-0.6-0.8-1-1.3-1.4-1.9c-0.9-8.5-1.7-17-2.6-25.5
		c-0.1-1.4-0.2-2.8-0.2-4.2c-0.2-0.7-0.3-1.4-0.5-2.1C368.8,203,368.8,202.2,368.7,201.5z"/>
	<path class="st24" d="M489.6,196.6c-4,8.1-8.2,16.2-11.9,24.4c-5.5,12.1-16.7,17.3-27.3,23.2c-1.4,0.5-2.9,1.1-4.3,1.6
		c-3.7,1.7-7.3,3.4-11,5.1c-1.7,0.6-3.4,1.2-5,1.8c-1,0.5-1.9,1-2.9,1.6c-0.6,0-1.3,0-1.9-0.1c0.5-1.6,0.9-3.2,1.5-4.7
		c5.7-16.3,18.3-28.3,26.7-42.9c3.9-10.1,7.8-20.2,11.7-30.3c3.7-13.7,15.9-18.1,26.5-24.4c0.5-0.1,1-0.2,1.5-0.3
		c0.5-0.2,0.9-0.3,1.4-0.5c2.1-0.4,4.1-0.8,6.6-1.3c-1,3.8-1.7,7-3.2,12.7c7.7-8.3,13.8-14.5,19.4-21c6.9-8.2,10.8-4.9,13.8,3.1
		c-0.6-0.3-1.2-0.6-1.9-0.9c-1.8-2.3-3.7-4-6.5-1.3c-5.5,9.2-11,18.3-16.5,27.5c-0.1,0.1-0.2,0.3-0.3,0.5c-0.4,0.6-0.8,1.1-1.2,1.7
		c-0.1,0.1-0.2,0.3-0.3,0.5c-0.4,0.6-0.8,1.1-1.2,1.7c-0.1,0.1-0.2,0.3-0.3,0.5c-0.4,0.5-0.8,1.1-1.2,1.6c-1.9,2.9-3.7,5.7-5.6,8.6
		C494,188.8,491.8,192.7,489.6,196.6z"/>
	<path class="st17" d="M491.6,151.9c-10.5,6.3-22.8,10.7-26.5,24.4c-1,0-2.7-0.3-2.8-0.1c-3.1,10.1-6,20.3-8.9,30.4
		c-8.4,14.6-21,26.6-26.7,42.9c-0.5,1.6-1,3.1-1.5,4.7c-4.1,1.6-8.2,3.1-12.3,4.7c-10.7-1-21.3-2.1-32-3.1c-1.1-0.6-2.3-1.1-3.4-1.7
		c2.6-5.3,5.2-10.5,7.8-15.8c0.6,1.8,1.1,3.6,1.7,5.4c-1.2-19.8,19.6-10.3,25.4-19.9c-5.1-1.6-10.4-3.2-15.8-4.9
		c4.1,0.7,8.5,0.6,12.3,2.1c14.9,6,20.2-5.8,27.1-14.2c5.7-7.1,10.3-15,15.7-22.4c12.3-16.9,10.5-22.6-10-29.3c0-0.4,0-0.7,0.1-1.1
		c9.6,0.7,19,1.7,23.5,11.7C473.7,160,481.1,153,491.6,151.9z"/>
	<path class="st25" d="M446.7,85.1c-0.6-4.6-1.2-9.2-1.8-13.8c1.9-4.8,3.8-9.6,5.6-14.4c0.7,0,1.3,0,2,0c-1.2,6.7-2.1,13.5-3.8,20
		c-1.9,7,3.7,5.1,6.5,5.7c3.1,0.6,7.9,3.6,8.8-3.1c3.1-2.9,6.2-5.9,9.3-8.8c1.2-0.7,3-1.3,3.4-2.3c2.8-7.9,5.4-15.9,8-23.8
		c2.4,15.7-6.3,29.9-6,45.3C468.1,88.3,457.4,86.7,446.7,85.1z"/>
	<path class="st18" d="M423.7,54.1c-1.7,6.7-5.6,11.3-12.6,12.4c-7.2,1.2-7.1,4.1-3,9.4c-1.4-0.9-3.5-1.5-4.2-2.8
		c-7.8-13.8-3.6-25.4,6.8-35.8c-2,4.6-4,9.2-9,20.8C412.8,43.2,418.9,43.8,423.7,54.1z"/>
	<path class="st12" d="M446.7,85.1c10.7,1.6,21.4,3.2,32,4.8c0.4,0,0.8,0.1,1.2,0.1c2.4,0.3,4.9,0.6,7.3,0.9
		c5.1,1.7,16,0.5,14.8,2.9c-3.3,6.7-11.5,1.7-17.5,1.2c-13.6-1.2-27.2-3.3-40.7-5.1c-1.2-0.2-2.4-0.4-3.6-0.6
		c-0.5-0.1-1-0.1-1.5-0.2c-0.5-0.7-1-1.4-1.5-2C439.2,80.9,443.8,86.7,446.7,85.1z"/>
	<path class="st26" d="M484.7,44.6c-2.6,8-5.2,15.9-8,23.8c-0.4,1-2.2,1.5-3.4,2.3c2.3-3.1,1.9-4.7-1.7-7.1c-9.5-6.2-9.9-15.3-6-25
		c0.6-1.6,2.3-2.8,3.5-4.2c-0.3,2.8,0,5.8-0.9,8.3c-2.5,6.6,2.6,10.1,6.4,11.4c3.5,1.2,2.9-5,4.8-7.5c2-2.7-1.2-8.9,5.6-8.4
		C484.8,40.3,484.8,42.4,484.7,44.6z"/>
	<path class="st26" d="M450.6,56.9c-1.9,4.8-3.8,9.6-5.6,14.4c0-0.6,0-1.3,0-1.9c0.2-0.5,0.4-1,0.5-1.5c3.2-13.8,5.5-27.8,9.9-41.2
		c1.7-5,8-0.1,12.1,0.5c5.5,0.8,10.8,2.9,16.2,4.4c-3.9-0.2-7.8-0.4-11.7-0.7c-9.3-3-9.6,4.2-10.8,9.8c-0.9-0.6-1.6-1.1-2.3-1.6
		C456.1,45.1,453.3,51,450.6,56.9z"/>
	<path class="st25" d="M471.9,30.9c3.9,0.2,7.8,0.4,11.7,0.7c2.4,1.3,7.5-0.2,6.4,6.2c-2.4-1.8-4-3-6.9-5.1c0.8,2.8,1.2,4.2,1.6,5.5
		c-6.8-0.6-3.5,5.7-5.6,8.4c-1.9,2.5-1.3,8.7-4.8,7.5c-3.8-1.3-8.8-4.9-6.4-11.4c0.9-2.5,0.6-5.5,0.9-8.3
		C470,33.2,471,32.1,471.9,30.9z"/>
	<path class="st17" d="M423.7,54.1c-4.8-10.3-10.9-10.9-22.1,4.1c5-11.6,7-16.2,9-20.8c0,0,0,0,0,0c0.8-1.2,1.6-2.3,2.4-3.5
		c8.8,0.8,15.8,5.9,23.2,9.9c0.7,0.4,0.7,1.8,1,2.8c-0.6-0.2-1.2-0.4-1.8-0.5c-0.3-0.3-0.6-0.5-0.9-0.8c0,0,0,0,0,0
		c-2.1-1.2-4.6-3.7-6.4-3.2c-3.8,1-2.2,4.9-2.4,7.7C425.1,51.2,424.4,52.7,423.7,54.1z"/>
	<path class="st6" d="M437.3,87.2c0.5,0.7,1,1.4,1.5,2c-14.4-2.6-28.7-5.1-43.1-7.8c-0.9-0.2-1.5-1.9-2.2-2.9
		c1.2-0.8,2.5-2.4,3.5-2.2c12.1,2.3,24.3,4.7,36.3,7.4C434.9,84.1,436,86,437.3,87.2z"/>
	<path class="st10" d="M529.2,143.6c0.6,0.3,1.2,0.6,1.9,0.9c0.3,6.8,0.5,13.5,0.8,20.3c-1.1,0.7-2.2,1.4-3.3,2.2
		c-0.8-0.8-1.5-1.5-2.3-2.3c-2-2.4-4-4.8-6-7.2c-0.2-0.2-0.4-0.4-0.6-0.6c-2.8-5.3,0.4-9.2,3-13.3
		C524.9,143.4,527,146.8,529.2,143.6z"/>
	<path class="st23" d="M401.4,158.9c1.6,4.7,0.2,8.7-3.3,12.2c3.7,0.8,6.7,1.5,9.7,2.2c-4.8,1-11.5-2.5-14.1,2.8
		c-1.9,3.9-0.6,9.9,4.7,12.8c-1,0.4-1.9,0.8-2.9,1.2c-1.9-6.4-5.1-12.7-5.3-19.1c-0.2-5.7,2.9-11.5,4.5-17.2
		C394.9,158.2,395.6,161.9,401.4,158.9z"/>
	<path class="st10" d="M398,145.3c-7-2.3-13.2,0.2-19.2,3.3c-2.6,1.3-5.2,2.5-7.8,3.8c-0.5,0-0.9-0.1-1.4-0.1
		c0.5-4.9-0.6-8.1-6.6-6.4c11.6-1.1,23.3-2.1,34.9-3.2C398,143.6,398,144.4,398,145.3z"/>
	<path class="st14" d="M519.8,180.5c-0.6,0.1-1.2,0.2-1.9,0.3c-1.3,0.5-2.5,1.1-3.9,1.5c-5,1.5-7.9,8.6-14.6,5.4
		c5.1-3.3,10.2-6.7,15.3-10c1.8-0.6,3.6-1.1,5.3-1.6c0.2,1.1,0.4,2.1,0.6,3.1C520.3,179.6,520.1,180.1,519.8,180.5z"/>
	<path class="st2" d="M520.6,179.1c-0.2-1-0.4-2-0.6-3.1c-1.7,0.5-3.5,1.1-5.3,1.6c4.6-3.6,9.2-7.1,13.8-10.7
		c1.1-0.7,2.2-1.4,3.3-2.2C532.6,173.1,524.2,174.2,520.6,179.1z"/>
	<path class="st23" d="M432.5,153.6c-8.4-3.1-16.8-6.3-25.2-9.4c-2.7-1-5.1-1.2-6,2.4c-2-3.7,0.1-6,3.2-4.8
		C414.1,145.2,423.2,149.6,432.5,153.6z"/>
	<path class="st6" d="M425.8,49.8c0.2-2.8-1.4-6.8,2.4-7.7c1.7-0.4,4.2,2,6.4,3.2c-1.9-0.8-3.8-1.7-5.9-2.5
		C427.7,45.3,426.7,47.6,425.8,49.8z"/>
	<path class="st13" d="M467,135.5c-1.9,0.6-3.7,1.2-5.6,1.8c-0.2-1.3-0.3-2.6-0.6-5.2C463.3,133.5,465.1,134.5,467,135.5z"/>
	<path class="st23" d="M441.8,154.2c0,0.4,0,0.7-0.1,1.1c-2.2-0.3-4.4-0.5-6.6-0.8C437.1,150.2,439.5,153.5,441.8,154.2z"/>
	<path class="st25" d="M487.2,91c-2.4-0.3-4.9-0.6-7.3-0.9C482.4,90.3,484.8,90.7,487.2,91z"/>
	<path class="st18" d="M413,34c-0.8,1.2-1.6,2.3-2.4,3.5C411.4,36.3,412.2,35.1,413,34z"/>
	<path class="st6" d="M440.3,89.5c1.2,0.2,2.4,0.4,3.6,0.6C442.7,89.8,441.5,89.6,440.3,89.5z"/>
	<path class="st17" d="M494.5,151.1c-0.5,0.2-0.9,0.3-1.4,0.5C493.6,151.5,494,151.3,494.5,151.1z"/>
	<path class="st25" d="M445.5,67.8c-0.2,0.5-0.4,1-0.5,1.5C445.1,68.8,445.3,68.3,445.5,67.8z"/>
	<path class="st7" d="M354.1,106.1c-0.7,0-1.3,0-2-0.1C352.8,106.1,353.5,106.1,354.1,106.1z"/>
	<path class="st6" d="M434.6,45.3c0.3,0.3,0.6,0.5,0.9,0.8C435.2,45.8,434.9,45.5,434.6,45.3z"/>
	<path class="st21" d="M234,454.4c0.9-5.5,1.7-10.9,2.6-16.4c0.9-0.8,1.9-1.7,2.4-2.1c2,10,4.1,20.4,6.2,30.8
		c0.2,2.4,0.3,4.9,0.5,7.3c0,11.2,0,22.4,0,37.2C232.4,491.8,234.5,472.9,234,454.4z"/>
	<path class="st23" d="M279.8,454.1c2.3,0.7,3.9,1.2,5.6,1.7c-3.9,8.9-7.7,17.9-11.8,26.8c-0.3,0.7-2.8,0.4-5,0.6
		c-2.1,2.9-1.4,12-6.8,10c-4.3-1.6,1.5-8.4,2.9-12.8c3.4-11.3,4.9-23.4,12-33.3c1.8-2.5,2.7-7.9,6.7-5.8c3.9,2-1.4,5-1.6,7.8
		C281.6,450.8,280.4,452.5,279.8,454.1z"/>
	<path class="st27" d="M282,429.1c-4.2-2.3-0.8-4.6,0.6-5.5c9.2-5.9,18.6-11.5,28-17c2.4-1.4,4.5-1,4.8,2.4c0,0,0,0,0,0
		c-0.3,0.2-0.5,0.5-0.8,0.7c-0.1,0.2-0.2,0.3-0.4,0.2c-7.1,3.8-14.2,7.7-25.9,14c10.7-2.7,16.3-4.2,21.8-5.6
		c0.4-0.2,0.8-0.3,1.2-0.5c0.5,0.7,1,1.4,1.5,2c-0.8,0.4-1.5,1.1-2.4,1.3c-8.3,2.4-16.5,4.7-24.8,7
		C284.4,428.6,283.2,428.9,282,429.1z"/>
	<path class="st23" d="M245.7,474.1c-0.2-2.4-0.3-4.9-0.5-7.3c1.4-12.7,2.7-25.4,4.3-38.1c0.2-1.6,1.6-3,2.5-4.4
		c0.4,1.6,1.1,3.3,1,4.8c-1.1,13.7-2.3,27.4-3.7,41.1C249.1,471.6,246.9,472.8,245.7,474.1z"/>
	<path class="st3" d="M257.8,374.1c0.1-0.4,0.3-0.8,0.4-1.1c0.3-0.6,0.7-1.2,1-1.8c0.1-0.2,0.1-0.4,0.2-0.6c4.5,3.1-2,6.9,0.7,10.1
		c0,0.6,0.1,1.3,0.1,2c-1.6,2.1-3.3,4.2-7.8,9.8C255.2,383.1,256.5,378.6,257.8,374.1z"/>
	<path class="st10" d="M568.5,201.2C568.5,201.2,568.5,201.2,568.5,201.2C568.5,201.2,568.5,201.2,568.5,201.2z"/>
	<path class="st8" d="M384.5,348.8c-1.5,4.8-3.1,9.6-4.6,14.4c-0.5,0.1-1.1,0.3-1.6,0.4c-16.4-10.6-34.3,10.5-52.5-4.3
		c-9.3-7.6-25.8,0-38.8,3.7c-0.6-0.2-1.2-0.5-1.8-0.7c1.1-12.6,5.7-23.1,17.7-29.3c4.8-2.5,9.5-5.8,9.9-12.1c0.7-1.5,1.4-3,2.1-4.5
		c0.3-0.1,0.6-0.1,0.9-0.2c0,0.2,0.1,0.3,0.3,0.4c-2.1,11.9,7.7,13.8,14.9,17.9c14.3,4.9,28.8,8,43.9,3.6c1.9-0.4,3.7-0.7,3.5-0.7
		c1.1-6.5,0.1-13.8,3.2-16.5c12.5-11.1,29-12.9,44.7-16.3c0.6,1,1.2,2.1,1.8,3.1c-13.8,13.7-22.5,32.3-40.8,41.1
		c-0.3-0.8-0.8-2.9-1.4-4.9c-0.2-0.4-0.4-0.8-0.5-1.3C385.2,344.8,384.9,346.8,384.5,348.8z"/>
	<path class="st28" d="M287.1,363c12.9-3.7,29.4-11.3,38.8-3.7c18.2,14.8,36.1-6.3,52.5,4.3c-0.1,0.7-0.1,1.4-0.2,2
		c-2.6,6.9-5.2,13.8-7.9,20.7c-1.2,3.1-1.4,7.1-6.5,6.7c-4.8-0.4-2.3-4.9-4.9-7.2c-3,1.2-6.5,2.5-9.6,3.8c1.6-3.9,3.3-8,4.8-11.6
		c-10.4,0.8-17.4,17.6-30,3.9c6.1-2.6,11.8-5.1,17.6-7.5c-0.2-0.4-0.3-0.7-0.5-1.1c-8,2.8-16.1,5.6-24.1,8.4c-0.6-4.8-4.4-1-6.3-2.3
		c6.3-3.2,12.8-6.2,18.9-9.7c1.4-0.8,3-4,2.5-5.1c-1.8-3.7-5.3-1-8-1.2c-1.1-2.9-3.3-4.1-6.3-3.6c-10.3,1.8-20.6,3.7-31,5.6
		C287,364.6,287.1,363.8,287.1,363z"/>
	<path class="st22" d="M313,320.9c-0.5,6.3-5.1,9.6-9.9,12.1c-12.1,6.2-16.6,16.6-17.7,29.3c-6-8.3,3.1-13.5,4.3-20.4
		c0.8-4.7,3.6-9,5.4-13.2c-13.2-2.2-17.5,9.2-24.6,16.7c3.9-14.6,7-29.4,16.6-41.7c5.1,0.2,10.2,0.5,15.4,0.7c0,0-0.2-0.8-0.4-1.5
		c5.7-0.4,8.7,3.8,12.2,7.1c0,0.9,0,1.9,0.1,2.8c-2.4-0.2-4.8-0.8-7.1-0.5c-4.1,0.6-8.1,1.7-12.1,2.6c2.4,0.7,4.8,1.4,7.2,2.2
		C305.9,318.3,309.5,319.6,313,320.9z"/>
	<path class="st2" d="M260.2,380.7c-2.8-3.2,3.7-7-0.7-10.1c3.3-7.5,6.5-14.9,9.8-22.4c4.7-1,9.5-2.1,17.5-3.8
		C277,357.7,268.6,369.2,260.2,380.7z"/>
	<path class="st27" d="M378.2,365.6c0.1-0.7,0.1-1.4,0.2-2c0.5-0.1,1.1-0.3,1.6-0.4c1,0.3,2.1,0.7,3.1,1c0.2,0,0.3,0.1,0.3,0.3
		c-5.9,22.6-10.6,45.7-27.8,67.2C363.8,407.6,375,388,378.2,365.6z"/>
	<path class="st24" d="M383.4,364.5c0-0.2-0.1-0.3-0.3-0.3c3.5-12.3,13.4-13.4,23.3-11.5c3.3,0.6-1.2,4.3-2.4,6.5
		c-3.6,1.8-7.1,3.7-10.7,5.5c-0.7,0-1.4,0-2.2,0c-0.5,0-0.9,0-1.4,0.1C387.6,364.6,385.5,364.6,383.4,364.5z"/>
	<path class="st20" d="M319.9,384.8c0.6,2.3,1.3,4.5,2.1,7.3c-6.9,1.4-13.9,2.8-21,4.3c-0.8-0.6-1.6-1.3-2.4-1.9
		c0,0-0.1-0.1-0.1-0.1c3.5-7.3,12.2-5.7,17.3-10.2c0.7-0.1,1.5-0.2,2.2-0.3C318.7,384.3,319.3,384.6,319.9,384.8z"/>
	<path class="st28" d="M314.2,410c0.2,0,0.3-0.1,0.4-0.2c0.3-0.2,0.5-0.5,0.8-0.7c0,0,0,0,0,0c5.5-3.6,10.5-10,17.9-3.2
		c-4.9,2.8-9.7,5.6-14.6,8.3c-2.4,1.3-4.9,2.5-7.3,3.8c-0.4,0.2-0.8,0.3-1.2,0.5c-0.8-0.3-1.6-0.6-2.5-0.9
		C309.8,415,312,412.5,314.2,410z"/>
	<path class="st8" d="M310.8,379.3c1.9,1.3,5.7-2.5,6.3,2.3c0,0,0-0.1,0-0.1c-1,0.4-1.9,0.8-2.9,1.3c0,0-0.2,0.1-0.2,0.1
		c-0.8,0.3-1.6,0.6-2.5,0.9c-5,2.3-10,4.7-15.1,7c-3.6,1-7.1,1.9-10.7,2.9c3.1-2.3,5.9-5.1,9.2-6.9
		C300.1,383.9,305.5,381.8,310.8,379.3z"/>
	<path class="st5" d="M286.9,365.4c10.3-1.9,20.6-3.8,31-5.6c3-0.5,5.1,0.7,6.3,3.6c-0.6,0.3-1.1,0.6-1.7,0.9
		c-9.2-1.8-18.1-0.6-27.1,2c-4.9,1.4-10.3,1.5-15.5,2.1c0,0,0.2,0.1,0.2,0.1c0.5-0.2,0.9-0.4,1.4-0.6
		C283.3,367,285.1,366.2,286.9,365.4z"/>
	<path class="st28" d="M279.9,368.4c5.2-0.7,10.5-0.7,15.5-2.1c9-2.6,17.9-3.7,27.1-2c-2.7,0.5-5.4,1-8.1,1.5
		c-1.2,0.2-2.4,0.5-3.6,0.7c-0.4,0-0.8,0.1-1.2,0.1c-8.2,1.3-16.5,2.6-24.7,3.9c-2.8,0.2-5.6,0.4-14.8,1
		C277.5,369.2,278.7,368.8,279.9,368.4z"/>
	<path class="st3" d="M284.9,370.6c8.2-1.3,16.5-2.6,24.7-3.9C301.8,370.7,293.6,372.2,284.9,370.6z"/>
	<path class="st10" d="M314,382.9c0,0,0.2-0.1,0.2-0.1c0.5,0,1.1,0.1,1.6,0.1c0,0.5,0.1,0.9,0.1,1.4c-5.2,4.4-13.9,2.9-17.3,10.2
		c-0.7-1.2-1.4-2.4-2.1-3.7c5-2.3,10-4.7,15.1-7C312.4,383.5,313.2,383.2,314,382.9z"/>
	<path class="st3" d="M310.8,366.5c1.2-0.2,2.4-0.5,3.6-0.7C313.2,366,312,366.3,310.8,366.5z"/>
	<path class="st10" d="M298.6,394.5c0.8,0.6,1.6,1.3,2.4,1.9C300.2,395.8,299.4,395.2,298.6,394.5z"/>
	<path class="st10" d="M319.9,384.8c-0.6-0.3-1.2-0.5-1.8-0.8c0.4-0.3,0.8-0.6,1.3-0.9C319.5,383.7,319.7,384.3,319.9,384.8z"/>
	<path class="st28" d="M315.8,382.9c-0.5,0-1.1-0.1-1.6-0.1c1-0.4,1.9-0.8,2.9-1.3C316.6,382,316.2,382.5,315.8,382.9z"/>
	<path class="st20" d="M389.7,364.7c0.5,0,0.9,0,1.4-0.1C390.6,364.7,390.2,364.7,389.7,364.7z"/>
	<path class="st28" d="M281.4,367.9c-0.5,0.2-0.9,0.4-1.4,0.6C280.5,368.2,281,368.1,281.4,367.9z"/>
	<path class="st2" d="M269.6,347.5c0.1-0.3,0.2-0.5,0.3-0.8C269.8,347,269.7,347.2,269.6,347.5z"/>
	<path class="st2" d="M386.1,344c0.6,2,1.2,4,1.4,4.9c18.2-8.8,26.9-27.5,40.8-41.1c0.4,0.1,0.8,0.1,1.2,0.2
		c-6.6,13.1-18.5,23.1-22.1,37.9c-7.1,2.5-14.1,4.9-21.6,7.5c0.1-1.7,0.2-3.1,0.2-4.4C386,347.3,386,345.7,386.1,344z"/>
	<path class="st10" d="M429.5,308c-0.4-0.1-0.8-0.1-1.2-0.2c-0.6-1-1.2-2.1-1.8-3.1c0.8-1.3,1.5-2.6,2.3-4c0.7-0.8,1.5-1.5,2.2-2.3
		c2.6-1.5,5.2-2.9,7.8-4.4C435.7,298.7,432.6,303.3,429.5,308z"/>
	<path class="st27" d="M431,298.4c-0.7,0.8-1.5,1.5-2.2,2.3c-0.8-1.2-2.2-2.5-2.2-3.6c1-14.8,2.3-29.6,3.5-44.3
		c1.7-0.6,3.4-1.2,5-1.8C433.7,266.7,432.4,282.6,431,298.4z"/>
	<path class="st27" d="M442.4,257.6c-0.7,10-1.4,19.8-2.3,29.6c-0.1,1.1-1.8,2-2.7,3.1c-0.3-1.2-0.9-2.4-0.9-3.6
		c0.2-9.7,0.4-19.4,0.8-29.1c0.1-2.3-1.1-6.2,3-6C444.9,251.8,441.6,255.7,442.4,257.6z"/>
	<path class="st27" d="M446.1,245.8c1.4-0.5,2.9-1.1,4.3-1.6c-0.6,10.8-1.1,21.5-1.9,32.3c0,0.6-1.6,1.2-2.6,1.4
		c-0.3,0.1-1.3-1.3-1.2-2C445.1,265.8,445.6,255.8,446.1,245.8z"/>
	<path class="st2" d="M499.4,187.6c6.7,3.3,9.7-3.8,14.6-5.4c1.3-0.4,2.6-1,3.9-1.5c-7.1,9.5-18.6,11-28.3,15.8
		c2.2-3.9,4.5-7.9,6.7-11.8C496.3,186.9,496.7,188.6,499.4,187.6z"/>
	<path class="st29" d="M531.3,369.2c0.8,0.8,2.3,1.6,2.3,2.3c-0.3,2.8-1,5.5-1.6,8.2c4.2,0,8.5,2.8,12.7-0.8
		c1.7-1.4,4.3-1.7,6.5-2.5c-0.6,1.9-0.7,4.1-1.8,5.7c-3.9,5.6-5.2,11.3-2.9,17.9c0.8,2.3,0.7,4.8,1.1,7.2c-2-1.2-4-2.4-5.9-3.6
		c-2.2-1.4-4.5-2.7-6.7-4.1c-2-1.2-3.9-2.4-5.9-3.5c-0.5,1.9-0.9,3.8-1.4,5.6c-4-6.9,1.3-13.7,0.3-20.6c0.1-0.3,0.2-0.6,0.2-0.9
		c0.1-0.5,0.2-1.1,0.2-1.6C529.3,375.4,530.3,372.3,531.3,369.2z"/>
	<path class="st18" d="M527.6,401.6c0.5-1.9,0.9-3.8,1.4-5.6c2,1.2,3.9,2.4,5.9,3.5c2.9,7.5,12.6,11.3,11.4,21
		c-2.8-2.7-5.6-5.3-8.2-8.1c-4.3-4.7-6.3-2.7-7.5,2.3C529.6,410.4,528.6,406,527.6,401.6z"/>
	<path class="st18" d="M508.3,395.9c2.1,7.6,4.1,15.1,6.2,22.7C508,412.3,507.4,404.3,508.3,395.9z"/>
	<path class="st18" d="M530.8,420.5c2.1,4.4,2.1,8.7,0,13.1C530.8,429.2,530.8,424.8,530.8,420.5z"/>
	<path class="st6" d="M525.6,450.9c0.5-1.5,1-2.9,1.5-4.4c0.7,0,1.4,0,2.1,0c-0.6,1.4-1.2,2.8-1.8,4.3
		C526.8,450.8,526.2,450.9,525.6,450.9z"/>
	<path class="st18" d="M521.2,423.4c0.2-1,0.4-2,0.6-2.9C521.6,421.5,521.4,422.4,521.2,423.4z"/>
	<path class="st18" d="M514.7,419.1c0.7,1,1.3,2.1,2,3.1C516,421.2,515.4,420.1,514.7,419.1z"/>
	<path class="st18" d="M518.3,424.9c0.9,0,1.8,0,2.7-0.1C520.2,426.4,519.3,427.4,518.3,424.9z"/>
	<path class="st18" d="M516.9,422.7c0.4,0.6,0.9,1.1,1.3,1.7C517.7,423.8,517.3,423.3,516.9,422.7z"/>
	<path class="st6" d="M524.9,442.9c-0.7,0-1.5,0-2.2,0C523.4,442.9,524.1,442.9,524.9,442.9z"/>
	<path class="st6" d="M521.3,443c-0.3,0.2-0.6,0.4-0.8,0.6C520.7,443.4,521,443.2,521.3,443z"/>
	<path class="st6" d="M526.2,443.7c-0.2-0.2-0.5-0.5-0.7-0.7C525.7,443.2,526,443.5,526.2,443.7z"/>
	<path class="st6" d="M519.1,443.7c-0.3,0.2-0.6,0.4-0.8,0.6C518.6,444.1,518.8,443.9,519.1,443.7z"/>
	<path class="st6" d="M526.9,445.2c-0.2-0.3-0.4-0.6-0.6-0.8C526.5,444.6,526.7,444.9,526.9,445.2z"/>
	<path class="st11" d="M547.4,371.6c-0.3,0.4-0.6,0.8-0.9,1.2c-0.7,0.8-1.4,1.6-2,2.4c-0.9-0.2-1.7-0.4-2.6-0.7
		c-0.6-1.6-1.2-3.1-1.8-4.7c-0.1-2.1-0.1-4.3-0.2-6.4c0.2-10.6,0.5-21.3,0.7-31.9c0-3.1,0-6.2,0-9.3c-0.2-1-0.4-2-0.6-3
		c0-0.7,0-1.4,0-2.1c6.1,1.4,9,0,6.5-6.9c-0.3-0.8,1.6-3.2,1.9-3.1c6.5,2,6.8,8.3,8.7,13.2c5.5,14.3,1,28.3-2.1,42.3
		c-1.9,2.2-3.8,4.3-5.7,6.5C548.7,370,548.1,370.8,547.4,371.6z"/>
	<path class="st12" d="M540.7,331.6c-0.2,10.6-0.5,21.3-0.7,31.9c-0.6-3.8-1.2-7.6-1.8-11.5c-2.6-0.1-5.1-0.1-7.7-0.2
		C540,348.1,537.5,338.4,540.7,331.6z"/>
	<path class="st12" d="M540.1,319.3c0.2,1,0.4,2,0.6,3C540.5,321.3,540.3,320.3,540.1,319.3z"/>
	<path class="st18" d="M527.7,353.5c-0.2,0.2-0.5,0.4-0.7,0.6C527.3,353.9,527.5,353.7,527.7,353.5z"/>
	<path class="st18" d="M527,354.1c-0.2,0.2-0.5,0.5-0.7,0.7C526.5,354.5,526.8,354.3,527,354.1z"/>
	<path class="st12" d="M534.8,360.5c-1.2,2.7-2.3,5.4-3.5,8.1C532.5,365.8,533.7,363.2,534.8,360.5z"/>
	<path class="st9" d="M528.4,378.5c-0.1,0.5-0.2,1.1-0.2,1.6C528.2,379.6,528.3,379,528.4,378.5z"/>
	<path class="st12" d="M535.5,359c-0.2,0.3-0.4,0.5-0.6,0.8C535.2,359.6,535.3,359.3,535.5,359z"/>
	<path class="st12" d="M536.2,357.6c-0.2,0.3-0.4,0.5-0.6,0.8C535.9,358.1,536.1,357.9,536.2,357.6z"/>
	<path class="st12" d="M537,355.4c-0.2,0.3-0.4,0.5-0.6,0.8C536.6,356,536.8,355.7,537,355.4z"/>
	<path class="st12" d="M540.2,369.9c0.6,1.6,1.2,3.1,1.8,4.7C541.3,373,540.8,371.4,540.2,369.9z"/>
	<path class="st12" d="M547.4,371.6c0.7-0.8,1.4-1.6,2-2.4C548.7,370,548.1,370.8,547.4,371.6z"/>
	<path class="st12" d="M544.5,375.2c0.7-0.8,1.4-1.6,2-2.4C545.9,373.6,545.2,374.4,544.5,375.2z"/>
	<path class="st12" d="M493,229c-0.5,0.2-1,0.5-1.5,0.7C492.1,229.5,492.6,229.2,493,229z"/>
	<path class="st3" d="M386.1,344c0,1.7-0.1,3.3-0.1,5c-0.5-0.1-1-0.1-1.4-0.2c0.3-2,0.7-4,1-6C385.7,343.2,385.9,343.6,386.1,344z"
		/>
	<path class="st7" d="M314.2,310c-3.5-3.4-6.5-7.5-12.2-7.1c0,0,0,0,0,0c-0.7-0.3-1.3-0.5-2-0.8c-2-0.5-4-0.9-6-1.4
		c-2.2-0.8-4.4-1.6-7.7-2.7c8.6-4.1,15.5-8.7,18.4-17.5c-1.3,0.2-3,0.4-4.8,0.6c-3.7,0.8-7.3,1.7-11,2.5c0-0.8,0.1-1.6,0.1-2.3
		c6.6-3.2,13.1-6.4,19.6-9.7c14.8-10.6,18.8-29.1,30.7-41.8c1.9-2,3.8-4.1,5.8-6.1c1.3-0.4,2.7-0.9,4-1.3c4.6-1.3,9.3-2.6,13.9-3.9
		c-0.8,3.5-2.2,6.9-2.3,10.5c-0.1,2.1-2.6,6.2,2.2,6.5c3.9,0.2,6.5-1.4,6.3-6.2c-0.3-6.4,0-12.7,0.1-19.1c0.9,8.5,1.7,17,2.6,25.5
		c0.8,1.4,1.6,2.8,2.4,4.3c-7.9,14.5-15.7,29-23.6,43.4c-1.4,0.5-3.1,0.6-4.3,1.5C335.8,293,325,301.5,314.2,310z"/>
	<path class="st20" d="M300.1,281.1c1.7-0.2,3.4-0.4,4.8-0.6c-2.9,8.7-9.8,13.3-18.4,17.5c3.3,1.1,5.5,1.9,7.7,2.7
		c-2.4,0.7-4.8,1.4-7.1,2.1c-3.2,0.6-6.5,1.1-12.6,2.2c9-7.1,16-12.5,22.7-18.2C298.6,285.4,299.1,283,300.1,281.1z"/>
	<path class="st23" d="M289.2,281.2c0,0.8-0.1,1.6-0.1,2.3c-4.8,1.3-9.6,2.6-14.4,3.9c0-0.6,0-1.3,0-1.9
		C279.5,284.1,284.4,282.7,289.2,281.2z"/>
	<path class="st14" d="M287,302.7c2.4-0.7,4.8-1.4,7.1-2.1c2,0.5,4,0.9,6,1.4c0.7,0.3,1.3,0.5,2,0.8c0,0,0,0,0,0
		c0.2,0.7,0.4,1.5,0.4,1.5c-5.1-0.2-10.2-0.5-15.4-0.7C287.1,303.3,287.1,303,287,302.7z"/>
	<path class="st2" d="M259.2,371.1c-0.3,0.6-0.7,1.2-1,1.8C258.6,372.4,258.9,371.7,259.2,371.1z"/>
	<path class="st3" d="M369.6,210c-0.1,6.4-0.4,12.8-0.1,19.1c0.2,4.8-2.4,6.5-6.3,6.2c-4.8-0.3-2.3-4.4-2.2-6.5
		c0.1-3.5,1.5-7,2.3-10.5c-4.6,1.3-9.3,2.6-13.9,3.9c-1.4,0.4-2.7,0.9-4,1.3c6.4-8.4,18-11.6,22.3-22.2c0.4,0,0.7,0,1.1,0
		c0,0.7,0.1,1.5,0.1,2.2c0.2,0.7,0.3,1.4,0.5,2.1C369.4,207.2,369.5,208.6,369.6,210z"/>
	<path class="st20" d="M281.3,255.1c1.4-4.1-6.8-8.2-0.1-12.4c1.8,6,3.5,12,5.6,18.8c-3.9,2.9-8.9,6.5-14,10.2
		C269.9,263.3,275.3,259.1,281.3,255.1z"/>
	<path class="st2" d="M339.6,229.8c-12,12.6-15.9,31.2-30.7,41.8C319.1,257.6,329.4,243.7,339.6,229.8z"/>
	<path class="st3" d="M369.6,152.3c0.5,0,0.9,0.1,1.4,0.1c0.7,14.2,1.4,28.5,2.2,42.7c-1.2,0-2.4,0-3.5,0.1
		C369.6,180.9,369.6,166.6,369.6,152.3z"/>
	<path class="st29" d="M402.7,208.2c-0.8,0.3-1.5,0.7-2.3,1c-0.6,0.2-1.2,0.3-1.8,0.5c2.4-4.5-2.5-3.3-3.8-4.9
		c-2.7-1.3-5.5-2.5-8.2-3.8c-0.4-1.5-0.8-3.1-1.2-4.6c1.4-0.3,2.9-0.9,4.3-0.7c10.8,2.1,20.8,6.1,29.2,13.4c3.1,2.7,0.3,4.6-1.7,6.3
		c-0.5,0-1,0-1.5,0c-1.6-1-3.3-2.1-4.9-3.1c-0.8-0.5-1.5-1-2.3-1.5c-0.4-0.2-0.9-0.5-1.3-0.7c-0.3-0.2-0.6-0.3-0.9-0.5
		c-0.8-0.4-1.6-0.8-2.4-1.2C403.5,208.3,403.1,208.3,402.7,208.2z"/>
	<path class="st27" d="M398.4,188.9c-5.3-2.9-6.6-8.8-4.7-12.8c2.5-5.4,9.3-1.8,14.1-2.8c0.2,0.1,0.4,0.1,0.6,0.1
		c2.2,0.1,4.4,0.1,6.7,0.2c0.7,0.4,1.4,0.8,2,1.2c0,0.9,0,1.9,0,2.8C410.8,181.4,404.6,185.1,398.4,188.9z"/>
	<path class="st15" d="M396.6,219c5.4,1.7,10.7,3.3,15.8,4.9c-5.8,9.5-26.6,0-25.4,19.9c-0.6-1.8-1.1-3.6-1.7-5.4c0,0,0,0,0,0
		c0.9-1,1.8-2.1,2.7-3.1c-0.6,0-1.2,0-1.8-0.1c-0.1-0.5-0.2-1-0.4-1.5c2.9-5.5,5.8-10.9,8.6-16.4c0.4,0.2,0.7,0.5,1.1,0.7
		C395.9,218.3,396.3,218.7,396.6,219z"/>
	<path class="st10" d="M374.5,239.8c-0.8-1.4-1.6-2.8-2.4-4.3c0.4,0.5,0.8,1.1,1.4,1.9c6.9-8.4,6.2-19.4,10.1-28.9
		c2.2,1.3-0.7,5.7,3.6,5.2c0.5,0.1,1,0.2,1.4,0.3c-1.9,3.8-3.9,7.6-5.8,11.4c-0.6,1.1-1.2,2.2-1.8,3.3
		C379,232.3,376.7,236.1,374.5,239.8z"/>
	<path class="st3" d="M388.7,213.9c-0.5-0.1-1-0.2-1.4-0.3c0.8-4.3,5.6-8.8-0.7-12.7c2.7,1.3,5.5,2.5,8.2,3.8
		C392.8,207.8,390.8,210.9,388.7,213.9z"/>
	<path class="st17" d="M398.6,209.7c0.6-0.2,1.2-0.3,1.8-0.5c-1.5,2.5-2.9,4.9-4.4,7.4c0,0,0.2-0.2,0.2-0.2
		C396.9,214.1,397.8,211.9,398.6,209.7z"/>
	<path class="st23" d="M415,173.6c-2.2-0.1-4.4-0.1-6.7-0.2C410.6,173.5,412.8,173.5,415,173.6z"/>
	<path class="st23" d="M417.1,177.6c0-0.9,0-1.9,0-2.8c0.5,0.5,1,1.1,1.5,1.6C418.1,176.8,417.6,177.2,417.1,177.6z"/>
	<path class="st17" d="M369.3,205.8c-0.2-0.7-0.3-1.4-0.5-2.1C369,204.4,369.2,205.1,369.3,205.8z"/>
	<path class="st17" d="M408.5,210.8c0.8,0.5,1.5,1,2.3,1.5C410,211.8,409.2,211.3,408.5,210.8z"/>
	<path class="st10" d="M396.1,216.3c0,0-0.2,0.2-0.2,0.2c-0.1,0.5-0.3,1-0.4,1.5c-0.4-0.2-0.7-0.5-1.1-0.7
		C395,217,395.6,216.7,396.1,216.3z"/>
	<path class="st17" d="M415.7,215.4c0.5,0,1,0,1.5,0c-0.2,0.3-0.5,0.6-0.7,1C416.2,216.1,415.9,215.7,415.7,215.4z"/>
	<path class="st17" d="M402.7,208.2c0.4,0.1,0.8,0.2,1.2,0.3C403.5,208.3,403.1,208.3,402.7,208.2z"/>
	<path class="st17" d="M406.3,209.6c0.3,0.2,0.6,0.3,0.9,0.5C406.9,209.9,406.6,209.8,406.3,209.6z"/>
	<path class="st0" d="M314.2,310c10.8-8.4,21.6-16.9,32.4-25.3c1.1-0.9,2.8-1,4.3-1.5c-0.9,2.2-1.8,4.3-2.8,6.5
		c-3.7,7.3-7.4,14.6-11.1,22c2.8,0.8,5.3,1.6,7.4,2.2c2.6-7.2,5-14.2,7.5-21.2c7.7-13.3,15.3-26.7,23-40c0.8,0.5,1.6,0.9,2.5,1.4
		c1.1,0.6,2.3,1.1,3.4,1.7c22.4,11.5,3.3,33.3,12.3,46.9c0.7-6.8,1.3-14.9,2.3-22.9c1-7.8-0.3-18,12-17.3c6.5,0.4-1.4,6.5,2.3,8.7
		c1-4,2.1-8.2,3.1-12.3c4.1-1.6,8.2-3.1,12.3-4.7c0.6,0,1.3,0,1.9,0.1c-0.9,10.5-1.5,21.2-3,31.6c-0.8,5.3,2.1,11.7-3.7,15.9
		c-0.6-4.9-1.3-9.8-1.9-14.1c-0.6,3.1-1.2,7-2.3,10.7c-0.5,1.8-2,3.2-3,4.8c-0.4-1.7-1-3.3-1.3-5c-0.5-3-0.8-6.1-1.2-9.2
		c-1.3,3-2.5,6-3.8,8.9c-1.1,2.7-2.1,5.4-3.2,8.1c-0.7-3-1.8-5.9-1.9-8.9c-0.3-8.7-0.1-17.3-0.1-24.6c-2.2,11.5-4.7,24.3-7.1,37
		c-0.8,4.1-4.4,4.6-7.3,5c-3.2,0.4-4.3-1.8-4.5-5.2c-0.4-8.2-1.6-16.4-2.7-27.1c0,12.9,0.3,23.2-0.1,33.5c-0.2,4.3-1.7,8.5-2.6,12.8
		c-1.1-3-2.2-5.9-3.2-8.9c-1.2,0.6-2.3,1.2-4.1,2.2c0-5.9,0-10.9,0-22.8c-2.1,14.1-3.2,21.5-4.5,28.9c-0.2,1.3-1.7,2.4-2.7,3.6
		c-0.4-0.9-1.2-1.7-1.3-2.6c-0.1-2.4,2.1-6.1-1.8-6.4c-3.6-0.2-2.8,3.8-2.8,6.2c0,2.6,0.4,5.3,0.6,7.9c-1.9-0.1-3.7-0.2-5.6-0.2
		c-0.1-5.7-0.2-11.3-0.3-17c-6,4.1-0.6,10.7-3.4,15.5c-0.1,0.2-0.2,0.4-0.2,0.7c-0.9,0-1.8,0.1-2.6,0.1c-5.1-13.6-13.5-22-29.3-19.2
		c-0.2-0.1-0.3-0.2-0.3-0.4c-0.3-0.4-0.6-0.8-0.9-1.3c-0.3-0.7-0.5-1.5-0.8-2.2C314.3,311.8,314.3,310.9,314.2,310z"/>
	<path class="st15" d="M357.8,336.7c-0.2-2.6-0.6-5.3-0.6-7.9c0-2.5-0.8-6.5,2.8-6.2c3.9,0.3,1.7,4,1.8,6.4c0,0.9,0.8,1.7,1.3,2.6
		c0.9-1.2,2.4-2.3,2.7-3.6c1.3-7.4,2.3-14.8,4.5-28.9c0,11.9,0,17,0,22.8c1.8-0.9,3-1.6,4.1-2.2c1.1,3,2.2,5.9,3.2,8.9
		c0.9-4.3,2.4-8.5,2.6-12.8c0.4-10.3,0.1-20.6,0.1-33.5c1.1,10.8,2.3,18.9,2.7,27.1c0.2,3.5,1.2,5.7,4.5,5.2c2.9-0.4,6.6-0.9,7.3-5
		c2.4-12.8,4.9-25.5,7.1-37c0,7.3-0.2,15.9,0.1,24.6c0.1,3,1.2,5.9,1.9,8.9c1.1-2.7,2.1-5.4,3.2-8.1c1.2-3,2.5-6,3.8-8.9
		c0.4,3.1,0.7,6.1,1.2,9.2c0.3,1.7,0.9,3.3,1.3,5c1-1.6,2.5-3.1,3-4.8c1.1-3.7,1.7-7.6,2.3-10.7c0.6,4.3,1.2,9.2,1.9,14.1
		c5.7-4.2,2.9-10.6,3.7-15.9c1.5-10.5,2-21.1,3-31.6c1-0.5,1.9-1,2.9-1.6c-1.2,14.8-2.5,29.6-3.5,44.3c-0.1,1.1,1.4,2.4,2.2,3.6
		c-0.8,1.3-1.5,2.6-2.3,4c-15.7,3.4-32.2,5.3-44.7,16.3c-3.1,2.7-2.1,10-3.2,16.5c0.3,0-1.6,0.3-3.5,0.7
		C369.3,337.7,363.6,337.2,357.8,336.7z"/>
	<path class="st29" d="M499.4,187.6c-2.7,0.9-3.1-0.7-3.2-2.8c1.9-2.9,3.7-5.7,5.6-8.6c0.4-0.5,0.8-1.1,1.2-1.6
		c0-0.2,0.1-0.4,0.3-0.5c0.4-0.6,0.8-1.1,1.2-1.7c0-0.2,0.1-0.4,0.3-0.5c0.4-0.6,0.8-1.1,1.2-1.7c0-0.2,0.1-0.4,0.3-0.5
		c1.6-1.5,3.2-2.9,4.8-4.4c0.4,0.7,0.8,1.8,1.5,3.1c2.5-4.1-2.5-12.6,7.2-11.7c0.2,0.2,0.4,0.4,0.6,0.6c0.8,3.3,1.6,6.6,2.4,10.1
		c1.5-1.2,2.5-2,3.5-2.9c0.8,0.8,1.5,1.5,2.3,2.3c-4.6,3.6-9.2,7.1-13.8,10.7C509.6,181,504.5,184.3,499.4,187.6z"/>
	<path class="st2" d="M453.4,206.6c2.9-10.2,5.9-20.3,8.9-30.4c0.1-0.2,1.8,0.1,2.8,0.1C461.2,186.4,457.3,196.5,453.4,206.6z"/>
	<path class="st3" d="M519.7,156.9c-9.7-1-4.7,7.5-7.2,11.7c-0.7-1.4-1.2-2.4-1.5-3.1c-1.6,1.5-3.2,2.9-4.8,4.4
		c5.5-9.2,11-18.3,16.5-27.5c0,0.4,0.1,0.9,0.1,1.3C520.2,147.7,516.9,151.6,519.7,156.9z"/>
	<path class="st15" d="M522.8,143.6c0-0.4-0.1-0.9-0.1-1.3c2.8-2.6,4.7-1,6.5,1.3C527,146.8,524.9,143.4,522.8,143.6z"/>
	<path class="st3" d="M503,174.6c-0.4,0.5-0.8,1.1-1.2,1.6C502.2,175.7,502.6,175.2,503,174.6z"/>
	<path class="st3" d="M504.5,172.5c-0.4,0.6-0.8,1.1-1.2,1.7C503.7,173.6,504.1,173,504.5,172.5z"/>
	<path class="st3" d="M505.9,170.3c-0.4,0.6-0.8,1.1-1.2,1.7C505.1,171.4,505.5,170.8,505.9,170.3z"/>
	<path class="st15" d="M412.9,258.9c-1.1,4.2-2.1,8.3-3.1,12.3c-3.7-2.3,4.2-8.4-2.3-8.7c-12.3-0.7-11,9.5-12,17.3
		c-1,8-1.6,16.1-2.3,22.9c-9-13.6,10.1-35.4-12.3-46.9C391.6,256.8,402.3,257.9,412.9,258.9z"/>
	<path class="st10" d="M377.5,254.1c-0.8-0.5-1.6-0.9-2.5-1.4c3.6-6.3,7.2-12.7,10.8-19c0.1,0.5,0.2,1,0.4,1.5
		c-0.3,1.1-0.6,2.1-0.9,3.2c0,0,0,0,0,0C382.7,243.6,380.1,248.9,377.5,254.1z"/>
	<path class="st29" d="M471.9,30.9c-1,1.2-1.9,2.3-2.9,3.5c-1.2,1.4-2.8,2.6-3.5,4.2c-4,9.7-3.6,18.8,6,25c3.6,2.4,4,4,1.7,7.1
		c-3.1,2.9-6.2,5.9-9.3,8.8c-5.6-3.2-3.3-10.2-6.6-14.1c-2.3-2.7,2.9-9.3-4.8-8.5c-0.7,0-1.3,0-2,0c2.7-5.9,5.5-11.8,8.2-17.7
		c0.7,0.5,1.4,1,2.3,1.6C462.3,35.1,462.6,27.9,471.9,30.9z"/>
	<path class="st26" d="M452.6,56.9c7.7-0.9,2.5,5.8,4.8,8.5c3.3,3.9,1.1,10.9,6.6,14.1c-0.9,6.7-5.7,3.7-8.8,3.1
		c-2.8-0.5-8.4,1.3-6.5-5.7C450.5,70.4,451.3,63.6,452.6,56.9z"/>
	<path class="st3" d="M526.3,164.6c-1,0.8-2.1,1.7-3.5,2.9c-0.8-3.5-1.6-6.8-2.4-10.1C522.3,159.8,524.3,162.2,526.3,164.6z"/>
	<path class="st13" d="M314.2,410c-2.2,2.5-4.4,5-6.5,7.5c0.8,0.3,1.6,0.6,2.5,0.9c-5.6,1.4-11.1,2.8-21.8,5.6
		C300,417.7,307.1,413.8,314.2,410z"/>
	<path class="st13" d="M315.3,409.1c-0.3,0.2-0.5,0.5-0.8,0.7C314.8,409.5,315.1,409.3,315.3,409.1z"/>
	<path class="st13" d="M316.3,316.6c15.8-2.8,24.2,5.6,29.3,19.2c-4.8-0.4-9.6-0.8-14.4-1.3C324,330.5,314.2,328.5,316.3,316.6z"/>
	<path class="st28" d="M331.2,334.6c4.8,0.4,9.6,0.8,14.4,1.3c0.9,0,1.8-0.1,2.7-0.1c1.3,0.3,2.6,0.5,3.9,0.8
		c1.9,0.1,3.7,0.2,5.6,0.2c5.8,0.5,11.6,1,17.3,1.5C360,342.6,345.6,339.4,331.2,334.6z"/>
	<path class="st9" d="M314.3,312.8c0.3,0.7,0.5,1.5,0.8,2.2c0,0.2,0,0.4,0,0.6c-0.2,0.2-0.4,0.4-0.6,0.7c0.2,0.1,0.5,0.1,0.7,0.2
		l-0.1,0c-0.7,1.5-1.4,3-2.1,4.5c-3.6-1.3-7.1-2.6-10.7-3.9c-2.4-0.8-4.8-1.5-7.2-2.2c4-0.9,8-2,12.1-2.6
		C309.5,311.9,311.9,312.6,314.3,312.8z"/>
	<path class="st13" d="M315.1,315.6c0-0.2,0-0.4,0-0.6c0.3,0.4,0.6,0.8,0.9,1.3c-0.3,0.1-0.6,0.1-0.9,0.2c0,0,0.1,0,0.1,0
		C315.2,316.2,315.2,315.9,315.1,315.6z"/>
	<path class="st28" d="M314,382.9c-0.8,0.3-1.6,0.6-2.5,0.9C312.4,383.5,313.2,383.2,314,382.9z"/>
	<path class="st5" d="M385.8,233.7c-3.6,6.3-7.2,12.7-10.8,19c-7.7,13.3-15.3,26.7-23,40c-1.3-1-2.6-2-3.9-3.1
		c0.9-2.2,1.8-4.3,2.8-6.5c7.9-14.5,15.7-29,23.6-43.4c2.2-3.7,4.5-7.5,6.7-11.2c0.6-1.1,1.2-2.2,1.8-3.3c1.9-3.8,3.9-7.6,5.8-11.4
		c2-3.1,4-6.1,6-9.2c1.3,1.6,6.2,0.5,3.8,4.9c-0.8,2.2-1.6,4.4-2.5,6.7c-0.6,0.3-1.1,0.6-1.7,0.9
		C391.6,222.7,388.7,228.2,385.8,233.7z"/>
	<path class="st22" d="M302.1,302.8c-0.7-0.3-1.3-0.5-2-0.8C300.8,302.3,301.5,302.6,302.1,302.8z"/>
	<path class="st17" d="M385.3,238.4c0.3-1.1,0.6-2.1,0.9-3.2c0.6,0,1.2,0,1.8,0.1C387.1,236.3,386.2,237.4,385.3,238.4z"/>
	<path class="st3" d="M383,225.3c-0.6,1.1-1.2,2.2-1.8,3.3C381.8,227.5,382.4,226.4,383,225.3z"/>
	<path class="st13" d="M348.2,289.7c1.3,1,2.6,2,3.9,3.1c-2.5,7-5,14-7.5,21.2c-2.1-0.6-4.6-1.4-7.4-2.2
		C340.8,304.3,344.5,297,348.2,289.7z"/>
	<path class="st7" d="M352.2,336.4c-1.3-0.3-2.6-0.5-3.9-0.8c0.1-0.2,0.1-0.5,0.2-0.7c2.8-4.8-2.7-11.4,3.4-15.5
		C352,325.1,352.1,330.8,352.2,336.4z"/>
	<path class="st8" d="M315.1,315.6c0,0.3,0.1,0.6,0.1,0.9c-0.2-0.1-0.5-0.1-0.7-0.2C314.7,316,314.9,315.8,315.1,315.6z"/>
</g>
<g>
	<path class="st30" d="M453,157.3c0-0.2,0-0.4-0.1-0.7c3.3,0,6.6,0,9.9,0.1c0,0.2,0,0.4-0.1,0.6C459.5,157.3,456.3,157.3,453,157.3z
		"/>
	<path class="st31" d="M413.4,108c-3,8-6,15.9-8.9,23.9c-1.8-0.5-3.5-1.1-5.3-1.6c-5.5-2.5-11-5.1-16.5-7.6
		c-3.6,0.1-6.6-1.5-7.3,3.9c-4.8,1.5-6.4-1.2-6.8-5.3c0,0,0,0,0,0c1.2,0,2.3,0,3.8,0c0.3-2.1,0.5-3.7,0.7-5.3
		C385.2,106.6,399.7,109.3,413.4,108z"/>
	<path class="st32" d="M429.9,122.9c-0.7-1.1-1.4-2.3-2.3-3.8c-3.4,1.1-6.6,2.1-10.3,3.2c5.3-5.6,10-10.7,14.8-15.8
		c4-0.3,7.9-0.6,11.9-1c0.7,0,1.5,0,2.2,0.1c3.8,0,7.5,0,11.3,0c0,0-0.1,0.2-0.1,0.2c-4.4,1.9-8.9,3.9-14.4,6.3
		c0.9-2.6,1.2-3.5,1.6-4.8c-5-1.8-6.9,2.1-10,4.3c1.3,0.7,2.3,1.2,3.5,1.9c-2.1,3.3-4,6.3-5.9,9.3
		C431.4,122.9,430.6,122.9,429.9,122.9z"/>
	<path class="st33" d="M402.3,143.8c0.2-1.3,0.4-2.6,0.7-4.9c-9.1,4.3-17.4,7.2-26.2,2.6c9.3-1.2,18.5-2.4,27.8-3.6
		c-0.2,2-0.5,3.9-0.7,5.9C403.3,143.7,402.8,143.7,402.3,143.8z"/>
	<path class="st34" d="M373,116c-0.2,1.6-0.4,3.3-0.7,5.3c-1.5,0-2.6,0-3.8,0C370,119.6,371.5,117.8,373,116z"/>
	<path class="st35" d="M429.9,122.9c0.8,0,1.5,0,2.3,0c16.4-2.3,32.3-6.4,47.7-12.7c3.4,5,6.8,9.9,10.1,14.9
		c-5.2,5.2-2.9,9.4,3.5,14.3c-4.7-0.3-7.6-0.5-10.9-0.7c1.1,1.3,1.9,2.3,3.9,4.6c-3.7-0.5-5.8-0.7-8-1c-2.2-1.6-4.3-3.1-6.5-4.7
		c-1.3-2.3-2.8-4.2-5.3-1.2c-6.5-1.1-13-2.1-19.5-3.2c-0.8,1-1.6,2.1-2.4,3.1c-1.5,0.2-2.9,0.4-4.7,0.6c0-1.4,0-2.7,0-3.3
		c-6.9-3.9-16.1-0.4-22.3-8.8C422.7,124,426.3,123.5,429.9,122.9z"/>
	<path class="st36" d="M444.6,136.3c0.8-1,1.6-2.1,2.4-3.1c5.7,2.5,11.5,5,17.2,7.5c-2.3,0.1-4.5,0.1-6.8,0.2
		c-4.2-1.4-8.4-2.8-12.5-4.2l0-0.3L444.6,136.3z"/>
	<path class="st37" d="M457.5,140.9c2.3-0.1,4.5-0.1,6.8-0.2c1.7-0.7,3.5-1.3,5.2-2c0.8-0.4,1.5-0.7,2.3-1.1
		c2.2,1.6,4.3,3.1,6.5,4.7c-1.7,0.3-3.4,0.7-5.2,1c-2.5,0-5,0-7.5,0c-1.2-0.1-2.5-0.2-3.7-0.2C460.5,142.3,459,141.6,457.5,140.9z"
		/>
	<path class="st38" d="M457.5,140.9c1.5,0.7,3,1.4,4.5,2.2c-5.4-0.9-10.8-1.8-16.5-2.8c-0.2-1.6-0.4-2.6-0.5-3.6
		C449.1,138.1,453.3,139.5,457.5,140.9z"/>
	<path class="st38" d="M465.7,143.3c2.5,0,5,0,7.5,0C470.7,147.6,468.2,144.3,465.7,143.3z"/>
	<path class="st39" d="M399.2,130.2c-3,0.3-6,0.7-8.9,1c-0.8-0.3-1.5-0.7-2.3-1c-1.4-0.3-2.8-0.5-4.3-0.8c-0.5-0.2-1.1-0.4-1.6-0.6
		c-1.7-0.2-3.4-0.5-5.2-0.7c-0.5-0.5-1-1-1.5-1.5c0.6-5.4,3.6-3.8,7.3-3.9C388.2,125.2,393.7,127.7,399.2,130.2z"/>
	<path class="st40" d="M388,130.3c0.8,0.3,1.5,0.7,2.3,1c-4.4,1.3-9.1,4.2-12.7-1.6c1,0,2,0,3,0.1c0.5,0.2,1.1,0.4,1.6,0.6
		c0.5,0,0.9,0,1.4,0C385.1,130.3,386.5,130.3,388,130.3z"/>
	<path class="st41" d="M380.6,129.8c-1,0-2,0-3-0.1c0,0-0.2-0.2-0.2-0.2s-0.3,0-0.3,0c-0.1-0.2-0.2-0.5-0.3-0.7
		c0-0.3,0.1-0.5,0.1-0.8c1.7,0.2,3.4,0.5,5.2,0.7c0,0.3,0,0.6,0,0.9C381.6,129.7,381.1,129.8,380.6,129.8z"/>
	<path class="st40" d="M376.8,128.9c0.2,0.2,0.3,0.4,0.3,0.7c-0.2-0.1-0.3-0.2-0.5-0.4C376.6,129.2,376.7,129,376.8,128.9z"/>
	<path class="st42" d="M469.5,138.7c-1.7,0.7-3.5,1.3-5.2,2c-5.7-2.5-11.5-5-17.2-7.5c6.5,1.1,13,2.1,19.5,3.2
		C467.5,137.2,468.5,137.9,469.5,138.7z"/>
	<path class="st43" d="M469.5,138.7c-1-0.8-2-1.5-3-2.3c2.5-3,4-1,5.3,1.2C471.1,138,470.3,138.3,469.5,138.7z"/>
	<path class="st44" d="M388,130.3c-1.5,0-2.9,0-4.4,0c0-0.3,0.1-0.5,0.1-0.8C385.2,129.7,386.6,130,388,130.3z"/>
	<path class="st45" d="M383.7,129.5c0,0.3-0.1,0.5-0.1,0.8c-0.5,0-0.9,0-1.4,0c0-0.2-0.1-0.4-0.2-0.6c0-0.3,0-0.6,0-0.9
		C382.6,129,383.2,129.3,383.7,129.5z"/>
	<path class="st46" d="M382,129.7c0.1,0.2,0.1,0.4,0.2,0.6c-0.5-0.2-1.1-0.4-1.6-0.6C381.1,129.8,381.6,129.7,382,129.7z"/>
</g>
</svg>
