<?xml version="1.0" encoding="UTF-8" standalone="no"?>
<!DOCTYPE svg PUBLIC "-//W3C//DTD SVG 1.1//EN" "http://www.w3.org/Graphics/SVG/1.1/DTD/svg11.dtd">
<svg version="1.1" xmlns="http://www.w3.org/2000/svg" xmlns:xlink="http://www.w3.org/1999/xlink" viewBox="-500 -500 1000 1000">
	<g id="Kruhotvar-24">
		<title>Kruhotvar XXIV, by Adam Stanislav</title>

		<g id="Mnoho">
			<g id="Trochu">
				<g id="Tvary">
					<g id="Tvar">
						<path d="m4.41-493.085c37.679 1.2756 60.212 52.752 34.896 81.092-17.36 23.018-48.673 19.282-72.617 11.25-47.14-8.6467-96.37-14.253-143.5-2.4872 4.4848 21.786 31.986 27.703 45.675 43.174 76.031 55.274 158.52 100.67 237.73 151.06 10.729 29.242-35.347 24.677-52.513 33.036-80.461 21.219-162.4 39.395-238.61 73.691-20.038 20.777 24.228 29.244 36.347 39.468 39.568 19.694 81.998 32.499 123.28 47.955 10.829-1.9525 42.749 13.134 22.636 20.454-22.924-3.4102-43.983-14.052-66.266-20.114-45.771-15.724-92.121-32.479-132.17-60.206-22.039-21.013 5.115-48.15 27.912-51.333 67.521-29.344 139.48-46.239 209.95-66.709 17.431-3.3562 49.732-11.012 18.392-21.593-87.62-50.9-177.61-98.75-258.1-160.76-21.42-15.97-19.19-52.139 7.51-60.679 38.26-19.442 81.29-26.062 122.15-38.066 25.73-6.305 51.25-14.975 77.29-19.24z"/>
						<use xlink:href="#L" transform="scale(-1,1)"/>
					</g>
					<use xlink:href="#Tvar" transform="rotate(180)"/>
				</g>
				<use xlink:href="#Tvary" transform="rotate(90)"/>
			</g>
			<use xlink:href="#Trochu" transform="rotate(45)"/>
		</g>
		<use xlink:href="#Mnoho" transform="rotate(22.5)"/>
	</g>
</svg>
