<?xml version="1.0" encoding="utf-8"?>
<!-- Generator: Adobe Illustrator 19.0.1, SVG Export Plug-In . SVG Version: 6.00 Build 0)  -->
<svg version="1.1" id="Слой_1" xmlns="http://www.w3.org/2000/svg" xmlns:xlink="http://www.w3.org/1999/xlink" x="0px" y="0px"
	 viewBox="-295 129.7 250 336.6" style="enable-background:new -295 129.7 250 336.6;" xml:space="preserve">
<style type="text/css">
	.st0{fill:none;stroke:#000000;stroke-miterlimit:10;}
</style>
<g transform="translate(0.000000,336.560751) scale(0.100000,-0.100000)">
	<path d="M-1920,2054.8c-158-52-297-160-388-301c-47-73-48-76-26-85c14-5,12-12-11-53l-26-48l21-17c17-14,20-25,16-64
		c-3-31-1-42,5-33c5,8,9,24,9,37c0,12,3,22,8,22c8,0,72,121,72,137c0,11,48,58,54,52c2-2,7-78,10-168s11-170,16-176c7-9,7-21,0-39
		c-7-20-7-25,2-20c8,5,9-2,5-24c-8-38,0-62,19-62c21,0-50-115-73-116c-10-1-24-2-31-3c-10-1-12-30-9-131c3-71,0-130-4-130
		c-5,0-9-6-9-14s-4-18-10-21s-7,1-4,9c3,9,1,16-4,16c-6,0-12,8-15,18c-2,9-4-14-4-51c-1-54-5-71-19-81c-17-13-17-14,4-25
		c13-7,23-24,26-44c2-17,10-70,16-117c13-102,42-206,76-275c50-104,366-369,392-329c18,27,74,24,192-10c23-7,23-6-5,14l-30,21l30-2
		c43-2,53,1,30,10c-16,7-8,11,38,21c42,10,57,18,57,30c0,19,23,43,32,35c3-3,11,1,18,10c11,13,9,15-14,15c-15,0-35-4-44-9
		c-23-12-119,6-158,30c-38,23-44,24-44,4c0-17-35-21-45-5c-3,5-23,17-43,27c-20,9-40,21-43,26s-9,8-13,8c-19-3-26,1-35,18
		c-9,16-3,21,56,41c72,24,92,28,171,34c102,7,76,38-38,47c-114,8-126,24-25,34c33,3,97,10,143,16c74,9,87,8,129-11
		c60-26,83-11,40,26c-33,28-45,29-112,9c-29-9-62-13-80-9c-16,4-52,8-80,9c-88,4-144,26-145,58c0,4,6,7,13,6c28-3,38,2,47,26
		c13,35,37,31,54-10c24-56,35-43,32,35c-4,74-18,99-58,100c-9,0-21,6-25,14c-8,15,0,179,12,254c5,24,2,88-6,147
		c-13,103-14,105-50,135c-41,33-129,53-170,38c-17-7-26-5-34,5c-5,8-16,12-22,10c-18-6-16,12,1,27c16,13,11,105-7,128
		c-6,8-6,12,2,12c15,0,14,37-1,43c-10,4-10,8-2,14c19,14,28,74,13,84c-10,6-11,9-1,9c14,0,17,36,3,44c-16,11-20,76-5,104
		c7,15,14,34,14,43s7,32,15,52c11,28,21,36,50,41c19,4,35,11,35,16c0,6,9,10,21,10s23,8,26,20c6,22,18,26,28,10c3-5,1-10-6-10
		s-10-2-8-5c7-7,79,17,79,27c0,4-8,8-18,8c-30,0-35,13-12,30c12,9,22,25,23,37c0,12,5,19,10,16s19-1,30,5c12,6,40,14,62,17
		c32,6,36,9,20,15c-17,6-17,7,7,12c15,3,25,2,23-2s29-17,70-30s75-27,75-32c0-4,5-8,10-8c13,0,101-40,120-55c8-6,31-18,50-25
		c57-22,99-60,121-109c11-25,22-50,23-56c6-30,31-93,42-110c12-16,14-17,14-3c0,9,4,19,9,22c5,4,7-2,5-12c-3-9-1-28,4-42
		c13-34,6,93-7,145c-14,54-12,67,4,30c11-25,15-27,20-13c19,47-67,170-150,215c-16,9-43,31-59,50c-34,39-56,53-94,58
		c-15,2-70,15-122,28c-69,18-124,25-205,26c-60,1-123,4-140,6C-1851,2070.8-1890,2063.8-1920,2054.8z M-2080,760.8"/>
	<path d="M-2470,1202.8c0-12-7-20-16-20c-12,0-14-5-9-17c4-10,16-45,25-78c35-119,63-160,85-125c10,16,25,1,18-18c-6-16-6-16,10,0
		c21,21,22,57,2,85c-10,14-13,32-9,48c3,14,3,33-1,42c-6,15-10,12-21-17c-16-39-13-7,4,46c9,27,8,32-6,29c-10-1-16-9-14-18
		c1-8-2-18-8-22c-6-3-10,4-10,17c0,16-3,19-9,10c-7-11-10-10-15,3c-3,9-6,25-6,36c0,10-4,19-10,19
		C-2465,1222.8-2470,1213.8-2470,1202.8z"/>
	<path d="M-1526,1141.8c-3-5-14-9-24-9s-25-6-33-14c-8-9-24-12-36-9c-16,4-21,1-21-15c0-11,7-22,15-26c11-4,14-13,9-31
		c-7-28,12-35,35-12c10,10,16,8,28-11c15-21,17-21,34-6c16,14,18,14,29-5c19-37,87-23,103,21c3,11,9,11,26,0c13-7,21-8,21-2
		c0,14-47,32-87,33c-52,2-42,27,10,27c30,0,53-7,77-25c19-14,43-25,53-25c19,0,19,1-2,19c-16,14-18,21-9,24c8,4,5,8-9,12
		c-13,4-21,11-18,15c3,5-9,12-27,15c-18,4-44,12-58,18C-1443,1148.8-1519,1152.8-1526,1141.8z"/>
	<path d="M-2390,891.8c0-4,5-11,10-14c6-4,8-16,4-27c-3-11-3-35,0-53c5-26,11-33,26-30c13,3,17-1,13-11c-3-8,0-14,6-14
		c14,0,14,17,0,95c-10,56-13,63-35,63C-2379,900.8-2390,896.8-2390,891.8z"/>
	<path d="M-1607,569.8c-32-14-29-27,7-27c19,0,30,5,30,14C-1570,577.8-1582,581.8-1607,569.8z"/>
	<path d="M-2266,230.8c-11-13-29-36-39-53c-24-39-98-117-158-167c-35-30-77-50-160-79c-62-20-154-56-206-78c-52-23-101-41-108-41
		c-11,0-13-102-13-555v-555h670c369,0,670,2,670,4c0,10-270,680-362,901c-66,156-122,272-159,330c-86,133-112,198-107,263
		c3,28,2,52-2,52S-2255,242.8-2266,230.8z"/>
	<path d="M-1189,37.8c1-63,14-119,69-280c59-176,111-369,146-545c28-145,74-442,74-482v-28h225h225v503v503l-47,16
		c-222,76-513,182-533,195c-14,8-55,47-92,87l-68,71L-1189,37.8z"/>
	<path d="M-1474-298.2c-43-7-58-17-118-76c-68-66-99-106-79-101c12,4,185-127,210-158c19-24,19-25-5-101c-32-103-44-214-44-405v-158
		h215h215l-10,26c-6,14-32,76-59,137c-34,78-60,160-86,272c-20,88-40,174-46,191c-18,59-2,240,23,255c14,9-38,66-86,93
		C-1398-291.2-1416-288.2-1474-298.2z"/>
</g>
<rect x="-412.3" y="129.7" class="st0" width="485.3" height="336.6"/>
</svg>
