<?xml version="1.0" encoding="utf-8"?>
<!-- Generator: Adobe Illustrator 22.1.0, SVG Export Plug-In . SVG Version: 6.00 Build 0)  -->
<svg version="1.1" id="Слой_1" xmlns="http://www.w3.org/2000/svg" xmlns:xlink="http://www.w3.org/1999/xlink" x="0px" y="0px"
	 viewBox="0 0 841.9 595.3" style="enable-background:new 0 0 841.9 595.3;" xml:space="preserve">
<style type="text/css">
	.st0{fill:#FFFFFF;}
</style>
<g>
	<path class="st0" d="M1.9,597.1c0-198.6,0-397.1,0-595.6c197.4,0,394.6,0,591.9,0c0,198.6,0,397.1,0,595.6
		C396.4,597.1,199.1,597.1,1.9,597.1z M4.7,297.9C3.3,460.6,140.4,592.4,295.9,593.2c153.7,0.8,294.1-127.9,293.8-293.6
		C589.3,127.3,453.2,4.6,297.6,4.2C135.8,3.8,5.7,134.2,4.7,297.9z"/>
	<path d="M4.7,297.9C5.7,134.2,135.8,3.8,297.6,4.2c155.7,0.4,291.7,123.1,292.1,295.3c0.3,165.7-140.1,294.4-293.8,293.6
		C140.4,592.4,3.3,460.6,4.7,297.9z M295,25.5c-150.9,0-270.6,120.8-270.9,272.7c-0.3,153.1,124.5,272.2,270.8,272.3
		c146,0.1,271.3-118.5,271.2-272C565.9,144.4,444.7,25.4,295,25.5z"/>
	<path class="st0" d="M295,25.5c149.7-0.1,270.9,118.8,271,273.1c0.2,153.4-125.2,272.1-271.2,272
		C148.6,570.4,23.7,451.4,24.1,298.2C24.4,146.3,144.1,25.6,295,25.5z M187.4,342c0.9-0.6,1.9-1.1,2.8-1.7
		c14.9,30.3,35.8,56,61,78.2c4.6,4,10.8,7.1,16.8,8.6c28.4,6.9,57.2,6.8,86.3,3.8c34-3.5,61.2-18.6,80.1-46.8
		c11.1-16.5,20.1-34.5,30-51.8c1.6-2.8,3.1-5.6,4.5-8c9.7,6.5-2.9,20.2,10.2,26.3c5.1-18.3-0.1-33-10.1-46.9
		c-3.5-4.9-6.2-7.9-13.6-3.4c2.6,4.2,5,8.1,8.2,13.1c-10.6,2.1-21.5,4.8-32.5,6.3c-39.6,5.6-79.3,4-118.8-0.8
		c-36.7-4.5-72.8-11.7-107.5-25.3c-8.3-3.3-11.7-7.3-8.9-16.2c3.7,0,7.4,0.2,11.1,0c20-1.1,38.9-6,55.8-17.2
		c2.7-1.8,4.4-4.8,7.5-8.4c-15.7,6.2-28.6,13.1-42.4,16.3c-14.1,3.3-29.1,2.9-44.5,4.2c-4.6,14.3-9.7,30.1-14.8,45.8
		c-1.7,5.1-1,8.4,5.8,8c1.3-2.9,2.6-5.8,4.2-9.2c4,26.5,12.2,50.4,27.9,71.3c1.9,2.5,5,4.2,8.7,7.2C205,376.1,196.2,359,187.4,342z
		 M277.7,203.4c-2-8.3-1.7-16.5-5.6-21.2c-5.2-6.4-13.3-10.8-20.8-14.8c-24.6-13.1-51.5-18.3-79-19.7c-27-1.4-53.4,2.1-78,14.6
		c-6.2,3.2-11.1,14.4-9,20.9c0.5,1.5,2.7,3.3,4.4,3.5c15.8,2.1,31.5,4.2,47.4,5.7c27.3,2.5,54.6,4.6,81.9,6.8
		C237.5,200.5,256.1,201.8,277.7,203.4z M502.1,218.7c-2-6.3-2.1-12.4-4.9-14.4c-14.5-10.2-29.5-19.8-44.9-28.6
		c-12-6.9-25.6-9.9-39.2-6.7c-16.9,4-33.4,9.6-51.2,14.9c-2.6-17.7,3.9-35,11.8-52c-12.7,14.4-17,31.2-16,49.9
		c0.2,3.8-0.6,7.8-1.4,11.6c-1.2,5.8-2.3,10.6,3.7,15.3c31,24.3,66.2,38.7,104.6,45.7c2.1,0.4,4.4-0.8,6.6-1.2c0-0.8,0-1.7,0.1-2.5
		c-37.7-6.3-72.2-20.3-105.5-43.3C411.7,211.2,455.1,214.8,502.1,218.7z M220.4,468.8c-3.4,7.6-3.7,8.1,4.1,13.7
		c43.5,30.8,92,46.2,145.3,46.2c3.7,0,7.7-1.8,11.2-3.5c23.2-11.1,36.8-30.3,43.3-54.6c1.9-6.9,1.8-14.6,1.5-21.9
		c-0.1-2.7-3.7-5.2-5.7-7.7c-2,3.4-2,5.2-2,7c0.1,28.1-12.7,49.8-34.8,65.9c-5.5,4-13.7,6.5-20.5,6.2c-46.4-2.2-89.4-15.7-128.5-41
		C229.5,476,225.1,472.3,220.4,468.8z M313.1,535.2c-60.4-17.9-107.9-53-142.5-105.7c-7.4,4.3-4.6,9.6-1.2,14.6
		c32.7,47.5,76.5,80,131.7,96.9C307.3,542.9,311.4,541.6,313.1,535.2z M411.8,431.1c-0.6-0.7-1.2-1.4-1.8-2.1
		c-53.3,15.7-106.4,15-159.6-1.4c-2.1,8,4.1,8.6,8.3,9.9c34.3,11.5,69.6,12.1,105.1,8.8c13.7-1.3,27.1-5.1,40.5-8.4
		C407.1,437.2,409.3,433.5,411.8,431.1z M269.8,74.9c-2.2-1.9-4.2-4.9-6.8-5.5c-8.6-1.9-17.4-3.7-26.2-4
		c-26.1-0.9-51.5,2.9-74.8,15.3c-3.2,1.7-5.3,5.3-7.9,8.1c0.7,0.6,1.3,1.2,2,1.8C209.4,69.9,215.5,69.2,269.8,74.9z M271.8,205
		c-38.8,18.7-77.6,26.8-119.5,26.3C166.5,244.3,260.9,223.9,271.8,205z M274.4,176.5c-2.8-18.2-39.3-45.1-53.3-39.1
		C243.7,144.6,260.9,158,274.4,176.5z M418.9,90.2c-11.8-7.1-23-5.7-34-5.5c-0.8,0-2.4,2.3-2.1,3.2c0.3,1.4,1.9,3.7,2.9,3.7
		C396,91.4,406.5,90.8,418.9,90.2z"/>
	<path d="M187.4,342c8.8,17,17.6,34,27.6,53.4c-3.7-3-6.8-4.7-8.7-7.2c-15.7-20.9-23.9-44.8-27.9-71.3c-1.6,3.5-2.9,6.4-4.2,9.2
		c-6.8,0.4-7.5-2.9-5.8-8c5.1-15.7,10.2-31.5,14.8-45.8c15.5-1.3,30.4-0.9,44.5-4.2c13.8-3.2,26.7-10.1,42.4-16.3
		c-3.1,3.5-4.9,6.6-7.5,8.4c-16.9,11.1-35.8,16-55.8,17.2c-3.7,0.2-7.4,0-11.1,0c-2.7,8.9,0.6,12.9,8.9,16.2
		c34.7,13.6,70.8,20.8,107.5,25.3c39.5,4.8,79.2,6.5,118.8,0.8c11-1.6,21.9-4.2,32.5-6.3c-3.2-5.1-5.6-8.9-8.2-13.1
		c7.4-4.5,10.1-1.5,13.6,3.4c10,13.9,15.1,28.5,10.1,46.9c-13.1-6.1-0.5-19.8-10.2-26.3c-1.3,2.4-2.9,5.2-4.5,8
		c-9.9,17.3-18.9,35.3-30,51.8c-18.9,28.2-46.1,43.3-80.1,46.8c-29,3-57.8,3.1-86.3-3.8c-6-1.5-12.2-4.6-16.8-8.6
		c-25.2-22.2-46.1-47.8-61-78.2C189.2,340.9,188.3,341.5,187.4,342z M268,325.2c-0.2,13.3-6.5,26.8,6.2,37.3
		c10.4,8.6,21.4,10.2,34,3.7c14.5-7.5,11.6-20.6,12.7-33.2C303.2,330.4,286,327.8,268,325.2z M459.1,327c-9.6,1.8-17.4,3.2-25.1,4.6
		c-9.1,1.7-11.7,7.5-7.2,15.6c5.5,10,18.7,10.1,24.3-0.1C454.2,341.3,456.1,334.8,459.1,327z M326.7,333.3
		c-1.6,13.5,4.8,22.3,13.1,31.1c8.8-8.1,16-16.3,15.2-29.3C345.4,334.5,336.7,333.9,326.7,333.3z M362.2,356.3c9.2,0,17.3,0,25.4,0
		c0-7.1,0-13.6,0-20.3c-8.9,0-17,0-25.4,0C362.2,343,362.2,349.4,362.2,356.3z M264.8,324.2c-9.2-2.2-17.3-4.1-25.9-6.1
		c-1.5,6.8-2.8,12.7-4.2,19.3c8.8,1.9,17,3.7,25.8,5.5C262,336.5,263.3,330.9,264.8,324.2z M210.8,309.3
		c-0.7,14.4,6.2,23.9,16.8,33.6c2.5-7.7,5-14.1,6.5-20.8c0.4-1.8-1.4-5.5-3-6.1C224.8,313.4,218.1,311.6,210.8,309.3z M289.6,422.6
		c8.7,1.1,14,1.9,21.9,2.9c-1.4-6.2-1.4-11.6-3.9-15.3c-1.4-2.1-8.5-3-10.3-1.4C293.9,411.7,292.6,417,289.6,422.6z M206.2,329.8
		c4.7-21.2,1-27.3-15.8-26.7C195.7,311.9,200.7,320.4,206.2,329.8z M414.2,334.1c-8.7,0.5-14.9,0.9-21,1.2c-0.5,0.9-1.1,1.9-1.6,2.8
		c3.7,3.3,7.3,6.5,12,10.6C407.2,343.9,410,339.9,414.2,334.1z M329.5,424.2c-2.8-4.7-4.4-8.3-6.9-11.3c-0.7-0.8-5.1-0.3-5.4,0.6
		c-1.5,3.8-2.2,7.9-3.6,13.7C319.7,426.1,323.1,425.4,329.5,424.2z M345.7,421.8c6.5-1.4,9.9-2.1,15.3-3.3c-2.4-4.4-3.9-8.1-6.4-11
		c-0.7-0.9-5.6-0.1-6.1,1C347.2,411.9,346.9,415.9,345.7,421.8z M329.7,421.9c1.1,0.9,2.3,1.8,3.4,2.6c3.5-1.6,7.6-2.6,10.1-5.1
		c0.9-0.9-1.5-6-3.4-8.4c-0.9-1.2-5.8-1.3-6.2-0.5C331.8,414,330.9,418,329.7,421.9z"/>
	<path d="M277.7,203.4c-21.5-1.6-40.2-2.9-58.8-4.4c-27.3-2.2-54.6-4.3-81.9-6.8c-15.8-1.5-31.6-3.6-47.4-5.7
		c-1.6-0.2-3.8-2-4.4-3.5c-2.2-6.5,2.7-17.7,9-20.9c24.6-12.5,50.9-15.9,78-14.6c27.5,1.4,54.4,6.6,79,19.7
		c7.5,4,15.6,8.4,20.8,14.8C276,187,275.7,195.1,277.7,203.4z M208.8,167.4c-40.2-10.1-93.8-5.6-114.9,10.1
		c56.8,4.8,112.6,9.6,169.8,14.5c-5-6.9-10.1-7.5-16.8-7.2c-11.5,0.5-23.3,0.3-34.5-2C201.5,180.6,200.9,175.8,208.8,167.4z"/>
	<path d="M502.1,218.7c-47-3.9-90.4-7.5-136.3-11.4c33.2,23,67.7,37,105.5,43.3c0,0.8,0,1.7-0.1,2.5c-2.2,0.4-4.6,1.6-6.6,1.2
		c-38.4-7-73.6-21.3-104.6-45.7c-6-4.7-4.9-9.6-3.7-15.3c0.8-3.8,1.6-7.8,1.4-11.6c-0.9-18.6,3.3-35.5,16-49.9
		c-7.9,17-14.5,34.3-11.8,52c17.8-5.2,34.3-10.8,51.2-14.9c13.6-3.2,27.2-0.2,39.2,6.7c15.4,8.8,30.4,18.5,44.9,28.6
		C500,206.3,500,212.4,502.1,218.7z M449.2,205.9c-3.3-3.4-9.1-6.8-9.4-10.7c-0.3-3.4,5.7-7.3,8.9-10.8c-22-12.5-55.5-6.6-79.1,15
		C396.7,201.7,423.3,203.8,449.2,205.9z"/>
	<path d="M220.4,468.8c4.7,3.5,9.1,7.2,13.9,10.3c39.1,25.3,82.1,38.8,128.5,41c6.8,0.3,15-2.2,20.5-6.2
		c22.1-16.1,34.8-37.7,34.8-65.9c0-1.8,0-3.7,2-7c2,2.6,5.5,5.1,5.7,7.7c0.3,7.3,0.4,14.9-1.5,21.9c-6.5,24.3-20.1,43.4-43.3,54.6
		c-3.5,1.7-7.5,3.5-11.2,3.5c-53.3,0-101.8-15.4-145.3-46.2C216.7,476.9,217,476.5,220.4,468.8z"/>
	<path d="M313.1,535.2c-1.8,6.4-5.9,7.7-11.9,5.8c-55.3-16.9-99-49.4-131.7-96.9c-3.5-5.1-6.3-10.4,1.2-14.6
		C205.2,482.2,252.7,517.3,313.1,535.2z"/>
	<path d="M411.8,431.1c-2.5,2.4-4.7,6.1-7.6,6.9c-13.4,3.4-26.9,7.2-40.5,8.4c-35.4,3.3-70.8,2.7-105.1-8.8c-4.1-1.4-10.4-2-8.3-9.9
		c53.2,16.3,106.4,17.1,159.6,1.4C410.6,429.7,411.2,430.4,411.8,431.1z"/>
	<path d="M269.8,74.9c-54.3-5.7-60.4-5-113.7,15.8c-0.7-0.6-1.3-1.2-2-1.8c2.6-2.7,4.7-6.4,7.9-8.1c23.4-12.5,48.7-16.2,74.8-15.3
		c8.8,0.3,17.6,2.1,26.2,4C265.6,70,267.6,73,269.8,74.9z"/>
	<path d="M271.8,205c-10.9,18.9-105.4,39.4-119.5,26.3C194.2,231.8,233,223.7,271.8,205z"/>
	<path d="M274.4,176.5c-13.4-18.5-30.7-31.9-53.3-39.1C235,131.4,271.6,158.3,274.4,176.5z"/>
	<path d="M418.9,90.2c-12.4,0.6-22.8,1.2-33.3,1.5c-1,0-2.5-2.3-2.9-3.7c-0.2-0.9,1.3-3.2,2.1-3.2C395.8,84.5,407.1,83,418.9,90.2z"
		/>
	<path class="st0" d="M268,325.2c18.1,2.7,35.2,5.2,52.9,7.9c-1.2,12.6,1.8,25.7-12.7,33.2c-12.6,6.5-23.6,4.9-34-3.7
		C261.5,352,267.7,338.5,268,325.2z"/>
	<path class="st0" d="M459.1,327c-3,7.7-4.9,14.3-8,20.1c-5.6,10.2-18.7,10.1-24.3,0.1c-4.5-8.1-1.9-13.9,7.2-15.6
		C441.7,330.2,449.5,328.8,459.1,327z"/>
	<path class="st0" d="M326.7,333.3c10,0.6,18.8,1.2,28.3,1.8c0.8,13-6.4,21.2-15.2,29.3C331.5,355.6,325,346.8,326.7,333.3z"/>
	<path class="st0" d="M362.2,356.3c0-7,0-13.3,0-20.3c8.4,0,16.5,0,25.4,0c0,6.6,0,13.1,0,20.3C379.5,356.3,371.4,356.3,362.2,356.3
		z"/>
	<path class="st0" d="M264.8,324.2c-1.5,6.7-2.8,12.2-4.3,18.7c-8.7-1.9-16.9-3.6-25.8-5.5c1.5-6.6,2.7-12.5,4.2-19.3
		C247.5,320.2,255.7,322.1,264.8,324.2z"/>
	<path class="st0" d="M210.8,309.3c7.3,2.3,14,4.1,20.3,6.7c1.7,0.7,3.4,4.4,3,6.1c-1.6,6.7-4,13.1-6.5,20.8
		C217,333.2,210.1,323.7,210.8,309.3z"/>
	<path class="st0" d="M289.6,422.6c2.9-5.7,4.3-10.9,7.7-13.8c1.9-1.6,8.9-0.7,10.3,1.4c2.5,3.7,2.5,9.1,3.9,15.3
		C303.7,424.5,298.3,423.8,289.6,422.6z"/>
	<path class="st0" d="M206.2,329.8c-5.5-9.4-10.6-17.9-15.8-26.7C207.2,302.5,210.9,308.6,206.2,329.8z"/>
	<path class="st0" d="M414.2,334.1c-4.2,5.8-7.1,9.7-10.7,14.7c-4.7-4.1-8.3-7.4-12-10.6c0.5-0.9,1.1-1.9,1.6-2.8
		C399.4,335,405.5,334.7,414.2,334.1z"/>
	<path class="st0" d="M329.5,424.2c-6.4,1.2-9.8,1.9-15.9,3c1.4-5.8,2-9.9,3.6-13.7c0.4-0.9,4.7-1.4,5.4-0.6
		C325,415.9,326.7,419.5,329.5,424.2z"/>
	<path class="st0" d="M345.7,421.8c1.2-5.9,1.4-9.8,2.9-13.3c0.5-1.1,5.3-1.9,6.1-1c2.5,2.9,3.9,6.6,6.4,11
		C355.6,419.7,352.2,420.4,345.7,421.8z"/>
	<path class="st0" d="M329.7,421.9c1.2-3.9,2.1-7.9,4-11.4c0.4-0.8,5.2-0.7,6.2,0.5c1.9,2.4,4.3,7.5,3.4,8.4
		c-2.5,2.6-6.6,3.5-10.1,5.1C331.9,423.6,330.8,422.8,329.7,421.9z"/>
	<path class="st0" d="M208.8,167.4c-8,8.4-7.3,13.2,3.5,15.4c11.2,2.3,23,2.4,34.5,2c6.7-0.3,11.8,0.3,16.8,7.2
		c-57.2-4.9-112.9-9.6-169.8-14.5C115,161.8,168.6,157.3,208.8,167.4z"/>
	<path class="st0" d="M449.2,205.9c-25.9-2.1-52.4-4.3-79.6-6.5c23.5-21.6,57.1-27.5,79.1-15c-3.1,3.6-9.1,7.4-8.9,10.8
		C440,199.1,445.9,202.5,449.2,205.9z"/>
</g>
</svg>
